{"glyphs":{"0":{"ha":884,"x_min":74,"x_max":809,"o":"m 442 -13 q 170 97 265 -13 q 74 408 74 206 l 74 597 q 170 912 74 802 q 443 1023 266 1023 q 715 912 620 1023 q 809 597 809 802 l 809 408 q 714 97 809 206 q 442 -13 619 -13 m 442 145 q 574 208 535 145 q 612 426 612 271 l 612 580 q 574 801 612 736 q 442 865 535 865 q 310 801 348 865 q 271 580 271 736 l 271 426 q 310 208 271 271 q 442 145 348 145 m 442 398 q 376 412 402 398 q 351 465 351 426 l 351 544 q 376 597 351 582 q 442 611 402 611 q 507 597 482 611 q 532 544 532 582 l 532 465 q 506 412 532 426 q 442 398 481 398 z "},"1":{"ha":884,"x_min":91,"x_max":821,"o":"m 120 0 l 120 167 l 380 167 l 380 806 l 343 806 q 251 679 316 723 q 104 636 187 635 l 91 804 q 268 864 189 808 q 384 1010 346 919 l 595 1010 l 595 167 l 821 167 l 821 0 l 120 0 z "},"2":{"ha":884,"x_min":74,"x_max":809,"o":"m 74 0 l 74 211 q 126 397 74 331 q 313 515 178 463 l 449 566 q 550 616 518 591 q 582 703 582 640 l 582 732 q 549 836 582 807 q 442 865 516 865 q 340 831 370 865 q 302 693 309 797 l 87 706 q 179 949 97 875 q 441 1023 261 1023 q 711 949 625 1023 q 797 735 797 875 l 797 676 q 733 509 797 566 q 563 413 669 452 l 426 362 q 315 303 341 328 q 289 213 289 278 l 289 167 l 809 167 l 809 0 l 74 0 z "},"3":{"ha":884,"x_min":62,"x_max":809,"o":"m 441 -13 q 157 62 244 -13 q 62 288 71 138 l 277 301 q 321 177 287 203 q 446 152 355 152 q 561 182 527 152 q 595 280 595 212 l 595 314 q 557 417 595 386 q 442 448 520 448 l 307 448 l 307 612 l 442 612 q 541 633 513 612 q 569 710 569 654 l 569 750 q 539 833 569 808 q 436 859 508 859 q 340 831 370 859 q 302 734 311 804 l 87 746 q 176 958 96 894 q 429 1023 256 1023 q 697 963 610 1023 q 784 769 784 904 l 784 741 q 730 609 784 657 q 595 553 677 562 l 595 516 q 747 451 684 509 q 809 301 809 394 l 809 275 q 716 54 809 120 q 441 -13 622 -13 z "},"4":{"ha":884,"x_min":62,"x_max":872,"o":"m 254 410 l 506 410 l 506 794 l 254 410 m 872 253 l 721 253 l 721 0 l 506 0 l 506 253 l 62 253 l 62 410 l 449 1010 l 721 1010 l 721 410 l 872 410 l 872 253 z "},"5":{"ha":884,"x_min":62,"x_max":809,"o":"m 441 -13 q 155 57 240 -13 q 62 306 71 126 l 277 318 q 320 178 287 211 q 442 145 354 145 q 563 182 532 145 q 595 299 595 220 l 595 342 q 562 453 595 418 q 432 487 529 487 l 100 487 l 100 1010 l 768 1010 l 768 852 l 314 852 l 314 655 l 495 655 q 730 586 652 655 q 809 376 809 518 l 809 269 q 720 68 809 148 q 441 -13 631 -13 z "},"6":{"ha":884,"x_min":74,"x_max":809,"o":"m 442 -13 q 164 80 254 -13 q 74 348 74 172 l 74 654 q 167 931 74 838 q 444 1023 260 1023 q 688 963 606 1023 q 798 764 770 903 l 572 735 q 528 838 556 812 q 429 865 501 865 q 321 817 354 865 q 289 653 289 769 l 289 543 l 306 543 q 388 607 337 582 q 529 631 438 631 q 737 554 664 631 q 809 331 809 477 l 809 303 q 717 66 809 145 q 442 -13 625 -13 m 441 145 q 558 188 524 145 q 592 304 592 230 l 592 321 q 558 446 592 402 q 441 490 524 490 q 323 446 357 490 q 289 321 289 402 l 289 304 q 323 184 289 223 q 441 145 357 145 z "},"7":{"ha":884,"x_min":74,"x_max":809,"o":"m 271 0 q 395 463 333 292 q 595 840 456 634 l 74 840 l 74 1010 l 809 1010 l 809 840 q 610 431 674 615 q 508 0 547 247 l 271 0 z "},"8":{"ha":884,"x_min":74,"x_max":809,"o":"m 442 -13 q 164 54 254 -13 q 74 261 74 121 l 74 289 q 129 444 74 384 q 282 514 184 505 l 282 551 q 152 608 205 558 q 100 740 100 658 l 100 780 q 184 964 100 905 q 442 1023 268 1023 q 700 964 616 1023 q 784 780 784 905 l 784 740 q 732 608 784 658 q 602 551 679 558 l 602 514 q 754 444 699 505 q 809 289 809 383 l 809 261 q 720 54 809 121 q 442 -13 630 -13 m 442 610 q 539 634 508 610 q 569 721 569 659 l 569 750 q 539 835 569 812 q 442 859 508 859 q 345 835 376 859 q 314 750 314 812 l 314 721 q 345 634 314 659 q 442 610 376 610 m 442 152 q 564 187 533 152 q 595 292 595 222 l 595 309 q 564 416 595 380 q 442 452 533 452 q 320 416 351 452 q 289 309 289 380 l 289 292 q 320 187 289 222 q 442 152 351 152 z "},"9":{"ha":884,"x_min":74,"x_max":809,"o":"m 443 520 q 561 565 527 520 q 595 689 595 610 l 595 706 q 561 826 595 787 q 443 865 527 865 q 326 823 360 865 q 292 706 292 780 l 292 689 q 326 565 292 610 q 443 520 360 520 m 439 -13 q 197 49 279 -13 q 86 246 115 110 l 312 275 q 358 170 330 196 q 456 145 386 145 q 563 194 532 145 q 595 357 595 242 l 595 467 l 578 467 q 494 403 545 427 q 354 379 442 379 q 146 456 218 379 q 74 679 74 533 l 74 707 q 167 944 74 865 q 442 1023 259 1023 q 720 931 630 1023 q 809 662 809 838 l 809 356 q 719 81 809 176 q 439 -13 629 -13 z "},"\u0000":{"ha":0,"x_min":0,"x_max":0,"o":""},"\r":{"ha":0,"x_min":0,"x_max":0,"o":""}," ":{"ha":884,"x_min":0,"x_max":0,"o":""}," ":{"ha":884,"x_min":0,"x_max":0,"o":""},"A":{"ha":884,"x_min":24,"x_max":861,"o":"m 552 413 l 446 840 l 332 413 l 552 413 m 655 0 l 593 246 l 288 246 l 222 0 l 24 0 l 314 1010 l 571 1010 l 861 0 l 655 0 z "},"À":{"ha":884,"x_min":24,"x_max":861,"o":"m 552 413 l 446 840 l 332 413 l 552 413 m 655 0 l 593 246 l 288 246 l 222 0 l 24 0 l 314 1010 l 571 1010 l 861 0 l 655 0 m 426 1136 l 153 1389 l 431 1389 l 576 1136 l 426 1136 z "},"Á":{"ha":884,"x_min":24,"x_max":861,"o":"m 552 413 l 446 840 l 332 413 l 552 413 m 655 0 l 593 246 l 288 246 l 222 0 l 24 0 l 314 1010 l 571 1010 l 861 0 l 655 0 m 280 1136 l 426 1389 l 703 1389 l 431 1136 l 280 1136 z "},"Â":{"ha":884,"x_min":24,"x_max":861,"o":"m 552 413 l 446 840 l 332 413 l 552 413 m 655 0 l 593 246 l 288 246 l 222 0 l 24 0 l 314 1010 l 571 1010 l 861 0 l 655 0 m 201 1124 l 131 1222 l 360 1419 l 521 1419 l 753 1222 l 684 1125 l 441 1261 l 201 1124 z "},"Ã":{"ha":884,"x_min":24,"x_max":861,"o":"m 552 413 l 446 840 l 332 413 l 552 413 m 655 0 l 593 246 l 288 246 l 222 0 l 24 0 l 314 1010 l 571 1010 l 861 0 l 655 0 m 557 1149 q 469 1169 501 1149 q 415 1212 437 1189 q 377 1256 395 1236 q 335 1275 359 1275 q 297 1256 313 1275 q 282 1174 280 1236 l 282 1162 l 140 1162 l 140 1181 q 190 1351 140 1283 q 328 1419 240 1419 q 419 1400 386 1419 q 472 1356 451 1380 q 511 1312 494 1332 q 551 1292 529 1292 q 588 1311 572 1292 q 604 1394 605 1331 l 604 1405 l 745 1405 l 745 1386 q 695 1217 745 1285 q 557 1149 645 1149 z "},"Ä":{"ha":884,"x_min":24,"x_max":861,"o":"m 552 413 l 446 840 l 332 413 l 552 413 m 655 0 l 593 246 l 288 246 l 222 0 l 24 0 l 314 1010 l 571 1010 l 861 0 l 655 0 m 283 1131 q 203 1151 234 1131 q 172 1220 172 1170 l 172 1236 q 203 1307 172 1287 q 283 1328 234 1328 q 364 1307 333 1328 q 395 1236 395 1287 l 395 1220 q 364 1151 395 1170 q 283 1131 332 1131 m 601 1131 q 520 1151 551 1131 q 489 1220 489 1170 l 489 1236 q 520 1307 489 1287 q 601 1328 551 1328 q 682 1307 652 1328 q 712 1236 712 1287 l 712 1220 q 681 1151 712 1170 q 601 1131 649 1131 z "},"Å":{"ha":884,"x_min":24,"x_max":861,"o":"m 552 413 l 446 840 l 332 413 l 552 413 m 655 0 l 593 246 l 288 246 l 222 0 l 24 0 l 314 1010 l 571 1010 l 861 0 l 655 0 m 442 1109 q 264 1155 332 1109 q 196 1301 196 1202 l 196 1341 q 264 1488 196 1439 q 442 1537 332 1537 q 621 1488 553 1537 q 688 1341 688 1439 l 688 1301 q 620 1155 688 1202 q 442 1109 552 1109 m 442 1216 q 513 1235 489 1216 q 537 1301 537 1254 l 537 1341 q 513 1408 537 1386 q 442 1429 489 1429 q 371 1408 395 1429 q 347 1341 347 1386 l 347 1301 q 371 1235 347 1254 q 442 1216 395 1216 z "},"Ā":{"ha":884,"x_min":24,"x_max":861,"o":"m 552 413 l 446 840 l 332 413 l 552 413 m 655 0 l 593 246 l 288 246 l 222 0 l 24 0 l 314 1010 l 571 1010 l 861 0 l 655 0 m 167 1179 l 167 1346 l 717 1346 l 717 1179 l 167 1179 z "},"Ă":{"ha":884,"x_min":24,"x_max":861,"o":"m 552 413 l 446 840 l 332 413 l 552 413 m 655 0 l 593 246 l 288 246 l 222 0 l 24 0 l 314 1010 l 571 1010 l 861 0 l 655 0 m 442 1128 q 202 1198 285 1128 q 117 1419 119 1268 l 297 1419 q 332 1297 298 1332 q 442 1263 366 1263 q 552 1297 518 1263 q 587 1419 586 1332 l 766 1419 q 682 1198 765 1268 q 442 1128 598 1128 z "},"Ą":{"ha":884,"x_min":24,"x_max":941,"o":"m 552 413 l 446 840 l 332 413 l 552 413 m 655 0 l 593 246 l 288 246 l 222 0 l 24 0 l 314 1010 l 571 1010 l 861 0 l 655 0 m 789 -279 q 631 -239 691 -279 q 572 -121 572 -199 q 632 11 572 -44 q 761 86 692 66 l 795 29 q 741 -23 753 3 q 730 -73 730 -49 q 753 -122 730 -106 q 823 -139 775 -139 q 878 -136 846 -139 q 941 -126 909 -133 l 941 -264 q 862 -275 902 -271 q 789 -279 823 -279 z "},"Ǻ":{"ha":884,"x_min":24,"x_max":861,"o":"m 552 413 l 446 840 l 332 413 l 552 413 m 655 0 l 593 246 l 288 246 l 222 0 l 24 0 l 314 1010 l 571 1010 l 861 0 l 655 0 m 442 1109 q 264 1155 332 1109 q 196 1301 196 1202 l 196 1341 q 264 1488 196 1439 q 442 1537 332 1537 q 621 1488 553 1537 q 688 1341 688 1439 l 688 1301 q 620 1155 688 1202 q 442 1109 552 1109 m 442 1216 q 513 1235 489 1216 q 537 1301 537 1254 l 537 1341 q 513 1408 537 1386 q 442 1429 489 1429 q 371 1408 395 1429 q 347 1341 347 1386 l 347 1301 q 371 1235 347 1254 q 442 1216 395 1216 m 365 1515 l 510 1768 l 788 1768 l 515 1515 l 365 1515 z "},"B":{"ha":884,"x_min":82,"x_max":811,"o":"m 82 0 l 82 1010 l 453 1010 q 699 952 620 1010 q 779 773 779 894 l 779 726 q 743 607 779 649 q 633 553 707 566 l 633 516 q 764 456 717 508 q 811 327 811 405 l 811 264 q 723 64 811 129 q 453 0 636 0 l 82 0 m 297 598 l 439 598 q 537 622 508 598 q 567 699 567 645 l 567 753 q 537 830 567 807 q 439 852 508 852 l 297 852 l 297 598 m 297 158 l 443 158 q 561 185 527 158 q 596 277 596 212 l 596 335 q 561 425 596 398 q 443 452 527 452 l 297 452 l 297 158 z "},"":{"ha":884,"x_min":82,"x_max":811,"o":"m 82 0 l 82 1010 l 453 1010 q 699 952 620 1010 q 779 773 779 894 l 779 726 q 743 607 779 649 q 633 553 707 566 l 633 516 q 764 456 717 508 q 811 327 811 405 l 811 264 q 723 64 811 129 q 453 0 636 0 l 82 0 m 297 598 l 439 598 q 537 622 508 598 q 567 699 567 645 l 567 753 q 537 830 567 807 q 439 852 508 852 l 297 852 l 297 598 m 297 158 l 443 158 q 561 185 527 158 q 596 277 596 212 l 596 335 q 561 425 596 398 q 443 452 527 452 l 297 452 l 297 158 z "},"C":{"ha":884,"x_min":74,"x_max":835,"o":"m 455 -13 q 169 71 264 -13 q 74 323 74 155 l 74 682 q 170 937 74 852 q 456 1023 265 1023 q 737 938 648 1023 q 835 663 826 854 l 620 650 q 578 814 611 773 q 455 856 544 856 q 327 812 365 856 q 289 663 289 768 l 289 341 q 327 197 289 240 q 455 154 365 154 q 577 194 543 154 q 620 355 611 235 l 835 342 q 737 71 826 154 q 455 -13 648 -13 z "},"Ç":{"ha":884,"x_min":74,"x_max":835,"o":"m 455 -13 q 169 71 264 -13 q 74 323 74 155 l 74 682 q 170 937 74 852 q 456 1023 265 1023 q 737 938 648 1023 q 835 663 826 854 l 620 650 q 578 814 611 773 q 455 856 544 856 q 327 812 365 856 q 289 663 289 768 l 289 341 q 327 197 289 240 q 455 154 365 154 q 577 194 543 154 q 620 355 611 235 l 835 342 q 737 71 826 154 q 455 -13 648 -13 m 422 0 l 447 53 q 602 8 539 43 q 665 -112 665 -28 q 590 -242 665 -203 q 419 -282 514 -282 q 240 -245 309 -282 q 164 -121 170 -208 l 346 -109 q 363 -142 348 -133 q 410 -152 378 -152 q 463 -138 446 -152 q 481 -81 481 -124 q 468 -27 481 -45 q 422 0 456 -9 z "},"Ć":{"ha":884,"x_min":74,"x_max":835,"o":"m 455 -13 q 169 71 264 -13 q 74 323 74 155 l 74 682 q 170 937 74 852 q 456 1023 265 1023 q 737 938 648 1023 q 835 663 826 854 l 620 650 q 578 814 611 773 q 455 856 544 856 q 327 812 365 856 q 289 663 289 768 l 289 341 q 327 197 289 240 q 455 154 365 154 q 577 194 543 154 q 620 355 611 235 l 835 342 q 737 71 826 154 q 455 -13 648 -13 m 331 1136 l 476 1389 l 754 1389 l 481 1136 l 331 1136 z "},"Ĉ":{"ha":884,"x_min":74,"x_max":835,"o":"m 455 -13 q 169 71 264 -13 q 74 323 74 155 l 74 682 q 170 937 74 852 q 456 1023 265 1023 q 737 938 648 1023 q 835 663 826 854 l 620 650 q 578 814 611 773 q 455 856 544 856 q 327 812 365 856 q 289 663 289 768 l 289 341 q 327 197 289 240 q 455 154 365 154 q 577 194 543 154 q 620 355 611 235 l 835 342 q 737 71 826 154 q 455 -13 648 -13 m 218 1124 l 149 1222 l 378 1419 l 539 1419 l 770 1222 l 702 1125 l 458 1261 l 218 1124 z "},"Ċ":{"ha":884,"x_min":74,"x_max":835,"o":"m 455 -13 q 169 71 264 -13 q 74 323 74 155 l 74 682 q 170 937 74 852 q 456 1023 265 1023 q 737 938 648 1023 q 835 663 826 854 l 620 650 q 578 814 611 773 q 455 856 544 856 q 327 812 365 856 q 289 663 289 768 l 289 341 q 327 197 289 240 q 455 154 365 154 q 577 194 543 154 q 620 355 611 235 l 835 342 q 737 71 826 154 q 455 -13 648 -13 m 460 1131 q 355 1151 395 1131 q 314 1220 314 1170 l 314 1236 q 355 1307 314 1287 q 460 1328 395 1328 q 564 1307 524 1328 q 605 1236 605 1287 l 605 1220 q 564 1151 605 1170 q 460 1131 524 1131 z "},"Č":{"ha":884,"x_min":74,"x_max":835,"o":"m 455 -13 q 169 71 264 -13 q 74 323 74 155 l 74 682 q 170 937 74 852 q 456 1023 265 1023 q 737 938 648 1023 q 835 663 826 854 l 620 650 q 578 814 611 773 q 455 856 544 856 q 327 812 365 856 q 289 663 289 768 l 289 341 q 327 197 289 240 q 455 154 365 154 q 577 194 543 154 q 620 355 611 235 l 835 342 q 737 71 826 154 q 455 -13 648 -13 m 380 1141 l 149 1338 l 217 1436 l 461 1299 l 701 1437 l 770 1338 l 542 1141 l 380 1141 z "},"D":{"ha":884,"x_min":82,"x_max":809,"o":"m 82 0 l 82 1010 l 432 1010 q 709 910 609 1010 q 809 643 809 809 l 809 362 q 709 98 809 197 q 431 0 609 0 l 82 0 m 297 167 l 413 167 q 553 217 511 167 q 595 380 595 268 l 595 625 q 553 791 595 739 q 413 843 511 843 l 297 843 l 297 167 z "},"Ď":{"ha":884,"x_min":82,"x_max":809,"o":"m 82 0 l 82 1010 l 432 1010 q 709 910 609 1010 q 809 643 809 809 l 809 362 q 709 98 809 197 q 431 0 609 0 l 82 0 m 297 167 l 413 167 q 553 217 511 167 q 595 380 595 268 l 595 625 q 553 791 595 739 q 413 843 511 843 l 297 843 l 297 167 m 362 1141 l 131 1338 l 199 1436 l 443 1299 l 683 1437 l 753 1338 l 524 1141 l 362 1141 z "},"E":{"ha":884,"x_min":82,"x_max":809,"o":"m 82 0 l 82 1010 l 809 1010 l 809 843 l 297 843 l 297 624 l 746 624 l 746 457 l 297 457 l 297 167 l 809 167 l 809 0 l 82 0 z "},"":{"ha":884,"x_min":82,"x_max":809,"o":"m 82 0 l 82 1010 l 809 1010 l 809 843 l 297 843 l 297 624 l 746 624 l 746 457 l 297 457 l 297 167 l 809 167 l 809 0 l 82 0 z "},"È":{"ha":884,"x_min":82,"x_max":809,"o":"m 82 0 l 82 1010 l 809 1010 l 809 843 l 297 843 l 297 624 l 746 624 l 746 457 l 297 457 l 297 167 l 809 167 l 809 0 l 82 0 m 456 1136 l 183 1389 l 461 1389 l 606 1136 l 456 1136 z "},"É":{"ha":884,"x_min":82,"x_max":809,"o":"m 82 0 l 82 1010 l 809 1010 l 809 843 l 297 843 l 297 624 l 746 624 l 746 457 l 297 457 l 297 167 l 809 167 l 809 0 l 82 0 m 318 1134 l 463 1386 l 741 1386 l 468 1134 l 318 1134 z "},"Ê":{"ha":884,"x_min":82,"x_max":809,"o":"m 82 0 l 82 1010 l 809 1010 l 809 843 l 297 843 l 297 624 l 746 624 l 746 457 l 297 457 l 297 167 l 809 167 l 809 0 l 82 0 m 217 1124 l 148 1222 l 376 1419 l 538 1419 l 769 1222 l 701 1125 l 457 1261 l 217 1124 z "},"Ë":{"ha":884,"x_min":82,"x_max":809,"o":"m 82 0 l 82 1010 l 809 1010 l 809 843 l 297 843 l 297 624 l 746 624 l 746 457 l 297 457 l 297 167 l 809 167 l 809 0 l 82 0 m 306 1131 q 225 1151 256 1131 q 194 1220 194 1170 l 194 1236 q 225 1307 194 1287 q 306 1328 256 1328 q 387 1307 356 1328 q 418 1236 418 1287 l 418 1220 q 386 1151 418 1170 q 306 1131 355 1131 m 624 1131 q 542 1151 573 1131 q 511 1220 511 1170 l 511 1236 q 542 1307 511 1287 q 624 1328 573 1328 q 705 1307 674 1328 q 735 1236 735 1287 l 735 1220 q 703 1151 735 1170 q 624 1131 672 1131 z "},"Ē":{"ha":884,"x_min":82,"x_max":809,"o":"m 82 0 l 82 1010 l 809 1010 l 809 843 l 297 843 l 297 624 l 746 624 l 746 457 l 297 457 l 297 167 l 809 167 l 809 0 l 82 0 m 183 1179 l 183 1346 l 734 1346 l 734 1179 l 183 1179 z "},"Ĕ":{"ha":884,"x_min":82,"x_max":809,"o":"m 82 0 l 82 1010 l 809 1010 l 809 843 l 297 843 l 297 624 l 746 624 l 746 457 l 297 457 l 297 167 l 809 167 l 809 0 l 82 0 m 458 1128 q 218 1198 302 1128 q 134 1419 135 1268 l 313 1419 q 348 1297 314 1332 q 458 1263 383 1263 q 568 1297 534 1263 q 604 1419 602 1332 l 783 1419 q 698 1198 782 1268 q 458 1128 615 1128 z "},"Ė":{"ha":884,"x_min":82,"x_max":809,"o":"m 82 0 l 82 1010 l 809 1010 l 809 843 l 297 843 l 297 624 l 746 624 l 746 457 l 297 457 l 297 167 l 809 167 l 809 0 l 82 0 m 458 1131 q 354 1151 394 1131 q 313 1220 313 1170 l 313 1236 q 354 1307 313 1287 q 458 1328 394 1328 q 563 1307 523 1328 q 604 1236 604 1287 l 604 1220 q 563 1151 604 1170 q 458 1131 523 1131 z "},"Ę":{"ha":884,"x_min":82,"x_max":809,"o":"m 657 -279 q 499 -239 558 -279 q 439 -121 439 -199 q 499 11 439 -44 q 629 86 559 66 l 663 29 q 609 -23 620 3 q 597 -73 597 -49 q 620 -122 597 -106 q 691 -139 643 -139 q 745 -136 713 -139 q 808 -126 777 -133 l 808 -264 q 730 -275 769 -271 q 657 -279 691 -279 m 82 0 l 82 1010 l 809 1010 l 809 843 l 297 843 l 297 624 l 746 624 l 746 457 l 297 457 l 297 167 l 809 167 l 809 0 l 82 0 z "},"Ě":{"ha":884,"x_min":82,"x_max":809,"o":"m 82 0 l 82 1010 l 809 1010 l 809 843 l 297 843 l 297 624 l 746 624 l 746 457 l 297 457 l 297 167 l 809 167 l 809 0 l 82 0 m 383 1141 l 152 1338 l 220 1436 l 463 1299 l 703 1437 l 773 1338 l 544 1141 l 383 1141 z "},"F":{"ha":884,"x_min":126,"x_max":827,"o":"m 126 0 l 126 1010 l 827 1010 l 827 843 l 341 843 l 341 549 l 739 549 l 739 383 l 341 383 l 341 0 l 126 0 z "},"G":{"ha":884,"x_min":74,"x_max":817,"o":"m 451 -13 q 172 79 270 -13 q 74 341 74 170 l 74 664 q 170 930 74 837 q 447 1023 266 1023 q 711 941 622 1023 q 809 706 801 860 l 595 693 q 554 820 587 784 q 448 856 521 856 q 325 810 361 856 q 289 646 289 764 l 289 359 q 325 199 289 245 q 449 154 361 154 q 569 200 535 154 q 602 364 604 246 l 442 364 l 442 530 l 817 530 l 817 345 q 722 80 817 172 q 451 -13 628 -13 z "},"Ĝ":{"ha":884,"x_min":74,"x_max":817,"o":"m 451 -13 q 172 79 270 -13 q 74 341 74 170 l 74 664 q 170 930 74 837 q 447 1023 266 1023 q 711 941 622 1023 q 809 706 801 860 l 595 693 q 554 820 587 784 q 448 856 521 856 q 325 810 361 856 q 289 646 289 764 l 289 359 q 325 199 289 245 q 449 154 361 154 q 569 200 535 154 q 602 364 604 246 l 442 364 l 442 530 l 817 530 l 817 345 q 722 80 817 172 q 451 -13 628 -13 m 208 1124 l 139 1222 l 367 1419 l 529 1419 l 760 1222 l 692 1125 l 448 1261 l 208 1124 z "},"Ğ":{"ha":884,"x_min":74,"x_max":817,"o":"m 451 -13 q 172 79 270 -13 q 74 341 74 170 l 74 664 q 170 930 74 837 q 447 1023 266 1023 q 711 941 622 1023 q 809 706 801 860 l 595 693 q 554 820 587 784 q 448 856 521 856 q 325 810 361 856 q 289 646 289 764 l 289 359 q 325 199 289 245 q 449 154 361 154 q 569 200 535 154 q 602 364 604 246 l 442 364 l 442 530 l 817 530 l 817 345 q 722 80 817 172 q 451 -13 628 -13 m 449 1128 q 210 1198 293 1128 q 125 1419 126 1268 l 304 1419 q 340 1297 306 1332 q 449 1263 374 1263 q 559 1297 525 1263 q 595 1419 593 1332 l 774 1419 q 689 1198 773 1268 q 449 1128 606 1128 z "},"Ġ":{"ha":884,"x_min":74,"x_max":817,"o":"m 451 -13 q 172 79 270 -13 q 74 341 74 170 l 74 664 q 170 930 74 837 q 447 1023 266 1023 q 711 941 622 1023 q 809 706 801 860 l 595 693 q 554 820 587 784 q 448 856 521 856 q 325 810 361 856 q 289 646 289 764 l 289 359 q 325 199 289 245 q 449 154 361 154 q 569 200 535 154 q 602 364 604 246 l 442 364 l 442 530 l 817 530 l 817 345 q 722 80 817 172 q 451 -13 628 -13 m 455 1131 q 350 1151 390 1131 q 309 1220 309 1170 l 309 1236 q 350 1307 309 1287 q 455 1328 390 1328 q 559 1307 519 1328 q 600 1236 600 1287 l 600 1220 q 559 1151 600 1170 q 455 1131 519 1131 z "},"Ģ":{"ha":884,"x_min":74,"x_max":817,"o":"m 250 -379 l 345 -126 l 622 -126 l 400 -379 l 250 -379 m 451 -13 q 172 79 270 -13 q 74 341 74 170 l 74 664 q 170 930 74 837 q 447 1023 266 1023 q 711 941 622 1023 q 809 706 801 860 l 595 693 q 554 820 587 784 q 448 856 521 856 q 325 810 361 856 q 289 646 289 764 l 289 359 q 325 199 289 245 q 449 154 361 154 q 569 200 535 154 q 602 364 604 246 l 442 364 l 442 530 l 817 530 l 817 345 q 722 80 817 172 q 451 -13 628 -13 z "},"H":{"ha":884,"x_min":82,"x_max":802,"o":"m 82 0 l 82 1010 l 297 1010 l 297 641 l 587 641 l 587 1010 l 802 1010 l 802 0 l 587 0 l 587 475 l 297 475 l 297 0 l 82 0 z "},"Ĥ":{"ha":884,"x_min":82,"x_max":802,"o":"m 82 0 l 82 1010 l 297 1010 l 297 641 l 587 641 l 587 1010 l 802 1010 l 802 0 l 587 0 l 587 475 l 297 475 l 297 0 l 82 0 m 201 1124 l 131 1222 l 360 1419 l 521 1419 l 753 1222 l 684 1125 l 441 1261 l 201 1124 z "},"I":{"ha":884,"x_min":82,"x_max":802,"o":"m 82 0 l 82 167 l 335 167 l 335 843 l 82 843 l 82 1010 l 802 1010 l 802 843 l 549 843 l 549 167 l 802 167 l 802 0 l 82 0 z "},"Ì":{"ha":884,"x_min":82,"x_max":802,"o":"m 82 0 l 82 167 l 335 167 l 335 843 l 82 843 l 82 1010 l 802 1010 l 802 843 l 549 843 l 549 167 l 802 167 l 802 0 l 82 0 m 426 1136 l 153 1389 l 431 1389 l 576 1136 l 426 1136 z "},"Í":{"ha":884,"x_min":82,"x_max":802,"o":"m 82 0 l 82 167 l 335 167 l 335 843 l 82 843 l 82 1010 l 802 1010 l 802 843 l 549 843 l 549 167 l 802 167 l 802 0 l 82 0 m 280 1136 l 426 1389 l 703 1389 l 431 1136 l 280 1136 z "},"Î":{"ha":884,"x_min":82,"x_max":802,"o":"m 82 0 l 82 167 l 335 167 l 335 843 l 82 843 l 82 1010 l 802 1010 l 802 843 l 549 843 l 549 167 l 802 167 l 802 0 l 82 0 m 201 1124 l 131 1222 l 360 1419 l 521 1419 l 753 1222 l 684 1125 l 441 1261 l 201 1124 z "},"Ï":{"ha":884,"x_min":82,"x_max":802,"o":"m 82 0 l 82 167 l 335 167 l 335 843 l 82 843 l 82 1010 l 802 1010 l 802 843 l 549 843 l 549 167 l 802 167 l 802 0 l 82 0 m 283 1131 q 203 1151 234 1131 q 172 1220 172 1170 l 172 1236 q 203 1307 172 1287 q 283 1328 234 1328 q 364 1307 333 1328 q 395 1236 395 1287 l 395 1220 q 364 1151 395 1170 q 283 1131 332 1131 m 601 1131 q 520 1151 551 1131 q 489 1220 489 1170 l 489 1236 q 520 1307 489 1287 q 601 1328 551 1328 q 682 1307 652 1328 q 712 1236 712 1287 l 712 1220 q 681 1151 712 1170 q 601 1131 649 1131 z "},"Ĩ":{"ha":884,"x_min":82,"x_max":802,"o":"m 82 0 l 82 167 l 335 167 l 335 843 l 82 843 l 82 1010 l 802 1010 l 802 843 l 549 843 l 549 167 l 802 167 l 802 0 l 82 0 m 557 1149 q 469 1169 501 1149 q 415 1212 437 1189 q 377 1256 395 1236 q 335 1275 359 1275 q 297 1256 313 1275 q 282 1174 280 1236 l 282 1162 l 140 1162 l 140 1181 q 190 1351 140 1283 q 328 1419 240 1419 q 419 1400 386 1419 q 472 1356 451 1380 q 511 1312 494 1332 q 551 1292 529 1292 q 588 1311 572 1292 q 604 1394 605 1331 l 604 1405 l 745 1405 l 745 1386 q 695 1217 745 1285 q 557 1149 645 1149 z "},"Ī":{"ha":884,"x_min":82,"x_max":802,"o":"m 82 0 l 82 167 l 335 167 l 335 843 l 82 843 l 82 1010 l 802 1010 l 802 843 l 549 843 l 549 167 l 802 167 l 802 0 l 82 0 m 167 1179 l 167 1346 l 717 1346 l 717 1179 l 167 1179 z "},"Ĭ":{"ha":884,"x_min":82,"x_max":802,"o":"m 82 0 l 82 167 l 335 167 l 335 843 l 82 843 l 82 1010 l 802 1010 l 802 843 l 549 843 l 549 167 l 802 167 l 802 0 l 82 0 m 442 1128 q 202 1198 285 1128 q 117 1419 119 1268 l 297 1419 q 332 1297 298 1332 q 442 1263 366 1263 q 552 1297 518 1263 q 587 1419 586 1332 l 766 1419 q 682 1198 765 1268 q 442 1128 598 1128 z "},"Į":{"ha":884,"x_min":82,"x_max":802,"o":"m 82 0 l 82 167 l 335 167 l 335 843 l 82 843 l 82 1010 l 802 1010 l 802 843 l 549 843 l 549 167 l 802 167 l 802 0 l 82 0 m 556 -279 q 398 -239 457 -279 q 338 -121 338 -199 q 398 11 338 -44 q 528 86 458 66 l 562 29 q 508 -23 519 3 q 496 -73 496 -49 q 519 -122 496 -106 q 590 -139 542 -139 q 644 -136 612 -139 q 707 -126 676 -133 l 707 -264 q 629 -275 668 -271 q 556 -279 590 -279 z "},"İ":{"ha":884,"x_min":82,"x_max":802,"o":"m 82 0 l 82 167 l 335 167 l 335 843 l 82 843 l 82 1010 l 802 1010 l 802 843 l 549 843 l 549 167 l 802 167 l 802 0 l 82 0 m 442 1131 q 337 1151 378 1131 q 297 1220 297 1170 l 297 1236 q 337 1307 297 1287 q 442 1328 378 1328 q 547 1307 506 1328 q 587 1236 587 1287 l 587 1220 q 547 1151 587 1170 q 442 1131 506 1131 z "},"J":{"ha":884,"x_min":49,"x_max":784,"o":"m 424 -13 q 147 74 236 -13 q 49 351 58 160 l 264 365 q 306 196 273 237 q 423 154 340 154 q 534 194 499 154 q 569 337 569 235 l 569 843 l 290 843 l 290 1010 l 784 1010 l 784 328 q 696 77 784 167 q 424 -13 609 -13 z "},"Ĵ":{"ha":884,"x_min":49,"x_max":840,"o":"m 424 -13 q 147 74 236 -13 q 49 351 58 160 l 264 365 q 306 196 273 237 q 423 154 340 154 q 534 194 499 154 q 569 337 569 235 l 569 843 l 290 843 l 290 1010 l 784 1010 l 784 328 q 696 77 784 167 q 424 -13 609 -13 m 288 1124 l 218 1222 l 447 1419 l 609 1419 l 840 1222 l 771 1125 l 528 1261 l 288 1124 z "},"K":{"ha":884,"x_min":82,"x_max":855,"o":"m 297 441 l 297 0 l 82 0 l 82 1010 l 297 1010 l 297 607 l 345 607 l 630 1010 l 855 1010 l 509 544 l 851 0 l 628 0 l 348 441 l 297 441 z "},"Ķ":{"ha":884,"x_min":82,"x_max":855,"o":"m 297 441 l 297 0 l 82 0 l 82 1010 l 297 1010 l 297 607 l 345 607 l 630 1010 l 855 1010 l 509 544 l 851 0 l 628 0 l 348 441 l 297 441 m 266 -379 l 361 -126 l 639 -126 l 417 -379 l 266 -379 z "},"L":{"ha":884,"x_min":145,"x_max":802,"o":"m 145 0 l 145 1010 l 360 1010 l 360 167 l 802 167 l 802 0 l 145 0 z "},"Ĺ":{"ha":884,"x_min":145,"x_max":802,"o":"m 145 0 l 145 1010 l 360 1010 l 360 167 l 802 167 l 802 0 l 145 0 m 160 1136 l 306 1389 l 583 1389 l 311 1136 l 160 1136 z "},"Ļ":{"ha":884,"x_min":145,"x_max":802,"o":"m 145 0 l 145 1010 l 360 1010 l 360 167 l 802 167 l 802 0 l 145 0 m 292 -379 l 386 -126 l 664 -126 l 442 -379 l 292 -379 z "},"Ľ":{"ha":884,"x_min":145,"x_max":846,"o":"m 145 0 l 145 1010 l 360 1010 l 360 167 l 802 167 l 802 0 l 145 0 m 496 638 l 572 1010 l 846 1010 l 622 638 l 496 638 z "},"M":{"ha":884,"x_min":62,"x_max":822,"o":"m 369 297 l 231 693 l 251 0 l 62 0 l 62 1010 l 277 1010 l 446 501 l 614 1010 l 822 1010 l 822 0 l 634 0 l 652 688 l 516 297 l 369 297 z "},"N":{"ha":884,"x_min":82,"x_max":802,"o":"m 542 0 l 266 720 l 266 0 l 82 0 l 82 1010 l 326 1010 l 617 247 l 617 1010 l 802 1010 l 802 0 l 542 0 z "},"Ñ":{"ha":884,"x_min":82,"x_max":802,"o":"m 542 0 l 266 720 l 266 0 l 82 0 l 82 1010 l 326 1010 l 617 247 l 617 1010 l 802 1010 l 802 0 l 542 0 m 564 1149 q 477 1169 509 1149 q 423 1212 444 1189 q 384 1256 403 1236 q 342 1275 366 1275 q 304 1256 321 1275 q 289 1174 288 1236 l 289 1162 l 148 1162 l 148 1181 q 198 1351 148 1283 q 336 1419 247 1419 q 426 1400 394 1419 q 480 1356 458 1380 q 519 1312 501 1332 q 558 1292 537 1292 q 596 1311 580 1292 q 611 1394 612 1331 l 611 1405 l 753 1405 l 753 1386 q 703 1217 753 1285 q 564 1149 653 1149 z "},"Ń":{"ha":884,"x_min":82,"x_max":802,"o":"m 542 0 l 266 720 l 266 0 l 82 0 l 82 1010 l 326 1010 l 617 247 l 617 1010 l 802 1010 l 802 0 l 542 0 m 314 1136 l 460 1389 l 737 1389 l 465 1136 l 314 1136 z "},"Ņ":{"ha":884,"x_min":82,"x_max":802,"o":"m 239 -379 l 333 -126 l 611 -126 l 389 -379 l 239 -379 m 542 0 l 266 720 l 266 0 l 82 0 l 82 1010 l 326 1010 l 617 247 l 617 1010 l 802 1010 l 802 0 l 542 0 z "},"Ň":{"ha":884,"x_min":82,"x_max":802,"o":"m 542 0 l 266 720 l 266 0 l 82 0 l 82 1010 l 326 1010 l 617 247 l 617 1010 l 802 1010 l 802 0 l 542 0 m 370 1141 l 139 1338 l 207 1436 l 451 1299 l 691 1437 l 760 1338 l 532 1141 l 370 1141 z "},"O":{"ha":884,"x_min":74,"x_max":809,"o":"m 442 -13 q 168 75 261 -13 q 74 323 74 163 l 74 682 q 169 933 74 843 q 443 1023 263 1023 q 717 933 624 1023 q 809 682 809 843 l 809 323 q 716 75 809 163 q 442 -13 622 -13 m 442 154 q 559 196 524 154 q 595 341 595 239 l 595 664 q 559 811 595 766 q 442 856 524 856 q 324 811 360 856 q 289 664 289 766 l 289 341 q 324 196 289 239 q 442 154 360 154 z "},"Ò":{"ha":884,"x_min":74,"x_max":809,"o":"m 442 -13 q 168 75 261 -13 q 74 323 74 163 l 74 682 q 169 933 74 843 q 443 1023 263 1023 q 717 933 624 1023 q 809 682 809 843 l 809 323 q 716 75 809 163 q 442 -13 622 -13 m 442 154 q 559 196 524 154 q 595 341 595 239 l 595 664 q 559 811 595 766 q 442 856 524 856 q 324 811 360 856 q 289 664 289 766 l 289 341 q 324 196 289 239 q 442 154 360 154 m 426 1136 l 153 1389 l 431 1389 l 576 1136 l 426 1136 z "},"Ó":{"ha":884,"x_min":74,"x_max":809,"o":"m 442 -13 q 168 75 261 -13 q 74 323 74 163 l 74 682 q 169 933 74 843 q 443 1023 263 1023 q 717 933 624 1023 q 809 682 809 843 l 809 323 q 716 75 809 163 q 442 -13 622 -13 m 442 154 q 559 196 524 154 q 595 341 595 239 l 595 664 q 559 811 595 766 q 442 856 524 856 q 324 811 360 856 q 289 664 289 766 l 289 341 q 324 196 289 239 q 442 154 360 154 m 322 1136 l 467 1389 l 745 1389 l 472 1136 l 322 1136 z "},"Ô":{"ha":884,"x_min":74,"x_max":809,"o":"m 442 -13 q 168 75 261 -13 q 74 323 74 163 l 74 682 q 169 933 74 843 q 443 1023 263 1023 q 717 933 624 1023 q 809 682 809 843 l 809 323 q 716 75 809 163 q 442 -13 622 -13 m 442 154 q 559 196 524 154 q 595 341 595 239 l 595 664 q 559 811 595 766 q 442 856 524 856 q 324 811 360 856 q 289 664 289 766 l 289 341 q 324 196 289 239 q 442 154 360 154 m 201 1124 l 131 1222 l 360 1419 l 521 1419 l 753 1222 l 684 1125 l 441 1261 l 201 1124 z "},"Õ":{"ha":884,"x_min":74,"x_max":809,"o":"m 442 -13 q 168 75 261 -13 q 74 323 74 163 l 74 682 q 169 933 74 843 q 443 1023 263 1023 q 717 933 624 1023 q 809 682 809 843 l 809 323 q 716 75 809 163 q 442 -13 622 -13 m 442 154 q 559 196 524 154 q 595 341 595 239 l 595 664 q 559 811 595 766 q 442 856 524 856 q 324 811 360 856 q 289 664 289 766 l 289 341 q 324 196 289 239 q 442 154 360 154 m 557 1149 q 469 1169 501 1149 q 415 1212 437 1189 q 377 1256 395 1236 q 335 1275 359 1275 q 297 1256 313 1275 q 282 1174 280 1236 l 282 1162 l 140 1162 l 140 1181 q 190 1351 140 1283 q 328 1419 240 1419 q 419 1400 386 1419 q 472 1356 451 1380 q 511 1312 494 1332 q 551 1292 529 1292 q 588 1311 572 1292 q 604 1394 605 1331 l 604 1405 l 745 1405 l 745 1386 q 695 1217 745 1285 q 557 1149 645 1149 z "},"Ö":{"ha":884,"x_min":74,"x_max":809,"o":"m 442 -13 q 168 75 261 -13 q 74 323 74 163 l 74 682 q 169 933 74 843 q 443 1023 263 1023 q 717 933 624 1023 q 809 682 809 843 l 809 323 q 716 75 809 163 q 442 -13 622 -13 m 442 154 q 559 196 524 154 q 595 341 595 239 l 595 664 q 559 811 595 766 q 442 856 524 856 q 324 811 360 856 q 289 664 289 766 l 289 341 q 324 196 289 239 q 442 154 360 154 m 283 1131 q 203 1151 234 1131 q 172 1220 172 1170 l 172 1236 q 203 1307 172 1287 q 283 1328 234 1328 q 364 1307 333 1328 q 395 1236 395 1287 l 395 1220 q 364 1151 395 1170 q 283 1131 332 1131 m 601 1131 q 520 1151 551 1131 q 489 1220 489 1170 l 489 1236 q 520 1307 489 1287 q 601 1328 551 1328 q 682 1307 652 1328 q 712 1236 712 1287 l 712 1220 q 681 1151 712 1170 q 601 1131 649 1131 z "},"Ō":{"ha":884,"x_min":74,"x_max":809,"o":"m 442 -13 q 168 75 261 -13 q 74 323 74 163 l 74 682 q 169 933 74 843 q 443 1023 263 1023 q 717 933 624 1023 q 809 682 809 843 l 809 323 q 716 75 809 163 q 442 -13 622 -13 m 442 154 q 559 196 524 154 q 595 341 595 239 l 595 664 q 559 811 595 766 q 442 856 524 856 q 324 811 360 856 q 289 664 289 766 l 289 341 q 324 196 289 239 q 442 154 360 154 m 167 1179 l 167 1346 l 717 1346 l 717 1179 l 167 1179 z "},"Ŏ":{"ha":884,"x_min":74,"x_max":809,"o":"m 442 -13 q 168 75 261 -13 q 74 323 74 163 l 74 682 q 169 933 74 843 q 443 1023 263 1023 q 717 933 624 1023 q 809 682 809 843 l 809 323 q 716 75 809 163 q 442 -13 622 -13 m 442 154 q 559 196 524 154 q 595 341 595 239 l 595 664 q 559 811 595 766 q 442 856 524 856 q 324 811 360 856 q 289 664 289 766 l 289 341 q 324 196 289 239 q 442 154 360 154 m 442 1128 q 202 1198 285 1128 q 117 1419 119 1268 l 297 1419 q 332 1297 298 1332 q 442 1263 366 1263 q 552 1297 518 1263 q 587 1419 586 1332 l 766 1419 q 682 1198 765 1268 q 442 1128 598 1128 z "},"Ő":{"ha":884,"x_min":74,"x_max":809,"o":"m 442 -13 q 168 75 261 -13 q 74 323 74 163 l 74 682 q 169 933 74 843 q 443 1023 263 1023 q 717 933 624 1023 q 809 682 809 843 l 809 323 q 716 75 809 163 q 442 -13 622 -13 m 442 154 q 559 196 524 154 q 595 341 595 239 l 595 664 q 559 811 595 766 q 442 856 524 856 q 324 811 360 856 q 289 664 289 766 l 289 341 q 324 196 289 239 q 442 154 360 154 m 513 1136 l 574 1389 l 795 1389 l 629 1136 l 513 1136 m 222 1136 l 284 1389 l 505 1389 l 338 1136 l 222 1136 z "},"P":{"ha":884,"x_min":82,"x_max":813,"o":"m 82 0 l 82 1010 l 465 1010 q 722 941 630 1010 q 813 727 813 872 l 813 592 q 722 386 813 452 q 465 319 631 319 l 297 319 l 297 0 l 82 0 m 297 484 l 453 484 q 563 510 528 484 q 598 609 598 537 l 598 715 q 563 816 598 789 q 453 843 528 843 l 297 843 l 297 484 z "},"Q":{"ha":884,"x_min":74,"x_max":809,"o":"m 785 -259 q 460 -227 563 -294 q 357 21 356 -160 q 146 123 218 38 q 74 350 74 208 l 74 682 q 169 933 74 843 q 443 1023 263 1023 q 717 933 624 1023 q 809 682 809 843 l 809 350 q 738 126 809 211 q 529 20 667 40 q 586 -81 533 -57 q 763 -83 640 -106 l 785 -259 m 442 176 q 559 222 524 176 q 595 367 595 268 l 595 664 q 559 809 595 765 q 442 852 524 852 q 324 809 360 852 q 289 664 289 765 l 289 367 q 324 222 289 268 q 442 176 360 176 z "},"R":{"ha":884,"x_min":82,"x_max":841,"o":"m 297 530 l 461 530 q 574 557 542 530 q 606 653 606 585 l 606 725 q 574 816 606 789 q 461 843 542 843 l 297 843 l 297 530 m 297 0 l 82 0 l 82 1010 l 489 1010 q 733 940 654 1010 q 812 735 812 870 l 812 648 q 763 472 812 538 q 616 381 715 405 l 841 0 l 614 0 l 399 365 l 297 365 l 297 0 z "},"Ŕ":{"ha":884,"x_min":82,"x_max":841,"o":"m 297 530 l 461 530 q 574 557 542 530 q 606 653 606 585 l 606 725 q 574 816 606 789 q 461 843 542 843 l 297 843 l 297 530 m 297 0 l 82 0 l 82 1010 l 489 1010 q 733 940 654 1010 q 812 735 812 870 l 812 648 q 763 472 812 538 q 616 381 715 405 l 841 0 l 614 0 l 399 365 l 297 365 l 297 0 m 331 1136 l 476 1389 l 754 1389 l 481 1136 l 331 1136 z "},"Ŗ":{"ha":884,"x_min":82,"x_max":841,"o":"m 297 530 l 461 530 q 574 557 542 530 q 606 653 606 585 l 606 725 q 574 816 606 789 q 461 843 542 843 l 297 843 l 297 530 m 297 0 l 82 0 l 82 1010 l 489 1010 q 733 940 654 1010 q 812 735 812 870 l 812 648 q 763 472 812 538 q 616 381 715 405 l 841 0 l 614 0 l 399 365 l 297 365 l 297 0 m 218 -379 l 313 -126 l 591 -126 l 369 -379 l 218 -379 z "},"Ř":{"ha":884,"x_min":82,"x_max":841,"o":"m 297 530 l 461 530 q 574 557 542 530 q 606 653 606 585 l 606 725 q 574 816 606 789 q 461 843 542 843 l 297 843 l 297 530 m 297 0 l 82 0 l 82 1010 l 489 1010 q 733 940 654 1010 q 812 735 812 870 l 812 648 q 763 472 812 538 q 616 381 715 405 l 841 0 l 614 0 l 399 365 l 297 365 l 297 0 m 351 1141 l 120 1338 l 188 1436 l 432 1299 l 672 1437 l 741 1338 l 513 1141 l 351 1141 z "},"S":{"ha":884,"x_min":57,"x_max":818,"o":"m 439 -11 q 225 21 319 -11 q 57 111 131 53 l 124 269 q 268 186 192 216 q 443 155 345 155 q 563 188 523 155 q 604 275 604 221 q 559 365 604 338 q 400 420 515 391 q 155 529 223 463 q 86 720 86 595 q 176 936 86 852 q 434 1020 265 1020 q 624 987 530 1020 q 778 903 717 953 l 720 751 q 582 826 652 799 q 437 852 513 852 q 335 825 370 852 q 299 744 299 798 q 340 660 299 691 q 509 598 381 630 q 750 491 682 558 q 818 293 818 423 q 713 68 818 146 q 439 -11 609 -11 z "},"":{"ha":884,"x_min":57,"x_max":818,"o":"m 439 -11 q 225 21 319 -11 q 57 111 131 53 l 124 269 q 268 186 192 216 q 443 155 345 155 q 563 188 523 155 q 604 275 604 221 q 559 365 604 338 q 400 420 515 391 q 155 529 223 463 q 86 720 86 595 q 176 936 86 852 q 434 1020 265 1020 q 624 987 530 1020 q 778 903 717 953 l 720 751 q 582 826 652 799 q 437 852 513 852 q 335 825 370 852 q 299 744 299 798 q 340 660 299 691 q 509 598 381 630 q 750 491 682 558 q 818 293 818 423 q 713 68 818 146 q 439 -11 609 -11 z "},"Ś":{"ha":884,"x_min":57,"x_max":818,"o":"m 439 -11 q 225 21 319 -11 q 57 111 131 53 l 124 269 q 268 186 192 216 q 443 155 345 155 q 563 188 523 155 q 604 275 604 221 q 559 365 604 338 q 400 420 515 391 q 155 529 223 463 q 86 720 86 595 q 176 936 86 852 q 434 1020 265 1020 q 624 987 530 1020 q 778 903 717 953 l 720 751 q 582 826 652 799 q 437 852 513 852 q 335 825 370 852 q 299 744 299 798 q 340 660 299 691 q 509 598 381 630 q 750 491 682 558 q 818 293 818 423 q 713 68 818 146 q 439 -11 609 -11 m 279 1136 l 424 1389 l 702 1389 l 429 1136 l 279 1136 z "},"Ŝ":{"ha":884,"x_min":57,"x_max":818,"o":"m 439 -11 q 225 21 319 -11 q 57 111 131 53 l 124 269 q 268 186 192 216 q 443 155 345 155 q 563 188 523 155 q 604 275 604 221 q 559 365 604 338 q 400 420 515 391 q 155 529 223 463 q 86 720 86 595 q 176 936 86 852 q 434 1020 265 1020 q 624 987 530 1020 q 778 903 717 953 l 720 751 q 582 826 652 799 q 437 852 513 852 q 335 825 370 852 q 299 744 299 798 q 340 660 299 691 q 509 598 381 630 q 750 491 682 558 q 818 293 818 423 q 713 68 818 146 q 439 -11 609 -11 m 199 1124 l 130 1222 l 359 1419 l 520 1419 l 751 1222 l 683 1125 l 439 1261 l 199 1124 z "},"Ş":{"ha":884,"x_min":57,"x_max":818,"o":"m 439 -11 q 225 21 319 -11 q 57 111 131 53 l 124 269 q 268 186 192 216 q 443 155 345 155 q 563 188 523 155 q 604 275 604 221 q 559 365 604 338 q 400 420 515 391 q 155 529 223 463 q 86 720 86 595 q 176 936 86 852 q 434 1020 265 1020 q 624 987 530 1020 q 778 903 717 953 l 720 751 q 582 826 652 799 q 437 852 513 852 q 335 825 370 852 q 299 744 299 798 q 340 660 299 691 q 509 598 381 630 q 750 491 682 558 q 818 293 818 423 q 713 68 818 146 q 439 -11 609 -11 m 403 0 l 428 53 q 583 8 520 43 q 646 -112 646 -28 q 571 -242 646 -203 q 400 -282 495 -282 q 221 -245 290 -282 q 145 -121 152 -208 l 327 -109 q 344 -142 330 -133 q 391 -152 359 -152 q 444 -138 427 -152 q 462 -81 462 -124 q 449 -27 462 -45 q 403 0 437 -9 z "},"Š":{"ha":884,"x_min":57,"x_max":818,"o":"m 439 -11 q 225 21 319 -11 q 57 111 131 53 l 124 269 q 268 186 192 216 q 443 155 345 155 q 563 188 523 155 q 604 275 604 221 q 559 365 604 338 q 400 420 515 391 q 155 529 223 463 q 86 720 86 595 q 176 936 86 852 q 434 1020 265 1020 q 624 987 530 1020 q 778 903 717 953 l 720 751 q 582 826 652 799 q 437 852 513 852 q 335 825 370 852 q 299 744 299 798 q 340 660 299 691 q 509 598 381 630 q 750 491 682 558 q 818 293 818 423 q 713 68 818 146 q 439 -11 609 -11 m 361 1141 l 130 1338 l 198 1436 l 442 1299 l 682 1437 l 751 1338 l 523 1141 l 361 1141 z "},"Ș":{"ha":884,"x_min":57,"x_max":818,"o":"m 439 -11 q 225 21 319 -11 q 57 111 131 53 l 124 269 q 268 186 192 216 q 443 155 345 155 q 563 188 523 155 q 604 275 604 221 q 559 365 604 338 q 400 420 515 391 q 155 529 223 463 q 86 720 86 595 q 176 936 86 852 q 434 1020 265 1020 q 624 987 530 1020 q 778 903 717 953 l 720 751 q 582 826 652 799 q 437 852 513 852 q 335 825 370 852 q 299 744 299 798 q 340 660 299 691 q 509 598 381 630 q 750 491 682 558 q 818 293 818 423 q 713 68 818 146 q 439 -11 609 -11 m 221 -379 l 316 -126 l 593 -126 l 371 -379 l 221 -379 z "},"T":{"ha":884,"x_min":45,"x_max":838,"o":"m 335 0 l 335 843 l 45 843 l 45 1010 l 838 1010 l 838 843 l 549 843 l 549 0 l 335 0 z "},"Ţ":{"ha":884,"x_min":45,"x_max":838,"o":"m 335 0 l 335 843 l 45 843 l 45 1010 l 838 1010 l 838 843 l 549 843 l 549 0 l 335 0 m 390 0 l 415 53 q 571 8 508 43 q 634 -112 634 -28 q 558 -242 634 -203 q 388 -282 482 -282 q 208 -245 278 -282 q 133 -121 139 -208 l 314 -109 q 331 -142 317 -133 q 379 -152 346 -152 q 432 -138 414 -152 q 449 -81 449 -124 q 437 -27 449 -45 q 390 0 424 -9 z "},"Ť":{"ha":884,"x_min":45,"x_max":838,"o":"m 335 0 l 335 843 l 45 843 l 45 1010 l 838 1010 l 838 843 l 549 843 l 549 0 l 335 0 m 362 1141 l 131 1338 l 199 1436 l 443 1299 l 683 1437 l 753 1338 l 524 1141 l 362 1141 z "},"Ț":{"ha":884,"x_min":45,"x_max":838,"o":"m 335 0 l 335 843 l 45 843 l 45 1010 l 838 1010 l 838 843 l 549 843 l 549 0 l 335 0 m 230 -379 l 324 -126 l 602 -126 l 380 -379 l 230 -379 z "},"U":{"ha":884,"x_min":82,"x_max":802,"o":"m 442 -13 q 170 76 258 -13 q 82 350 82 165 l 82 1010 l 297 1010 l 297 359 q 330 205 297 247 q 442 163 364 163 q 554 205 520 163 q 587 359 587 247 l 587 1010 l 802 1010 l 802 350 q 714 76 802 165 q 442 -13 626 -13 z "},"Ù":{"ha":884,"x_min":82,"x_max":802,"o":"m 442 -13 q 170 76 258 -13 q 82 350 82 165 l 82 1010 l 297 1010 l 297 359 q 330 205 297 247 q 442 163 364 163 q 554 205 520 163 q 587 359 587 247 l 587 1010 l 802 1010 l 802 350 q 714 76 802 165 q 442 -13 626 -13 m 426 1136 l 153 1389 l 431 1389 l 576 1136 l 426 1136 z "},"Ú":{"ha":884,"x_min":82,"x_max":802,"o":"m 442 -13 q 170 76 258 -13 q 82 350 82 165 l 82 1010 l 297 1010 l 297 359 q 330 205 297 247 q 442 163 364 163 q 554 205 520 163 q 587 359 587 247 l 587 1010 l 802 1010 l 802 350 q 714 76 802 165 q 442 -13 626 -13 m 280 1136 l 426 1389 l 703 1389 l 431 1136 l 280 1136 z "},"Û":{"ha":884,"x_min":82,"x_max":802,"o":"m 442 -13 q 170 76 258 -13 q 82 350 82 165 l 82 1010 l 297 1010 l 297 359 q 330 205 297 247 q 442 163 364 163 q 554 205 520 163 q 587 359 587 247 l 587 1010 l 802 1010 l 802 350 q 714 76 802 165 q 442 -13 626 -13 m 201 1124 l 131 1222 l 360 1419 l 521 1419 l 753 1222 l 684 1125 l 441 1261 l 201 1124 z "},"Ü":{"ha":884,"x_min":82,"x_max":802,"o":"m 442 -13 q 170 76 258 -13 q 82 350 82 165 l 82 1010 l 297 1010 l 297 359 q 330 205 297 247 q 442 163 364 163 q 554 205 520 163 q 587 359 587 247 l 587 1010 l 802 1010 l 802 350 q 714 76 802 165 q 442 -13 626 -13 m 283 1131 q 203 1151 234 1131 q 172 1220 172 1170 l 172 1236 q 203 1307 172 1287 q 283 1328 234 1328 q 364 1307 333 1328 q 395 1236 395 1287 l 395 1220 q 364 1151 395 1170 q 283 1131 332 1131 m 601 1131 q 520 1151 551 1131 q 489 1220 489 1170 l 489 1236 q 520 1307 489 1287 q 601 1328 551 1328 q 682 1307 652 1328 q 712 1236 712 1287 l 712 1220 q 681 1151 712 1170 q 601 1131 649 1131 z "},"Ũ":{"ha":884,"x_min":82,"x_max":802,"o":"m 442 -13 q 170 76 258 -13 q 82 350 82 165 l 82 1010 l 297 1010 l 297 359 q 330 205 297 247 q 442 163 364 163 q 554 205 520 163 q 587 359 587 247 l 587 1010 l 802 1010 l 802 350 q 714 76 802 165 q 442 -13 626 -13 m 557 1149 q 469 1169 501 1149 q 415 1212 437 1189 q 377 1256 395 1236 q 335 1275 359 1275 q 297 1256 313 1275 q 282 1174 280 1236 l 282 1162 l 140 1162 l 140 1181 q 190 1351 140 1283 q 328 1419 240 1419 q 419 1400 386 1419 q 472 1356 451 1380 q 511 1312 494 1332 q 551 1292 529 1292 q 588 1311 572 1292 q 604 1394 605 1331 l 604 1405 l 745 1405 l 745 1386 q 695 1217 745 1285 q 557 1149 645 1149 z "},"Ū":{"ha":884,"x_min":82,"x_max":802,"o":"m 442 -13 q 170 76 258 -13 q 82 350 82 165 l 82 1010 l 297 1010 l 297 359 q 330 205 297 247 q 442 163 364 163 q 554 205 520 163 q 587 359 587 247 l 587 1010 l 802 1010 l 802 350 q 714 76 802 165 q 442 -13 626 -13 m 167 1179 l 167 1346 l 717 1346 l 717 1179 l 167 1179 z "},"Ŭ":{"ha":884,"x_min":82,"x_max":802,"o":"m 442 -13 q 170 76 258 -13 q 82 350 82 165 l 82 1010 l 297 1010 l 297 359 q 330 205 297 247 q 442 163 364 163 q 554 205 520 163 q 587 359 587 247 l 587 1010 l 802 1010 l 802 350 q 714 76 802 165 q 442 -13 626 -13 m 442 1128 q 202 1198 285 1128 q 117 1419 119 1268 l 297 1419 q 332 1297 298 1332 q 442 1263 366 1263 q 552 1297 518 1263 q 587 1419 586 1332 l 766 1419 q 682 1198 765 1268 q 442 1128 598 1128 z "},"Ů":{"ha":884,"x_min":82,"x_max":802,"o":"m 442 -13 q 170 76 258 -13 q 82 350 82 165 l 82 1010 l 297 1010 l 297 359 q 330 205 297 247 q 442 163 364 163 q 554 205 520 163 q 587 359 587 247 l 587 1010 l 802 1010 l 802 350 q 714 76 802 165 q 442 -13 626 -13 m 442 1109 q 264 1155 332 1109 q 196 1301 196 1202 l 196 1341 q 264 1488 196 1439 q 442 1537 332 1537 q 621 1488 553 1537 q 688 1341 688 1439 l 688 1301 q 620 1155 688 1202 q 442 1109 552 1109 m 442 1216 q 513 1235 489 1216 q 537 1301 537 1254 l 537 1341 q 513 1408 537 1386 q 442 1429 489 1429 q 371 1408 395 1429 q 347 1341 347 1386 l 347 1301 q 371 1235 347 1254 q 442 1216 395 1216 z "},"Ű":{"ha":884,"x_min":82,"x_max":808,"o":"m 442 -13 q 170 76 258 -13 q 82 350 82 165 l 82 1010 l 297 1010 l 297 359 q 330 205 297 247 q 442 163 364 163 q 554 205 520 163 q 587 359 587 247 l 587 1010 l 802 1010 l 802 350 q 714 76 802 165 q 442 -13 626 -13 m 525 1136 l 587 1389 l 808 1389 l 641 1136 l 525 1136 m 235 1136 l 297 1389 l 518 1389 l 351 1136 l 235 1136 z "},"Ų":{"ha":884,"x_min":82,"x_max":802,"o":"m 534 -279 q 376 -239 436 -279 q 317 -121 317 -199 q 377 11 317 -44 q 506 86 437 66 l 540 29 q 486 -23 497 3 q 475 -73 475 -49 q 497 -122 475 -106 q 568 -139 520 -139 q 622 -136 591 -139 q 686 -126 654 -133 l 686 -264 q 607 -275 646 -271 q 534 -279 568 -279 m 442 -13 q 170 76 258 -13 q 82 350 82 165 l 82 1010 l 297 1010 l 297 359 q 330 205 297 247 q 442 163 364 163 q 554 205 520 163 q 587 359 587 247 l 587 1010 l 802 1010 l 802 350 q 714 76 802 165 q 442 -13 626 -13 z "},"V":{"ha":884,"x_min":24,"x_max":861,"o":"m 580 0 l 306 0 l 24 1010 l 240 1010 l 442 173 l 654 1010 l 861 1010 l 580 0 z "},"W":{"ha":884,"x_min":18,"x_max":867,"o":"m 547 0 l 444 492 l 341 0 l 149 0 l 18 1010 l 205 1010 l 264 245 l 362 758 l 521 758 l 622 259 l 682 1010 l 867 1010 l 735 0 l 547 0 z "},"Ŵ":{"ha":884,"x_min":18,"x_max":867,"o":"m 547 0 l 444 492 l 341 0 l 149 0 l 18 1010 l 205 1010 l 264 245 l 362 758 l 521 758 l 622 259 l 682 1010 l 867 1010 l 735 0 l 547 0 m 201 1124 l 131 1222 l 360 1419 l 521 1419 l 753 1222 l 684 1125 l 441 1261 l 201 1124 z "},"Ẁ":{"ha":884,"x_min":18,"x_max":867,"o":"m 547 0 l 444 492 l 341 0 l 149 0 l 18 1010 l 205 1010 l 264 245 l 362 758 l 521 758 l 622 259 l 682 1010 l 867 1010 l 735 0 l 547 0 m 429 1136 l 157 1389 l 434 1389 l 580 1136 l 429 1136 z "},"Ẃ":{"ha":884,"x_min":18,"x_max":867,"o":"m 547 0 l 444 492 l 341 0 l 149 0 l 18 1010 l 205 1010 l 264 245 l 362 758 l 521 758 l 622 259 l 682 1010 l 867 1010 l 735 0 l 547 0 m 284 1136 l 429 1389 l 707 1389 l 434 1136 l 284 1136 z "},"Ẅ":{"ha":884,"x_min":18,"x_max":867,"o":"m 547 0 l 444 492 l 341 0 l 149 0 l 18 1010 l 205 1010 l 264 245 l 362 758 l 521 758 l 622 259 l 682 1010 l 867 1010 l 735 0 l 547 0 m 292 1131 q 211 1151 242 1131 q 181 1220 181 1170 l 181 1236 q 211 1307 181 1287 q 292 1328 242 1328 q 373 1307 342 1328 q 404 1236 404 1287 l 404 1220 q 372 1151 404 1170 q 292 1131 341 1131 m 610 1131 q 528 1151 559 1131 q 497 1220 497 1170 l 497 1236 q 528 1307 497 1287 q 610 1328 559 1328 q 691 1307 660 1328 q 721 1236 721 1287 l 721 1220 q 689 1151 721 1170 q 610 1131 658 1131 z "},"X":{"ha":884,"x_min":29,"x_max":856,"o":"m 638 0 l 438 345 l 242 0 l 29 0 l 341 519 l 61 1010 l 284 1010 l 463 697 l 643 1010 l 856 1010 l 559 520 l 852 0 l 638 0 z "},"Y":{"ha":884,"x_min":18,"x_max":865,"o":"m 549 0 l 335 0 l 335 379 l 18 1010 l 236 1010 l 443 558 l 648 1010 l 865 1010 l 549 379 l 549 0 z "},"Ý":{"ha":884,"x_min":18,"x_max":865,"o":"m 549 0 l 335 0 l 335 379 l 18 1010 l 236 1010 l 443 558 l 648 1010 l 865 1010 l 549 379 l 549 0 m 280 1136 l 426 1389 l 703 1389 l 431 1136 l 280 1136 z "},"Ŷ":{"ha":884,"x_min":18,"x_max":865,"o":"m 549 0 l 335 0 l 335 379 l 18 1010 l 236 1010 l 443 558 l 648 1010 l 865 1010 l 549 379 l 549 0 m 201 1124 l 131 1222 l 360 1419 l 521 1419 l 753 1222 l 684 1125 l 441 1261 l 201 1124 z "},"Ÿ":{"ha":884,"x_min":18,"x_max":865,"o":"m 549 0 l 335 0 l 335 379 l 18 1010 l 236 1010 l 443 558 l 648 1010 l 865 1010 l 549 379 l 549 0 m 283 1131 q 203 1151 234 1131 q 172 1220 172 1170 l 172 1236 q 203 1307 172 1287 q 283 1328 234 1328 q 364 1307 333 1328 q 395 1236 395 1287 l 395 1220 q 364 1151 395 1170 q 283 1131 332 1131 m 601 1131 q 520 1151 551 1131 q 489 1220 489 1170 l 489 1236 q 520 1307 489 1287 q 601 1328 551 1328 q 682 1307 652 1328 q 712 1236 712 1287 l 712 1220 q 681 1151 712 1170 q 601 1131 649 1131 z "},"Ỳ":{"ha":884,"x_min":18,"x_max":865,"o":"m 549 0 l 335 0 l 335 379 l 18 1010 l 236 1010 l 443 558 l 648 1010 l 865 1010 l 549 379 l 549 0 m 426 1136 l 153 1389 l 431 1389 l 576 1136 l 426 1136 z "},"Z":{"ha":884,"x_min":74,"x_max":809,"o":"m 809 0 l 74 0 l 74 167 l 581 843 l 74 843 l 74 1010 l 809 1010 l 809 843 l 306 167 l 809 167 l 809 0 z "},"Ź":{"ha":884,"x_min":74,"x_max":809,"o":"m 809 0 l 74 0 l 74 167 l 581 843 l 74 843 l 74 1010 l 809 1010 l 809 843 l 306 167 l 809 167 l 809 0 m 318 1136 l 463 1389 l 741 1389 l 468 1136 l 318 1136 z "},"Ż":{"ha":884,"x_min":74,"x_max":809,"o":"m 809 0 l 74 0 l 74 167 l 581 843 l 74 843 l 74 1010 l 809 1010 l 809 843 l 306 167 l 809 167 l 809 0 m 442 1131 q 337 1151 378 1131 q 297 1220 297 1170 l 297 1236 q 337 1307 297 1287 q 442 1328 378 1328 q 547 1307 506 1328 q 587 1236 587 1287 l 587 1220 q 547 1151 587 1170 q 442 1131 506 1131 z "},"Ž":{"ha":884,"x_min":74,"x_max":809,"o":"m 809 0 l 74 0 l 74 167 l 581 843 l 74 843 l 74 1010 l 809 1010 l 809 843 l 306 167 l 809 167 l 809 0 m 362 1141 l 131 1338 l 199 1436 l 443 1299 l 683 1437 l 753 1338 l 524 1141 l 362 1141 z "},"Æ":{"ha":884,"x_min":9,"x_max":862,"o":"m 385 856 l 268 400 l 428 400 l 428 856 l 385 856 m 428 246 l 229 246 l 165 0 l 9 0 l 280 1010 l 862 1010 l 862 856 l 612 856 l 612 620 l 841 620 l 841 466 l 612 466 l 612 154 l 862 154 l 862 0 l 428 0 l 428 246 z "},"Ǽ":{"ha":884,"x_min":9,"x_max":862,"o":"m 385 856 l 268 400 l 428 400 l 428 856 l 385 856 m 428 246 l 229 246 l 165 0 l 9 0 l 280 1010 l 862 1010 l 862 856 l 612 856 l 612 620 l 841 620 l 841 466 l 612 466 l 612 154 l 862 154 l 862 0 l 428 0 l 428 246 m 436 1136 l 581 1389 l 859 1389 l 586 1136 l 436 1136 z "},"Ð":{"ha":884,"x_min":0,"x_max":809,"o":"m 82 0 l 82 486 l 0 486 l 0 626 l 82 626 l 82 1010 l 432 1010 q 709 910 609 1010 q 809 643 809 809 l 809 362 q 709 98 809 197 q 431 0 609 0 l 82 0 m 297 167 l 413 167 q 553 217 511 167 q 595 380 595 268 l 595 625 q 553 791 595 739 q 413 843 511 843 l 297 843 l 297 626 l 442 626 l 442 486 l 297 486 l 297 167 z "},"Ø":{"ha":884,"x_min":74,"x_max":809,"o":"m 280 280 l 508 850 q 477 854 492 852 q 442 856 461 856 q 309 808 347 856 q 271 646 271 760 l 271 359 q 273 316 271 335 q 280 280 275 297 m 442 154 q 575 200 538 154 q 612 359 612 246 l 612 646 q 609 697 612 674 q 598 736 606 720 l 370 163 q 403 156 385 158 q 442 154 422 154 m 442 -13 q 377 -9 408 -13 q 318 1 346 -5 l 266 -126 l 105 -126 l 182 67 q 102 182 129 112 q 74 341 74 251 l 74 664 q 169 929 74 835 q 443 1023 263 1023 q 504 1020 475 1023 q 559 1011 533 1016 l 610 1136 l 771 1136 l 696 948 q 781 831 753 903 q 809 664 809 759 l 809 341 q 716 80 809 172 q 442 -13 622 -13 z "},"Ǿ":{"ha":884,"x_min":74,"x_max":809,"o":"m 280 280 l 508 850 q 477 854 492 852 q 442 856 461 856 q 309 808 347 856 q 271 646 271 760 l 271 359 q 273 316 271 335 q 280 280 275 297 m 442 154 q 575 200 538 154 q 612 359 612 246 l 612 646 q 609 697 612 674 q 598 736 606 720 l 370 163 q 403 156 385 158 q 442 154 422 154 m 442 -13 q 377 -9 408 -13 q 318 1 346 -5 l 266 -126 l 105 -126 l 182 67 q 102 182 129 112 q 74 341 74 251 l 74 664 q 169 929 74 835 q 443 1023 263 1023 q 504 1020 475 1023 q 559 1011 533 1016 l 610 1136 l 771 1136 l 696 948 q 781 831 753 903 q 809 664 809 759 l 809 341 q 716 80 809 172 q 442 -13 622 -13 m 322 1136 l 467 1389 l 745 1389 l 472 1136 l 322 1136 z "},"Þ":{"ha":884,"x_min":82,"x_max":813,"o":"m 82 0 l 82 1010 l 297 1010 l 297 855 l 465 855 q 723 782 634 855 q 813 571 813 710 l 813 438 q 723 235 813 306 q 465 164 634 164 l 297 164 l 297 0 l 82 0 m 297 328 l 444 328 q 563 355 527 328 q 598 444 598 383 l 598 571 q 563 661 598 634 q 444 688 527 688 l 297 688 l 297 328 z "},"Đ":{"ha":884,"x_min":0,"x_max":809,"o":"m 82 0 l 82 486 l 0 486 l 0 626 l 82 626 l 82 1010 l 432 1010 q 709 910 609 1010 q 809 643 809 809 l 809 362 q 709 98 809 197 q 431 0 609 0 l 82 0 m 297 167 l 413 167 q 553 217 511 167 q 595 380 595 268 l 595 625 q 553 791 595 739 q 413 843 511 843 l 297 843 l 297 626 l 442 626 l 442 486 l 297 486 l 297 167 z "},"Ħ":{"ha":884,"x_min":0,"x_max":884,"o":"m 306 534 l 578 534 l 578 698 l 306 698 l 306 534 m 306 367 l 306 0 l 91 0 l 91 698 l 0 698 l 0 838 l 91 838 l 91 1010 l 306 1010 l 306 838 l 578 838 l 578 1010 l 793 1010 l 793 838 l 884 838 l 884 698 l 793 698 l 793 0 l 578 0 l 578 367 l 306 367 z "},"Ĳ":{"ha":884,"x_min":58,"x_max":826,"o":"m 229 0 l 58 0 l 58 1010 l 229 1010 l 229 0 m 582 -13 q 390 66 456 -13 q 321 333 323 144 l 491 347 q 509 178 494 220 q 578 136 525 136 q 638 172 621 136 q 655 285 655 208 l 655 861 l 468 861 l 468 1010 l 826 1010 l 826 277 q 766 64 826 141 q 582 -13 707 -13 z "},"Ŀ":{"ha":884,"x_min":145,"x_max":890,"o":"m 145 0 l 145 1010 l 360 1010 l 360 167 l 802 167 l 802 0 l 145 0 m 745 491 q 640 511 681 491 q 600 580 600 530 l 600 596 q 640 667 600 646 q 745 688 681 688 q 850 667 809 688 q 890 596 890 646 l 890 580 q 850 511 890 530 q 745 491 809 491 z "},"Ł":{"ha":884,"x_min":45,"x_max":802,"o":"m 145 0 l 145 422 l 45 390 l 45 527 l 145 558 l 145 1010 l 360 1010 l 360 626 l 658 721 l 658 585 l 360 490 l 360 167 l 802 167 l 802 0 l 145 0 z "},"Ŋ":{"ha":884,"x_min":82,"x_max":802,"o":"m 491 -264 q 402 -255 447 -264 q 311 -232 357 -246 l 336 -85 q 407 -105 375 -97 q 467 -114 439 -114 q 555 -79 523 -114 q 587 35 587 -44 l 587 707 q 557 818 587 782 q 481 855 528 855 q 390 818 431 855 q 297 713 350 782 l 297 0 l 82 0 l 82 1010 l 297 1010 l 297 850 l 335 850 q 434 978 371 933 q 574 1023 497 1023 q 737 956 672 1023 q 802 765 802 890 l 802 15 q 709 -198 802 -131 q 491 -264 616 -264 z "},"Œ":{"ha":884,"x_min":30,"x_max":866,"o":"m 348 0 q 114 100 198 0 q 30 366 30 199 l 30 646 q 115 911 30 812 q 350 1010 199 1010 l 866 1010 l 866 856 l 612 856 l 612 624 l 822 624 l 822 470 l 612 470 l 612 154 l 866 154 l 866 0 l 348 0 m 367 163 l 428 163 l 428 847 l 367 847 q 247 792 280 847 q 215 629 215 736 l 215 384 q 247 220 215 277 q 367 163 280 163 z "},"Ŧ":{"ha":884,"x_min":45,"x_max":838,"o":"m 335 0 l 335 374 l 117 374 l 117 514 l 335 514 l 335 843 l 45 843 l 45 1010 l 838 1010 l 838 843 l 549 843 l 549 514 l 766 514 l 766 374 l 549 374 l 549 0 l 335 0 z "},"Α":{"ha":884,"x_min":24,"x_max":861,"o":"m 552 413 l 446 840 l 332 413 l 552 413 m 655 0 l 593 246 l 288 246 l 222 0 l 24 0 l 314 1010 l 571 1010 l 861 0 l 655 0 z "},"Ά":{"ha":884,"x_min":-19,"x_max":861,"o":"m 552 413 l 446 840 l 332 413 l 552 413 m 655 0 l 593 246 l 288 246 l 222 0 l 24 0 l 314 1010 l 571 1010 l 861 0 l 655 0 m -19 884 l 51 1136 l 316 1136 l 119 884 l -19 884 z "},"Β":{"ha":884,"x_min":82,"x_max":811,"o":"m 82 0 l 82 1010 l 453 1010 q 699 952 620 1010 q 779 773 779 894 l 779 726 q 743 607 779 649 q 633 553 707 566 l 633 516 q 764 456 717 508 q 811 327 811 405 l 811 264 q 723 64 811 129 q 453 0 636 0 l 82 0 m 297 598 l 439 598 q 537 622 508 598 q 567 699 567 645 l 567 753 q 537 830 567 807 q 439 852 508 852 l 297 852 l 297 598 m 297 158 l 443 158 q 561 185 527 158 q 596 277 596 212 l 596 335 q 561 425 596 398 q 443 452 527 452 l 297 452 l 297 158 z "},"Γ":{"ha":884,"x_min":126,"x_max":827,"o":"m 126 0 l 126 1010 l 827 1010 l 827 843 l 341 843 l 341 0 l 126 0 z "},"Δ":{"ha":884,"x_min":42,"x_max":842,"o":"m 42 0 l 42 167 l 299 1010 l 591 1010 l 842 167 l 842 0 l 42 0 m 638 167 l 442 864 l 237 167 l 638 167 z "},"Ε":{"ha":884,"x_min":82,"x_max":809,"o":"m 82 0 l 82 1010 l 809 1010 l 809 843 l 297 843 l 297 624 l 746 624 l 746 457 l 297 457 l 297 167 l 809 167 l 809 0 l 82 0 z "},"Έ":{"ha":884,"x_min":-205,"x_max":809,"o":"m 82 0 l 82 1010 l 809 1010 l 809 843 l 297 843 l 297 624 l 746 624 l 746 457 l 297 457 l 297 167 l 809 167 l 809 0 l 82 0 m -205 884 l -135 1136 l 130 1136 l -67 884 l -205 884 z "},"Ζ":{"ha":884,"x_min":74,"x_max":809,"o":"m 809 0 l 74 0 l 74 167 l 581 843 l 74 843 l 74 1010 l 809 1010 l 809 843 l 306 167 l 809 167 l 809 0 z "},"Η":{"ha":884,"x_min":82,"x_max":802,"o":"m 82 0 l 82 1010 l 297 1010 l 297 641 l 587 641 l 587 1010 l 802 1010 l 802 0 l 587 0 l 587 475 l 297 475 l 297 0 l 82 0 z "},"Ή":{"ha":884,"x_min":-226,"x_max":802,"o":"m 82 0 l 82 1010 l 297 1010 l 297 641 l 587 641 l 587 1010 l 802 1010 l 802 0 l 587 0 l 587 475 l 297 475 l 297 0 l 82 0 m -226 884 l -157 1136 l 109 1136 l -88 884 l -226 884 z "},"Θ":{"ha":884,"x_min":63,"x_max":821,"o":"m 442 -13 q 161 79 259 -13 q 63 341 63 170 l 63 664 q 162 930 63 837 q 443 1023 260 1023 q 723 930 626 1023 q 821 664 821 837 l 821 341 q 723 79 821 170 q 442 -13 626 -13 m 442 154 q 586 201 540 154 q 633 359 633 249 l 633 646 q 586 807 633 758 q 442 856 540 856 q 297 807 343 856 q 251 646 251 758 l 251 359 q 297 201 251 249 q 442 154 343 154 m 333 437 l 333 586 l 551 586 l 551 437 l 333 437 z "},"Ι":{"ha":884,"x_min":82,"x_max":802,"o":"m 82 0 l 82 167 l 335 167 l 335 843 l 82 843 l 82 1010 l 802 1010 l 802 843 l 549 843 l 549 167 l 802 167 l 802 0 l 82 0 z "},"Ί":{"ha":884,"x_min":-226,"x_max":802,"o":"m 82 0 l 82 167 l 335 167 l 335 843 l 82 843 l 82 1010 l 802 1010 l 802 843 l 549 843 l 549 167 l 802 167 l 802 0 l 82 0 m -226 884 l -157 1136 l 109 1136 l -88 884 l -226 884 z "},"Ϊ":{"ha":884,"x_min":82,"x_max":802,"o":"m 82 0 l 82 167 l 335 167 l 335 843 l 82 843 l 82 1010 l 802 1010 l 802 843 l 549 843 l 549 167 l 802 167 l 802 0 l 82 0 m 283 1131 q 203 1151 234 1131 q 172 1220 172 1170 l 172 1236 q 203 1307 172 1287 q 283 1328 234 1328 q 364 1307 333 1328 q 395 1236 395 1287 l 395 1220 q 364 1151 395 1170 q 283 1131 332 1131 m 601 1131 q 520 1151 551 1131 q 489 1220 489 1170 l 489 1236 q 520 1307 489 1287 q 601 1328 551 1328 q 682 1307 652 1328 q 712 1236 712 1287 l 712 1220 q 681 1151 712 1170 q 601 1131 649 1131 z "},"Κ":{"ha":884,"x_min":82,"x_max":855,"o":"m 297 441 l 297 0 l 82 0 l 82 1010 l 297 1010 l 297 607 l 345 607 l 630 1010 l 855 1010 l 509 544 l 851 0 l 628 0 l 348 441 l 297 441 z "},"Λ":{"ha":884,"x_min":24,"x_max":861,"o":"m 655 0 l 446 840 l 222 0 l 24 0 l 314 1010 l 571 1010 l 861 0 l 655 0 z "},"Μ":{"ha":884,"x_min":62,"x_max":822,"o":"m 369 297 l 231 693 l 251 0 l 62 0 l 62 1010 l 277 1010 l 446 501 l 614 1010 l 822 1010 l 822 0 l 634 0 l 652 688 l 516 297 l 369 297 z "},"Ν":{"ha":884,"x_min":82,"x_max":802,"o":"m 542 0 l 266 720 l 266 0 l 82 0 l 82 1010 l 326 1010 l 617 247 l 617 1010 l 802 1010 l 802 0 l 542 0 z "},"Ξ":{"ha":884,"x_min":74,"x_max":809,"o":"m 74 843 l 74 1010 l 809 1010 l 809 843 l 74 843 m 106 457 l 106 624 l 778 624 l 778 457 l 106 457 m 74 0 l 74 167 l 809 167 l 809 0 l 74 0 z "},"Ο":{"ha":884,"x_min":74,"x_max":809,"o":"m 442 -13 q 168 75 261 -13 q 74 323 74 163 l 74 682 q 169 933 74 843 q 443 1023 263 1023 q 717 933 624 1023 q 809 682 809 843 l 809 323 q 716 75 809 163 q 442 -13 622 -13 m 442 154 q 559 196 524 154 q 595 341 595 239 l 595 664 q 559 811 595 766 q 442 856 524 856 q 324 811 360 856 q 289 664 289 766 l 289 341 q 324 196 289 239 q 442 154 360 154 z "},"Ό":{"ha":884,"x_min":-87,"x_max":812,"o":"m 444 -13 q 170 75 264 -13 q 77 323 77 163 l 77 682 q 171 933 77 843 q 446 1023 265 1023 q 719 933 626 1023 q 812 682 812 843 l 812 323 q 718 75 812 163 q 444 -13 625 -13 m 444 154 q 562 196 527 154 q 597 341 597 239 l 597 664 q 562 811 597 766 q 444 856 527 856 q 327 811 362 856 q 292 664 292 766 l 292 341 q 327 196 292 239 q 444 154 362 154 m -87 884 l -18 1136 l 247 1136 l 51 884 l -87 884 z "},"Π":{"ha":884,"x_min":82,"x_max":802,"o":"m 82 0 l 82 1010 l 802 1010 l 802 0 l 587 0 l 587 843 l 297 843 l 297 0 l 82 0 z "},"Ρ":{"ha":884,"x_min":82,"x_max":813,"o":"m 82 0 l 82 1010 l 465 1010 q 722 941 630 1010 q 813 727 813 872 l 813 592 q 722 386 813 452 q 465 319 631 319 l 297 319 l 297 0 l 82 0 m 297 484 l 453 484 q 563 510 528 484 q 598 609 598 537 l 598 715 q 563 816 598 789 q 453 843 528 843 l 297 843 l 297 484 z "},"Σ":{"ha":884,"x_min":88,"x_max":783,"o":"m 783 0 l 88 0 l 88 167 l 485 518 l 88 843 l 88 1010 l 783 1010 l 783 843 l 317 843 l 631 592 l 631 458 l 302 167 l 783 167 l 783 0 z "},"Τ":{"ha":884,"x_min":45,"x_max":838,"o":"m 335 0 l 335 843 l 45 843 l 45 1010 l 838 1010 l 838 843 l 549 843 l 549 0 l 335 0 z "},"Υ":{"ha":884,"x_min":18,"x_max":865,"o":"m 549 0 l 335 0 l 335 379 l 18 1010 l 236 1010 l 443 558 l 648 1010 l 865 1010 l 549 379 l 549 0 z "},"Ύ":{"ha":884,"x_min":-237,"x_max":865,"o":"m 549 0 l 335 0 l 335 379 l 18 1010 l 236 1010 l 443 558 l 648 1010 l 865 1010 l 549 379 l 549 0 m -237 884 l -168 1136 l 97 1136 l -100 884 l -237 884 z "},"Ϋ":{"ha":884,"x_min":18,"x_max":865,"o":"m 549 0 l 335 0 l 335 379 l 18 1010 l 236 1010 l 443 558 l 648 1010 l 865 1010 l 549 379 l 549 0 m 283 1131 q 203 1151 234 1131 q 172 1220 172 1170 l 172 1236 q 203 1307 172 1287 q 283 1328 234 1328 q 364 1307 333 1328 q 395 1236 395 1287 l 395 1220 q 364 1151 395 1170 q 283 1131 332 1131 m 601 1131 q 520 1151 551 1131 q 489 1220 489 1170 l 489 1236 q 520 1307 489 1287 q 601 1328 551 1328 q 682 1307 652 1328 q 712 1236 712 1287 l 712 1220 q 681 1151 712 1170 q 601 1131 649 1131 z "},"Φ":{"ha":884,"x_min":52,"x_max":832,"o":"m 549 114 l 530 114 l 530 -13 l 352 -13 l 352 114 l 335 114 q 124 203 196 114 q 52 451 52 293 l 52 554 q 124 806 52 715 q 336 896 197 896 l 352 896 l 352 1023 l 530 1023 l 530 896 l 549 896 q 760 806 688 896 q 832 554 832 715 l 832 451 q 760 203 832 293 q 549 114 688 114 m 558 739 l 524 739 l 524 271 l 558 271 q 629 317 609 271 q 650 451 650 362 l 650 554 q 629 691 650 643 q 558 739 609 739 m 331 271 l 359 271 l 359 739 l 331 739 q 254 691 275 739 q 232 554 232 643 l 232 451 q 254 317 232 362 q 331 271 275 271 z "},"Χ":{"ha":884,"x_min":29,"x_max":856,"o":"m 638 0 l 438 345 l 242 0 l 29 0 l 341 519 l 61 1010 l 284 1010 l 463 697 l 643 1010 l 856 1010 l 559 520 l 852 0 l 638 0 z "},"Ψ":{"ha":884,"x_min":64,"x_max":819,"o":"m 532 0 l 352 0 l 352 237 q 137 345 210 258 q 64 577 64 433 l 64 1010 l 244 1010 l 244 586 q 269 458 244 503 q 352 404 294 413 l 352 1010 l 532 1010 l 532 404 q 616 458 590 413 q 641 586 641 503 l 641 1010 l 819 1010 l 819 577 q 747 345 819 433 q 532 237 674 258 l 532 0 z "},"Ω":{"ha":884,"x_min":62,"x_max":822,"o":"m 396 0 l 62 0 l 62 140 l 208 140 l 208 254 q 98 357 135 288 q 62 519 62 427 l 62 664 q 160 931 62 840 q 442 1023 258 1023 q 725 931 628 1023 q 822 664 822 840 l 822 519 q 785 357 822 427 q 676 254 749 288 l 676 140 l 822 140 l 822 0 l 487 0 l 487 290 q 579 366 551 307 q 607 519 607 424 l 607 673 q 566 814 607 773 q 442 856 525 856 q 318 814 359 856 q 277 673 277 773 l 277 519 q 305 366 277 424 q 396 290 333 307 l 396 0 z "},"Ώ":{"ha":884,"x_min":-133,"x_max":822,"o":"m 396 0 l 62 0 l 62 140 l 208 140 l 208 254 q 98 357 135 288 q 62 519 62 427 l 62 664 q 160 931 62 840 q 442 1023 258 1023 q 725 931 628 1023 q 822 664 822 840 l 822 519 q 785 357 822 427 q 676 254 749 288 l 676 140 l 822 140 l 822 0 l 487 0 l 487 290 q 579 366 551 307 q 607 519 607 424 l 607 673 q 566 814 607 773 q 442 856 525 856 q 318 814 359 856 q 277 673 277 773 l 277 519 q 305 366 277 424 q 396 290 333 307 l 396 0 m -133 884 l -63 1136 l 202 1136 l 5 884 l -133 884 z "},"Ω":{"ha":884,"x_min":62,"x_max":822,"o":"m 396 0 l 62 0 l 62 140 l 208 140 l 208 254 q 98 357 135 288 q 62 519 62 427 l 62 664 q 160 931 62 840 q 442 1023 258 1023 q 725 931 628 1023 q 822 664 822 840 l 822 519 q 785 357 822 427 q 676 254 749 288 l 676 140 l 822 140 l 822 0 l 487 0 l 487 290 q 579 366 551 307 q 607 519 607 424 l 607 673 q 566 814 607 773 q 442 856 525 856 q 318 814 359 856 q 277 673 277 773 l 277 519 q 305 366 277 424 q 396 290 333 307 l 396 0 z "},"Ђ":{"ha":884,"x_min":20,"x_max":826,"o":"m 174 0 l 174 843 l 20 843 l 20 1010 l 616 1010 l 616 843 l 389 843 l 389 657 l 500 657 q 743 585 660 657 q 826 364 826 514 l 826 290 q 743 71 826 143 q 500 0 660 0 l 500 164 q 588 193 557 164 q 620 293 620 221 l 620 361 q 588 463 620 434 q 500 492 557 492 l 389 492 l 389 0 l 174 0 z "},"Є":{"ha":884,"x_min":74,"x_max":835,"o":"m 835 342 q 735 72 826 157 q 455 -13 645 -13 q 170 72 266 -13 q 74 323 74 157 l 74 682 q 170 937 74 851 q 456 1023 266 1023 q 735 940 644 1023 q 835 663 826 857 l 620 650 q 578 812 611 768 q 455 856 544 856 q 327 813 365 856 q 289 663 289 769 l 289 624 l 508 624 l 508 457 l 289 457 l 289 341 q 327 196 289 239 q 455 154 365 154 q 578 196 545 154 q 620 355 611 237 l 835 342 z "},"Ѕ":{"ha":884,"x_min":57,"x_max":818,"o":"m 439 -11 q 225 21 319 -11 q 57 111 131 53 l 124 269 q 268 186 192 216 q 443 155 345 155 q 563 188 523 155 q 604 275 604 221 q 559 365 604 338 q 400 420 515 391 q 155 529 223 463 q 86 720 86 595 q 176 936 86 852 q 434 1020 265 1020 q 624 987 530 1020 q 778 903 717 953 l 720 751 q 582 826 652 799 q 437 852 513 852 q 335 825 370 852 q 299 744 299 798 q 340 660 299 691 q 509 598 381 630 q 750 491 682 558 q 818 293 818 423 q 713 68 818 146 q 439 -11 609 -11 z "},"І":{"ha":884,"x_min":82,"x_max":802,"o":"m 82 0 l 82 167 l 335 167 l 335 843 l 82 843 l 82 1010 l 802 1010 l 802 843 l 549 843 l 549 167 l 802 167 l 802 0 l 82 0 z "},"Ї":{"ha":884,"x_min":82,"x_max":802,"o":"m 82 0 l 82 167 l 335 167 l 335 843 l 82 843 l 82 1010 l 802 1010 l 802 843 l 549 843 l 549 167 l 802 167 l 802 0 l 82 0 m 283 1131 q 203 1151 234 1131 q 172 1220 172 1170 l 172 1236 q 203 1307 172 1287 q 283 1328 234 1328 q 364 1307 333 1328 q 395 1236 395 1287 l 395 1220 q 364 1151 395 1170 q 283 1131 332 1131 m 601 1131 q 520 1151 551 1131 q 489 1220 489 1170 l 489 1236 q 520 1307 489 1287 q 601 1328 551 1328 q 682 1307 652 1328 q 712 1236 712 1287 l 712 1220 q 681 1151 712 1170 q 601 1131 649 1131 z "},"Ј":{"ha":884,"x_min":49,"x_max":784,"o":"m 424 -13 q 147 74 236 -13 q 49 351 58 160 l 264 365 q 306 196 273 237 q 423 154 340 154 q 534 194 499 154 q 569 337 569 235 l 569 843 l 290 843 l 290 1010 l 784 1010 l 784 328 q 696 77 784 167 q 424 -13 609 -13 z "},"Љ":{"ha":884,"x_min":-21,"x_max":828,"o":"m 253 181 q 203 40 251 86 q 68 -6 154 -6 q 24 -4 47 -8 q -21 5 1 0 l 4 164 q 23 160 13 162 q 42 159 33 158 q 73 173 59 158 q 87 235 86 188 l 98 1010 l 537 1010 l 537 691 l 605 691 q 770 629 712 691 q 828 453 828 567 l 828 249 q 770 65 828 130 q 605 0 711 0 l 370 0 l 370 861 l 261 861 l 253 181 m 537 149 l 576 149 q 640 176 617 149 q 662 268 662 203 l 662 429 q 640 518 662 491 q 576 544 617 544 l 537 544 l 537 149 z "},"Њ":{"ha":884,"x_min":57,"x_max":828,"o":"m 537 149 l 580 149 q 641 176 620 149 q 662 268 662 202 l 662 429 q 641 518 662 492 q 580 544 620 544 l 537 544 l 537 149 m 223 475 l 223 0 l 57 0 l 57 1010 l 223 1010 l 223 641 l 370 641 l 370 1010 l 537 1010 l 537 691 l 609 691 q 773 631 717 691 q 828 453 828 571 l 828 249 q 773 63 828 126 q 609 0 717 0 l 370 0 l 370 475 l 223 475 z "},"Ћ":{"ha":884,"x_min":16,"x_max":826,"o":"m 385 0 l 170 0 l 170 843 l 16 843 l 16 1010 l 621 1010 l 621 843 l 385 843 l 385 628 l 500 628 q 746 557 665 628 q 826 343 826 487 l 826 0 l 611 0 l 611 341 q 585 434 611 405 q 500 463 558 463 l 385 463 l 385 0 z "},"Џ":{"ha":884,"x_min":82,"x_max":802,"o":"m 335 -189 l 335 0 l 82 0 l 82 1010 l 297 1010 l 297 167 l 587 167 l 587 1010 l 802 1010 l 802 0 l 549 0 l 549 -189 l 335 -189 z "},"А":{"ha":884,"x_min":24,"x_max":861,"o":"m 552 413 l 446 840 l 332 413 l 552 413 m 655 0 l 593 246 l 288 246 l 222 0 l 24 0 l 314 1010 l 571 1010 l 861 0 l 655 0 z "},"Б":{"ha":884,"x_min":82,"x_max":819,"o":"m 82 0 l 82 1010 l 758 1010 l 758 843 l 297 843 l 297 625 l 485 625 q 733 555 646 625 q 819 355 819 485 l 819 287 q 734 74 819 148 q 486 0 648 0 l 82 0 m 297 167 l 460 167 q 572 199 539 167 q 605 295 605 231 l 605 336 q 572 430 605 399 q 460 461 539 461 l 297 461 l 297 167 z "},"В":{"ha":884,"x_min":82,"x_max":811,"o":"m 82 0 l 82 1010 l 453 1010 q 699 952 620 1010 q 779 773 779 894 l 779 726 q 743 607 779 649 q 633 553 707 566 l 633 516 q 764 456 717 508 q 811 327 811 405 l 811 264 q 723 64 811 129 q 453 0 636 0 l 82 0 m 297 598 l 439 598 q 537 622 508 598 q 567 699 567 645 l 567 753 q 537 830 567 807 q 439 852 508 852 l 297 852 l 297 598 m 297 158 l 443 158 q 561 185 527 158 q 596 277 596 212 l 596 335 q 561 425 596 398 q 443 452 527 452 l 297 452 l 297 158 z "},"Г":{"ha":884,"x_min":126,"x_max":827,"o":"m 126 0 l 126 1010 l 827 1010 l 827 843 l 341 843 l 341 0 l 126 0 z "},"Ѓ":{"ha":884,"x_min":126,"x_max":827,"o":"m 126 0 l 126 1010 l 827 1010 l 827 843 l 341 843 l 341 0 l 126 0 m 328 1136 l 473 1389 l 751 1389 l 479 1136 l 328 1136 z "},"Д":{"ha":884,"x_min":4,"x_max":859,"o":"m 298 193 l 298 167 l 553 167 l 553 843 l 356 843 l 352 384 q 340 268 351 317 q 298 193 328 220 m 201 0 l 201 -189 l 4 -189 l 4 167 l 97 167 q 142 240 128 189 q 158 389 157 290 l 164 1010 l 750 1010 l 750 167 l 859 167 l 859 -189 l 662 -189 l 662 0 l 201 0 z "},"Е":{"ha":884,"x_min":82,"x_max":809,"o":"m 82 0 l 82 1010 l 809 1010 l 809 843 l 297 843 l 297 624 l 746 624 l 746 457 l 297 457 l 297 167 l 809 167 l 809 0 l 82 0 z "},"Ѐ":{"ha":884,"x_min":82,"x_max":809,"o":"m 82 0 l 82 1010 l 809 1010 l 809 843 l 297 843 l 297 624 l 746 624 l 746 457 l 297 457 l 297 167 l 809 167 l 809 0 l 82 0 m 419 1136 l 146 1389 l 424 1389 l 569 1136 l 419 1136 z "},"Ё":{"ha":884,"x_min":82,"x_max":809,"o":"m 82 0 l 82 1010 l 809 1010 l 809 843 l 297 843 l 297 624 l 746 624 l 746 457 l 297 457 l 297 167 l 809 167 l 809 0 l 82 0 m 303 1131 q 223 1151 254 1131 q 192 1220 192 1170 l 192 1236 q 223 1307 192 1287 q 303 1328 254 1328 q 384 1307 354 1328 q 415 1236 415 1287 l 415 1220 q 384 1151 415 1170 q 303 1131 352 1131 m 621 1131 q 540 1151 571 1131 q 509 1220 509 1170 l 509 1236 q 540 1307 509 1287 q 621 1328 571 1328 q 702 1307 672 1328 q 732 1236 732 1287 l 732 1220 q 701 1151 732 1170 q 621 1131 669 1131 z "},"Ж":{"ha":884,"x_min":15,"x_max":869,"o":"m 309 451 l 189 0 l 18 0 l 181 564 l 15 1010 l 188 1010 l 316 596 l 364 596 l 364 1010 l 521 1010 l 521 596 l 569 596 l 696 1010 l 869 1010 l 710 558 l 867 0 l 694 0 l 576 451 l 521 451 l 521 0 l 364 0 l 364 451 l 309 451 z "},"З":{"ha":884,"x_min":62,"x_max":809,"o":"m 441 -13 q 162 61 253 -13 q 62 288 71 134 l 277 301 q 323 182 285 213 q 439 152 361 152 q 559 182 524 152 q 595 280 595 212 l 595 314 q 557 417 595 386 q 442 448 520 448 l 307 448 l 307 612 l 442 612 q 539 634 509 612 q 569 710 569 655 l 569 750 q 538 834 569 809 q 438 859 506 859 q 343 831 375 859 q 302 734 311 803 l 87 746 q 181 955 96 888 q 429 1023 266 1023 q 698 963 611 1023 q 784 769 784 904 l 784 741 q 734 612 784 662 q 595 553 683 562 l 595 516 q 753 449 697 508 q 809 301 809 390 l 809 275 q 724 58 809 129 q 441 -13 639 -13 z "},"И":{"ha":884,"x_min":82,"x_max":802,"o":"m 614 0 l 614 718 l 342 0 l 82 0 l 82 1010 l 271 1010 l 271 250 l 558 1010 l 802 1010 l 802 0 l 614 0 z "},"Ѝ":{"ha":884,"x_min":82,"x_max":802,"o":"m 614 0 l 614 718 l 342 0 l 82 0 l 82 1010 l 271 1010 l 271 250 l 558 1010 l 802 1010 l 802 0 l 614 0 m 404 1136 l 131 1389 l 409 1389 l 554 1136 l 404 1136 z "},"Й":{"ha":884,"x_min":82,"x_max":802,"o":"m 614 0 l 614 718 l 342 0 l 82 0 l 82 1010 l 271 1010 l 271 250 l 558 1010 l 802 1010 l 802 0 l 614 0 m 446 1128 q 226 1190 319 1128 q 134 1407 133 1253 l 322 1419 q 347 1299 321 1336 q 446 1263 374 1263 q 544 1299 518 1263 q 569 1419 571 1336 l 758 1407 q 665 1190 759 1253 q 446 1128 572 1128 z "},"К":{"ha":884,"x_min":82,"x_max":855,"o":"m 297 441 l 297 0 l 82 0 l 82 1010 l 297 1010 l 297 607 l 345 607 l 630 1010 l 855 1010 l 509 544 l 851 0 l 628 0 l 348 441 l 297 441 z "},"Ќ":{"ha":884,"x_min":82,"x_max":855,"o":"m 297 441 l 297 0 l 82 0 l 82 1010 l 297 1010 l 297 607 l 345 607 l 630 1010 l 855 1010 l 509 544 l 851 0 l 628 0 l 348 441 l 297 441 m 367 1136 l 513 1389 l 790 1389 l 518 1136 l 367 1136 z "},"Л":{"ha":884,"x_min":0,"x_max":802,"o":"m 587 0 l 587 843 l 385 843 l 383 298 q 316 62 381 140 q 125 -16 250 -16 q 63 -11 95 -16 q 0 4 32 -5 l 24 172 q 57 163 42 167 q 88 159 73 159 q 149 193 128 159 q 172 314 170 227 l 176 1010 l 802 1010 l 802 0 l 587 0 z "},"М":{"ha":884,"x_min":62,"x_max":822,"o":"m 369 297 l 231 693 l 251 0 l 62 0 l 62 1010 l 277 1010 l 446 501 l 614 1010 l 822 1010 l 822 0 l 634 0 l 652 688 l 516 297 l 369 297 z "},"Н":{"ha":884,"x_min":82,"x_max":802,"o":"m 82 0 l 82 1010 l 297 1010 l 297 641 l 587 641 l 587 1010 l 802 1010 l 802 0 l 587 0 l 587 475 l 297 475 l 297 0 l 82 0 z "},"О":{"ha":884,"x_min":74,"x_max":809,"o":"m 442 -13 q 168 75 261 -13 q 74 323 74 163 l 74 682 q 169 933 74 843 q 443 1023 263 1023 q 717 933 624 1023 q 809 682 809 843 l 809 323 q 716 75 809 163 q 442 -13 622 -13 m 442 154 q 559 196 524 154 q 595 341 595 239 l 595 664 q 559 811 595 766 q 442 856 524 856 q 324 811 360 856 q 289 664 289 766 l 289 341 q 324 196 289 239 q 442 154 360 154 z "},"П":{"ha":884,"x_min":82,"x_max":802,"o":"m 82 0 l 82 1010 l 802 1010 l 802 0 l 587 0 l 587 843 l 297 843 l 297 0 l 82 0 z "},"Р":{"ha":884,"x_min":82,"x_max":813,"o":"m 82 0 l 82 1010 l 465 1010 q 722 941 630 1010 q 813 727 813 872 l 813 592 q 722 386 813 452 q 465 319 631 319 l 297 319 l 297 0 l 82 0 m 297 484 l 453 484 q 563 510 528 484 q 598 609 598 537 l 598 715 q 563 816 598 789 q 453 843 528 843 l 297 843 l 297 484 z "},"С":{"ha":884,"x_min":74,"x_max":835,"o":"m 455 -13 q 169 71 264 -13 q 74 323 74 155 l 74 682 q 170 937 74 852 q 456 1023 265 1023 q 737 938 648 1023 q 835 663 826 854 l 620 650 q 578 814 611 773 q 455 856 544 856 q 327 812 365 856 q 289 663 289 768 l 289 341 q 327 197 289 240 q 455 154 365 154 q 577 194 543 154 q 620 355 611 235 l 835 342 q 737 71 826 154 q 455 -13 648 -13 z "},"Т":{"ha":884,"x_min":45,"x_max":838,"o":"m 335 0 l 335 843 l 45 843 l 45 1010 l 838 1010 l 838 843 l 549 843 l 549 0 l 335 0 z "},"У":{"ha":884,"x_min":38,"x_max":845,"o":"m 229 -6 q 148 -2 189 -6 q 66 11 107 3 l 87 178 q 161 165 128 169 q 222 162 194 162 q 316 186 280 162 q 375 275 352 211 l 383 297 l 301 297 l 38 1010 l 249 1010 l 441 465 l 635 1010 l 845 1010 l 556 230 q 429 50 509 106 q 229 -6 348 -6 z "},"Ў":{"ha":884,"x_min":38,"x_max":845,"o":"m 229 -6 q 148 -2 189 -6 q 66 11 107 3 l 87 178 q 161 165 128 169 q 222 162 194 162 q 316 186 280 162 q 375 275 352 211 l 383 297 l 301 297 l 38 1010 l 249 1010 l 441 465 l 635 1010 l 845 1010 l 556 230 q 429 50 509 106 q 229 -6 348 -6 m 442 1128 q 222 1190 316 1128 q 130 1407 129 1253 l 318 1419 q 343 1299 317 1336 q 442 1263 370 1263 q 540 1299 514 1263 q 566 1419 567 1336 l 754 1407 q 662 1190 755 1253 q 442 1128 568 1128 z "},"Ф":{"ha":884,"x_min":52,"x_max":832,"o":"m 549 114 l 530 114 l 530 -13 l 352 -13 l 352 114 l 335 114 q 124 203 196 114 q 52 451 52 293 l 52 554 q 124 806 52 715 q 336 896 197 896 l 352 896 l 352 1023 l 530 1023 l 530 896 l 549 896 q 760 806 688 896 q 832 554 832 715 l 832 451 q 760 203 832 293 q 549 114 688 114 m 558 739 l 524 739 l 524 271 l 558 271 q 629 317 609 271 q 650 451 650 362 l 650 554 q 629 691 650 643 q 558 739 609 739 m 331 271 l 359 271 l 359 739 l 331 739 q 254 691 275 739 q 232 554 232 643 l 232 451 q 254 317 232 362 q 331 271 275 271 z "},"Х":{"ha":884,"x_min":29,"x_max":856,"o":"m 638 0 l 438 345 l 242 0 l 29 0 l 341 519 l 61 1010 l 284 1010 l 463 697 l 643 1010 l 856 1010 l 559 520 l 852 0 l 638 0 z "},"Ц":{"ha":884,"x_min":82,"x_max":865,"o":"m 650 -189 l 650 0 l 82 0 l 82 1010 l 297 1010 l 297 167 l 542 167 l 542 1010 l 756 1010 l 756 167 l 865 167 l 865 -189 l 650 -189 z "},"Ч":{"ha":884,"x_min":78,"x_max":798,"o":"m 798 1010 l 798 0 l 583 0 l 583 327 l 438 327 q 165 402 251 327 q 78 638 78 476 l 78 1010 l 293 1010 l 293 640 q 328 527 293 563 q 438 491 362 491 l 583 491 l 583 1010 l 798 1010 z "},"Ш":{"ha":884,"x_min":56,"x_max":828,"o":"m 56 0 l 56 1010 l 235 1010 l 235 157 l 355 157 l 355 1010 l 528 1010 l 528 157 l 649 157 l 649 1010 l 828 1010 l 828 0 l 56 0 z "},"Щ":{"ha":884,"x_min":56,"x_max":883,"o":"m 883 -234 l 697 -234 l 697 0 l 56 0 l 56 1010 l 235 1010 l 235 157 l 355 157 l 355 1010 l 528 1010 l 528 157 l 649 157 l 649 1010 l 828 1010 l 828 157 l 883 157 l 883 -234 z "},"Ъ":{"ha":884,"x_min":4,"x_max":830,"o":"m 515 0 l 191 0 l 191 843 l 4 843 l 4 1010 l 402 1010 l 402 691 l 515 691 q 751 625 673 691 q 830 427 830 559 l 830 275 q 751 68 830 136 q 515 0 673 0 m 402 167 l 491 167 q 590 196 561 167 q 620 294 620 226 l 620 403 q 590 498 620 470 q 491 527 561 527 l 402 527 l 402 167 z "},"Ы":{"ha":884,"x_min":63,"x_max":821,"o":"m 63 0 l 63 1010 l 242 1010 l 242 691 l 284 691 q 485 628 419 691 q 551 436 551 564 l 551 266 q 485 66 551 131 q 284 0 419 0 l 63 0 m 641 0 l 641 1010 l 821 1010 l 821 0 l 641 0 m 242 157 l 282 157 q 354 186 330 157 q 378 285 378 215 l 378 412 q 354 508 378 480 q 282 537 330 537 l 242 537 l 242 157 z "},"Ь":{"ha":884,"x_min":82,"x_max":840,"o":"m 82 0 l 82 1010 l 297 1010 l 297 691 l 491 691 q 752 624 664 691 q 840 427 840 558 l 840 275 q 752 69 840 139 q 491 0 664 0 l 82 0 m 297 167 l 462 167 q 585 196 545 167 q 625 294 625 225 l 625 403 q 585 499 625 471 q 462 527 545 527 l 297 527 l 297 167 z "},"Э":{"ha":884,"x_min":57,"x_max":817,"o":"m 437 -13 q 157 71 249 -13 q 57 342 66 155 l 271 355 q 314 196 280 237 q 437 154 347 154 q 570 201 538 154 q 602 341 602 249 l 602 457 l 369 457 l 369 624 l 602 624 l 602 663 q 565 811 602 766 q 437 856 528 856 q 314 812 347 856 q 271 650 280 768 l 57 663 q 157 937 66 852 q 436 1023 247 1023 q 722 937 626 1023 q 817 682 817 852 l 817 323 q 722 71 817 155 q 437 -13 626 -13 z "},"Ю":{"ha":884,"x_min":56,"x_max":828,"o":"m 580 -13 q 395 64 457 -13 q 333 277 333 141 l 333 458 l 234 458 l 234 0 l 56 0 l 56 1010 l 234 1010 l 234 622 l 333 622 l 333 729 q 396 944 333 865 q 581 1023 458 1023 q 767 944 706 1023 q 828 729 828 865 l 828 277 q 766 64 828 141 q 580 -13 705 -13 m 580 153 q 635 183 621 153 q 649 277 649 213 l 649 729 q 635 825 649 793 q 580 857 621 857 q 525 825 539 857 q 510 729 510 793 l 510 277 q 525 183 510 213 q 580 153 539 153 z "},"Я":{"ha":884,"x_min":43,"x_max":802,"o":"m 423 530 l 587 530 l 587 843 l 423 843 q 310 817 342 843 q 278 723 278 790 l 278 654 q 310 558 278 586 q 423 530 342 530 m 587 365 l 476 365 l 273 0 l 43 0 l 261 384 q 119 475 167 409 q 72 648 72 542 l 72 735 q 153 941 72 871 q 395 1010 235 1010 l 802 1010 l 802 0 l 587 0 l 587 365 z "},"Ґ":{"ha":884,"x_min":126,"x_max":827,"o":"m 126 0 l 126 1010 l 612 1010 l 612 1199 l 827 1199 l 827 843 l 341 843 l 341 0 l 126 0 z "},"a":{"ha":884,"x_min":62,"x_max":855,"o":"m 356 126 q 445 141 403 126 q 524 183 487 155 l 524 306 l 350 306 q 283 287 307 306 q 259 212 259 268 q 282 148 259 170 q 356 126 304 126 m 304 -13 q 130 44 198 -13 q 62 207 62 101 q 134 367 62 312 q 326 423 207 423 l 524 423 l 524 515 q 492 594 524 571 q 398 617 460 617 q 302 595 333 617 q 256 505 271 572 l 80 537 q 180 717 106 664 q 404 770 254 770 q 646 709 562 770 q 730 521 730 648 l 730 229 q 761 161 730 174 q 855 157 793 148 l 855 4 q 691 8 756 -18 q 606 117 626 33 l 572 117 q 462 26 533 64 q 304 -13 391 -13 z "},"à":{"ha":884,"x_min":62,"x_max":855,"o":"m 356 126 q 445 141 403 126 q 524 183 487 155 l 524 306 l 350 306 q 283 287 307 306 q 259 212 259 268 q 282 148 259 170 q 356 126 304 126 m 304 -13 q 130 44 198 -13 q 62 207 62 101 q 134 367 62 312 q 326 423 207 423 l 524 423 l 524 515 q 492 594 524 571 q 398 617 460 617 q 302 595 333 617 q 256 505 271 572 l 80 537 q 180 717 106 664 q 404 770 254 770 q 646 709 562 770 q 730 521 730 648 l 730 229 q 761 161 730 174 q 855 157 793 148 l 855 4 q 691 8 756 -18 q 606 117 626 33 l 572 117 q 462 26 533 64 q 304 -13 391 -13 m 409 884 l 136 1136 l 414 1136 l 559 884 l 409 884 z "},"á":{"ha":884,"x_min":62,"x_max":855,"o":"m 356 126 q 445 141 403 126 q 524 183 487 155 l 524 306 l 350 306 q 283 287 307 306 q 259 212 259 268 q 282 148 259 170 q 356 126 304 126 m 304 -13 q 130 44 198 -13 q 62 207 62 101 q 134 367 62 312 q 326 423 207 423 l 524 423 l 524 515 q 492 594 524 571 q 398 617 460 617 q 302 595 333 617 q 256 505 271 572 l 80 537 q 180 717 106 664 q 404 770 254 770 q 646 709 562 770 q 730 521 730 648 l 730 229 q 761 161 730 174 q 855 157 793 148 l 855 4 q 691 8 756 -18 q 606 117 626 33 l 572 117 q 462 26 533 64 q 304 -13 391 -13 m 264 884 l 409 1136 l 687 1136 l 414 884 l 264 884 z "},"â":{"ha":884,"x_min":62,"x_max":855,"o":"m 356 126 q 445 141 403 126 q 524 183 487 155 l 524 306 l 350 306 q 283 287 307 306 q 259 212 259 268 q 282 148 259 170 q 356 126 304 126 m 304 -13 q 130 44 198 -13 q 62 207 62 101 q 134 367 62 312 q 326 423 207 423 l 524 423 l 524 515 q 492 594 524 571 q 398 617 460 617 q 302 595 333 617 q 256 505 271 572 l 80 537 q 180 717 106 664 q 404 770 254 770 q 646 709 562 770 q 730 521 730 648 l 730 229 q 761 161 730 174 q 855 157 793 148 l 855 4 q 691 8 756 -18 q 606 117 626 33 l 572 117 q 462 26 533 64 q 304 -13 391 -13 m 188 871 l 119 970 l 347 1167 l 509 1167 l 740 970 l 672 872 l 428 1009 l 188 871 z "},"ã":{"ha":884,"x_min":62,"x_max":855,"o":"m 356 126 q 445 141 403 126 q 524 183 487 155 l 524 306 l 350 306 q 283 287 307 306 q 259 212 259 268 q 282 148 259 170 q 356 126 304 126 m 304 -13 q 130 44 198 -13 q 62 207 62 101 q 134 367 62 312 q 326 423 207 423 l 524 423 l 524 515 q 492 594 524 571 q 398 617 460 617 q 302 595 333 617 q 256 505 271 572 l 80 537 q 180 717 106 664 q 404 770 254 770 q 646 709 562 770 q 730 521 730 648 l 730 229 q 761 161 730 174 q 855 157 793 148 l 855 4 q 691 8 756 -18 q 606 117 626 33 l 572 117 q 462 26 533 64 q 304 -13 391 -13 m 540 896 q 453 917 485 896 q 399 960 420 937 q 360 1003 379 984 q 318 1023 342 1023 q 280 1003 297 1023 q 265 922 264 984 l 265 909 l 124 909 l 124 928 q 174 1098 124 1030 q 312 1167 223 1167 q 402 1147 370 1167 q 456 1104 434 1128 q 495 1059 477 1080 q 534 1039 513 1039 q 572 1059 556 1039 q 587 1141 588 1078 l 587 1153 l 729 1153 l 729 1134 q 679 965 729 1033 q 540 896 629 896 z "},"ä":{"ha":884,"x_min":62,"x_max":855,"o":"m 356 126 q 445 141 403 126 q 524 183 487 155 l 524 306 l 350 306 q 283 287 307 306 q 259 212 259 268 q 282 148 259 170 q 356 126 304 126 m 304 -13 q 130 44 198 -13 q 62 207 62 101 q 134 367 62 312 q 326 423 207 423 l 524 423 l 524 515 q 492 594 524 571 q 398 617 460 617 q 302 595 333 617 q 256 505 271 572 l 80 537 q 180 717 106 664 q 404 770 254 770 q 646 709 562 770 q 730 521 730 648 l 730 229 q 761 161 730 174 q 855 157 793 148 l 855 4 q 691 8 756 -18 q 606 117 626 33 l 572 117 q 462 26 533 64 q 304 -13 391 -13 m 266 879 q 186 898 217 879 q 155 967 155 918 l 155 984 q 186 1055 155 1034 q 266 1076 217 1076 q 348 1055 317 1076 q 379 984 379 1034 l 379 967 q 347 898 379 918 q 266 879 316 879 m 585 879 q 503 898 534 879 q 472 967 472 918 l 472 984 q 503 1055 472 1034 q 585 1076 534 1076 q 665 1055 635 1076 q 696 984 696 1034 l 696 967 q 664 898 696 918 q 585 879 633 879 z "},"å":{"ha":884,"x_min":62,"x_max":855,"o":"m 356 126 q 445 141 403 126 q 524 183 487 155 l 524 306 l 350 306 q 283 287 307 306 q 259 212 259 268 q 282 148 259 170 q 356 126 304 126 m 304 -13 q 130 44 198 -13 q 62 207 62 101 q 134 367 62 312 q 326 423 207 423 l 524 423 l 524 515 q 492 594 524 571 q 398 617 460 617 q 302 595 333 617 q 256 505 271 572 l 80 537 q 180 717 106 664 q 404 770 254 770 q 646 709 562 770 q 730 521 730 648 l 730 229 q 761 161 730 174 q 855 157 793 148 l 855 4 q 691 8 756 -18 q 606 117 626 33 l 572 117 q 462 26 533 64 q 304 -13 391 -13 m 417 856 q 239 903 307 856 q 170 1048 170 949 l 170 1088 q 239 1235 170 1187 q 417 1284 307 1284 q 595 1235 528 1284 q 663 1088 663 1187 l 663 1048 q 595 903 663 949 q 417 856 527 856 m 417 963 q 487 982 463 963 q 511 1048 511 1001 l 511 1088 q 487 1155 511 1134 q 417 1177 463 1177 q 346 1155 370 1177 q 322 1088 322 1134 l 322 1048 q 346 982 322 1001 q 417 963 370 963 z "},"ā":{"ha":884,"x_min":62,"x_max":855,"o":"m 356 126 q 445 141 403 126 q 524 183 487 155 l 524 306 l 350 306 q 283 287 307 306 q 259 212 259 268 q 282 148 259 170 q 356 126 304 126 m 304 -13 q 130 44 198 -13 q 62 207 62 101 q 134 367 62 312 q 326 423 207 423 l 524 423 l 524 515 q 492 594 524 571 q 398 617 460 617 q 302 595 333 617 q 256 505 271 572 l 80 537 q 180 717 106 664 q 404 770 254 770 q 646 709 562 770 q 730 521 730 648 l 730 229 q 761 161 730 174 q 855 157 793 148 l 855 4 q 691 8 756 -18 q 606 117 626 33 l 572 117 q 462 26 533 64 q 304 -13 391 -13 m 141 927 l 141 1093 l 692 1093 l 692 927 l 141 927 z "},"ă":{"ha":884,"x_min":62,"x_max":855,"o":"m 356 126 q 445 141 403 126 q 524 183 487 155 l 524 306 l 350 306 q 283 287 307 306 q 259 212 259 268 q 282 148 259 170 q 356 126 304 126 m 304 -13 q 130 44 198 -13 q 62 207 62 101 q 134 367 62 312 q 326 423 207 423 l 524 423 l 524 515 q 492 594 524 571 q 398 617 460 617 q 302 595 333 617 q 256 505 271 572 l 80 537 q 180 717 106 664 q 404 770 254 770 q 646 709 562 770 q 730 521 730 648 l 730 229 q 761 161 730 174 q 855 157 793 148 l 855 4 q 691 8 756 -18 q 606 117 626 33 l 572 117 q 462 26 533 64 q 304 -13 391 -13 m 417 875 q 177 945 260 875 q 92 1167 93 1015 l 271 1167 q 307 1045 273 1080 q 417 1010 341 1010 q 527 1045 492 1010 q 562 1167 561 1080 l 741 1167 q 657 945 740 1015 q 417 875 573 875 z "},"ą":{"ha":884,"x_min":62,"x_max":910,"o":"m 356 126 q 445 141 403 126 q 524 183 487 155 l 524 306 l 350 306 q 283 287 307 306 q 259 212 259 268 q 282 148 259 170 q 356 126 304 126 m 304 -13 q 130 44 198 -13 q 62 207 62 101 q 134 367 62 312 q 326 423 207 423 l 524 423 l 524 515 q 492 594 524 571 q 398 617 460 617 q 302 595 333 617 q 256 505 271 572 l 80 537 q 180 717 106 664 q 404 770 254 770 q 646 709 562 770 q 730 521 730 648 l 730 229 q 761 161 730 174 q 855 157 793 148 l 855 4 q 691 8 756 -18 q 606 117 626 33 l 572 117 q 462 26 533 64 q 304 -13 391 -13 m 759 -279 q 601 -239 660 -279 q 542 -121 542 -199 q 602 11 542 -44 q 731 86 662 66 l 765 29 q 711 -23 722 3 q 699 -73 699 -49 q 722 -122 699 -106 q 793 -139 745 -139 q 847 -136 816 -139 q 910 -126 879 -133 l 910 -264 q 832 -275 871 -271 q 759 -279 793 -279 z "},"ǻ":{"ha":884,"x_min":62,"x_max":855,"o":"m 356 126 q 445 141 403 126 q 524 183 487 155 l 524 306 l 350 306 q 283 287 307 306 q 259 212 259 268 q 282 148 259 170 q 356 126 304 126 m 304 -13 q 130 44 198 -13 q 62 207 62 101 q 134 367 62 312 q 326 423 207 423 l 524 423 l 524 515 q 492 594 524 571 q 398 617 460 617 q 302 595 333 617 q 256 505 271 572 l 80 537 q 180 717 106 664 q 404 770 254 770 q 646 709 562 770 q 730 521 730 648 l 730 229 q 761 161 730 174 q 855 157 793 148 l 855 4 q 691 8 756 -18 q 606 117 626 33 l 572 117 q 462 26 533 64 q 304 -13 391 -13 m 417 856 q 239 903 307 856 q 170 1048 170 949 l 170 1088 q 239 1235 170 1187 q 417 1284 307 1284 q 595 1235 528 1284 q 663 1088 663 1187 l 663 1048 q 595 903 663 949 q 417 856 527 856 m 417 963 q 487 982 463 963 q 511 1048 511 1001 l 511 1088 q 487 1155 511 1134 q 417 1177 463 1177 q 346 1155 370 1177 q 322 1088 322 1134 l 322 1048 q 346 982 322 1001 q 417 963 370 963 m 322 1263 l 467 1515 l 745 1515 l 472 1263 l 322 1263 z "},"b":{"ha":884,"x_min":91,"x_max":793,"o":"m 433 -9 q 258 15 346 -9 q 91 85 170 39 l 91 1010 l 306 1010 l 306 622 l 343 622 q 432 732 374 694 q 569 770 491 770 q 733 699 673 770 q 793 508 793 629 l 793 277 q 700 64 793 138 q 433 -9 607 -9 m 442 148 q 544 178 510 148 q 578 278 578 208 l 578 472 q 550 570 578 538 q 471 602 521 602 q 388 581 428 602 q 306 518 347 559 l 306 183 q 372 156 340 164 q 442 148 404 148 z "},"":{"ha":884,"x_min":91,"x_max":793,"o":"m 433 -9 q 258 15 346 -9 q 91 85 170 39 l 91 1010 l 306 1010 l 306 622 l 343 622 q 432 732 374 694 q 569 770 491 770 q 733 699 673 770 q 793 508 793 629 l 793 277 q 700 64 793 138 q 433 -9 607 -9 m 442 148 q 544 178 510 148 q 578 278 578 208 l 578 472 q 550 570 578 538 q 471 602 521 602 q 388 581 428 602 q 306 518 347 559 l 306 183 q 372 156 340 164 q 442 148 404 148 z "},"c":{"ha":884,"x_min":91,"x_max":798,"o":"m 456 -13 q 184 63 278 -13 q 91 283 91 139 l 91 477 q 185 694 91 619 q 455 770 279 770 q 701 698 620 770 q 798 492 782 625 l 591 476 q 552 580 585 549 q 448 611 519 611 q 339 578 372 611 q 306 465 306 544 l 306 292 q 340 179 306 212 q 451 145 374 145 q 554 171 521 145 q 591 256 586 197 l 798 240 q 713 53 789 119 q 456 -13 638 -13 z "},"ç":{"ha":884,"x_min":91,"x_max":798,"o":"m 456 -13 q 184 63 278 -13 q 91 283 91 139 l 91 477 q 185 694 91 619 q 455 770 279 770 q 701 698 620 770 q 798 492 782 625 l 591 476 q 552 580 585 549 q 448 611 519 611 q 339 578 372 611 q 306 465 306 544 l 306 292 q 340 179 306 212 q 451 145 374 145 q 554 171 521 145 q 591 256 586 197 l 798 240 q 713 53 789 119 q 456 -13 638 -13 m 443 0 l 468 53 q 624 8 561 43 q 687 -112 687 -28 q 611 -242 687 -203 q 441 -282 535 -282 q 261 -245 331 -282 q 186 -121 192 -208 l 367 -109 q 384 -142 370 -133 q 432 -152 399 -152 q 485 -138 467 -152 q 503 -81 503 -124 q 490 -27 503 -45 q 443 0 477 -9 z "},"ć":{"ha":884,"x_min":91,"x_max":798,"o":"m 456 -13 q 184 63 278 -13 q 91 283 91 139 l 91 477 q 185 694 91 619 q 455 770 279 770 q 701 698 620 770 q 798 492 782 625 l 591 476 q 552 580 585 549 q 448 611 519 611 q 339 578 372 611 q 306 465 306 544 l 306 292 q 340 179 306 212 q 451 145 374 145 q 554 171 521 145 q 591 256 586 197 l 798 240 q 713 53 789 119 q 456 -13 638 -13 m 323 884 l 468 1136 l 746 1136 l 473 884 l 323 884 z "},"ĉ":{"ha":884,"x_min":91,"x_max":798,"o":"m 456 -13 q 184 63 278 -13 q 91 283 91 139 l 91 477 q 185 694 91 619 q 455 770 279 770 q 701 698 620 770 q 798 492 782 625 l 591 476 q 552 580 585 549 q 448 611 519 611 q 339 578 372 611 q 306 465 306 544 l 306 292 q 340 179 306 212 q 451 145 374 145 q 554 171 521 145 q 591 256 586 197 l 798 240 q 713 53 789 119 q 456 -13 638 -13 m 212 871 l 143 970 l 371 1167 l 533 1167 l 764 970 l 696 872 l 452 1009 l 212 871 z "},"ċ":{"ha":884,"x_min":91,"x_max":798,"o":"m 456 -13 q 184 63 278 -13 q 91 283 91 139 l 91 477 q 185 694 91 619 q 455 770 279 770 q 701 698 620 770 q 798 492 782 625 l 591 476 q 552 580 585 549 q 448 611 519 611 q 339 578 372 611 q 306 465 306 544 l 306 292 q 340 179 306 212 q 451 145 374 145 q 554 171 521 145 q 591 256 586 197 l 798 240 q 713 53 789 119 q 456 -13 638 -13 m 449 879 q 345 898 385 879 q 304 967 304 918 l 304 984 q 345 1055 304 1034 q 449 1076 385 1076 q 554 1055 514 1076 q 595 984 595 1034 l 595 967 q 554 898 595 918 q 449 879 514 879 z "},"č":{"ha":884,"x_min":91,"x_max":798,"o":"m 456 -13 q 184 63 278 -13 q 91 283 91 139 l 91 477 q 185 694 91 619 q 455 770 279 770 q 701 698 620 770 q 798 492 782 625 l 591 476 q 552 580 585 549 q 448 611 519 611 q 339 578 372 611 q 306 465 306 544 l 306 292 q 340 179 306 212 q 451 145 374 145 q 554 171 521 145 q 591 256 586 197 l 798 240 q 713 53 789 119 q 456 -13 638 -13 m 370 889 l 139 1086 l 207 1183 l 451 1047 l 691 1184 l 760 1086 l 532 889 l 370 889 z "},"d":{"ha":884,"x_min":91,"x_max":793,"o":"m 413 157 q 496 177 456 157 q 578 240 537 198 l 578 574 q 513 601 548 591 q 442 611 479 611 q 340 578 374 611 q 306 480 306 545 l 306 285 q 334 188 306 220 q 413 157 362 157 m 540 135 q 451 26 510 64 q 314 -13 391 -13 q 148 62 206 -13 q 91 250 91 138 l 91 481 q 175 691 91 616 q 408 766 259 766 q 497 759 453 766 q 578 736 540 751 l 578 1010 l 793 1010 l 793 0 l 578 0 l 578 135 l 540 135 z "},"ď":{"ha":884,"x_min":91,"x_max":1229,"o":"m 413 157 q 496 177 456 157 q 578 240 537 198 l 578 574 q 513 601 548 591 q 442 611 479 611 q 340 578 374 611 q 306 480 306 545 l 306 285 q 334 188 306 220 q 413 157 362 157 m 540 135 q 451 26 510 64 q 314 -13 391 -13 q 148 62 206 -13 q 91 250 91 138 l 91 481 q 175 691 91 616 q 408 766 259 766 q 497 759 453 766 q 578 736 540 751 l 578 1010 l 793 1010 l 793 0 l 578 0 l 578 135 l 540 135 m 879 890 l 955 1263 l 1229 1263 l 1005 890 l 879 890 z "},"e":{"ha":884,"x_min":91,"x_max":806,"o":"m 806 176 q 684 28 761 69 q 446 -13 606 -13 q 191 60 292 -13 q 91 277 91 133 l 91 479 q 186 694 91 617 q 443 770 280 770 q 699 694 606 770 q 793 475 793 617 l 793 336 l 306 336 l 306 264 q 340 165 306 199 q 451 130 374 130 q 556 150 515 130 q 625 225 597 169 l 806 176 m 306 496 l 306 453 l 578 453 l 578 485 q 548 598 578 564 q 442 633 518 633 q 336 600 366 633 q 306 496 306 568 z "},"è":{"ha":884,"x_min":91,"x_max":806,"o":"m 806 176 q 684 28 761 69 q 446 -13 606 -13 q 191 60 292 -13 q 91 277 91 133 l 91 479 q 186 694 91 617 q 443 770 280 770 q 699 694 606 770 q 793 475 793 617 l 793 336 l 306 336 l 306 264 q 340 165 306 199 q 451 130 374 130 q 556 150 515 130 q 625 225 597 169 l 806 176 m 306 496 l 306 453 l 578 453 l 578 485 q 548 598 578 564 q 442 633 518 633 q 336 600 366 633 q 306 496 306 568 m 431 884 l 158 1136 l 436 1136 l 581 884 l 431 884 z "},"é":{"ha":884,"x_min":91,"x_max":806,"o":"m 806 176 q 684 28 761 69 q 446 -13 606 -13 q 191 60 292 -13 q 91 277 91 133 l 91 479 q 186 694 91 617 q 443 770 280 770 q 699 694 606 770 q 793 475 793 617 l 793 336 l 306 336 l 306 264 q 340 165 306 199 q 451 130 374 130 q 556 150 515 130 q 625 225 597 169 l 806 176 m 306 496 l 306 453 l 578 453 l 578 485 q 548 598 578 564 q 442 633 518 633 q 336 600 366 633 q 306 496 306 568 m 303 884 l 448 1136 l 726 1136 l 453 884 l 303 884 z "},"ê":{"ha":884,"x_min":91,"x_max":806,"o":"m 806 176 q 684 28 761 69 q 446 -13 606 -13 q 191 60 292 -13 q 91 277 91 133 l 91 479 q 186 694 91 617 q 443 770 280 770 q 699 694 606 770 q 793 475 793 617 l 793 336 l 306 336 l 306 264 q 340 165 306 199 q 451 130 374 130 q 556 150 515 130 q 625 225 597 169 l 806 176 m 306 496 l 306 453 l 578 453 l 578 485 q 548 598 578 564 q 442 633 518 633 q 336 600 366 633 q 306 496 306 568 m 206 871 l 136 970 l 365 1167 l 527 1167 l 758 970 l 689 872 l 446 1009 l 206 871 z "},"ë":{"ha":884,"x_min":91,"x_max":806,"o":"m 806 176 q 684 28 761 69 q 446 -13 606 -13 q 191 60 292 -13 q 91 277 91 133 l 91 479 q 186 694 91 617 q 443 770 280 770 q 699 694 606 770 q 793 475 793 617 l 793 336 l 306 336 l 306 264 q 340 165 306 199 q 451 130 374 130 q 556 150 515 130 q 625 225 597 169 l 806 176 m 306 496 l 306 453 l 578 453 l 578 485 q 548 598 578 564 q 442 633 518 633 q 336 600 366 633 q 306 496 306 568 m 288 879 q 208 898 239 879 q 177 967 177 918 l 177 984 q 208 1055 177 1034 q 288 1076 239 1076 q 369 1055 338 1076 q 400 984 400 1034 l 400 967 q 369 898 400 918 q 288 879 337 879 m 606 879 q 525 898 556 879 q 494 967 494 918 l 494 984 q 525 1055 494 1034 q 606 1076 556 1076 q 687 1055 657 1076 q 717 984 717 1034 l 717 967 q 686 898 717 918 q 606 879 654 879 z "},"ē":{"ha":884,"x_min":91,"x_max":806,"o":"m 806 176 q 684 28 761 69 q 446 -13 606 -13 q 191 60 292 -13 q 91 277 91 133 l 91 479 q 186 694 91 617 q 443 770 280 770 q 699 694 606 770 q 793 475 793 617 l 793 336 l 306 336 l 306 264 q 340 165 306 199 q 451 130 374 130 q 556 150 515 130 q 625 225 597 169 l 806 176 m 306 496 l 306 453 l 578 453 l 578 485 q 548 598 578 564 q 442 633 518 633 q 336 600 366 633 q 306 496 306 568 m 172 927 l 172 1093 l 722 1093 l 722 927 l 172 927 z "},"ĕ":{"ha":884,"x_min":91,"x_max":806,"o":"m 806 176 q 684 28 761 69 q 446 -13 606 -13 q 191 60 292 -13 q 91 277 91 133 l 91 479 q 186 694 91 617 q 443 770 280 770 q 699 694 606 770 q 793 475 793 617 l 793 336 l 306 336 l 306 264 q 340 165 306 199 q 451 130 374 130 q 556 150 515 130 q 625 225 597 169 l 806 176 m 306 496 l 306 453 l 578 453 l 578 485 q 548 598 578 564 q 442 633 518 633 q 336 600 366 633 q 306 496 306 568 m 438 875 q 198 945 282 875 q 114 1167 115 1015 l 293 1167 q 328 1045 294 1080 q 438 1010 362 1010 q 548 1045 514 1010 q 583 1167 582 1080 l 763 1167 q 678 945 761 1015 q 438 875 595 875 z "},"ė":{"ha":884,"x_min":91,"x_max":806,"o":"m 806 176 q 684 28 761 69 q 446 -13 606 -13 q 191 60 292 -13 q 91 277 91 133 l 91 479 q 186 694 91 617 q 443 770 280 770 q 699 694 606 770 q 793 475 793 617 l 793 336 l 306 336 l 306 264 q 340 165 306 199 q 451 130 374 130 q 556 150 515 130 q 625 225 597 169 l 806 176 m 306 496 l 306 453 l 578 453 l 578 485 q 548 598 578 564 q 442 633 518 633 q 336 600 366 633 q 306 496 306 568 m 447 879 q 342 898 383 879 q 302 967 302 918 l 302 984 q 342 1055 302 1034 q 447 1076 383 1076 q 552 1055 511 1076 q 592 984 592 1034 l 592 967 q 552 898 592 918 q 447 879 511 879 z "},"ę":{"ha":884,"x_min":91,"x_max":806,"o":"m 626 -279 q 468 -239 528 -279 q 409 -121 409 -199 q 469 11 409 -44 q 598 86 529 66 l 633 29 q 578 -23 590 3 q 567 -73 567 -49 q 590 -122 567 -106 q 660 -139 612 -139 q 715 -136 683 -139 q 778 -126 746 -133 l 778 -264 q 699 -275 739 -271 q 626 -279 660 -279 m 806 176 q 684 28 761 69 q 446 -13 606 -13 q 191 60 292 -13 q 91 277 91 133 l 91 479 q 186 694 91 617 q 443 770 280 770 q 699 694 606 770 q 793 475 793 617 l 793 336 l 306 336 l 306 264 q 340 165 306 199 q 451 130 374 130 q 556 150 515 130 q 625 225 597 169 l 806 176 m 306 496 l 306 453 l 578 453 l 578 485 q 548 598 578 564 q 442 633 518 633 q 336 600 366 633 q 306 496 306 568 z "},"ě":{"ha":884,"x_min":91,"x_max":806,"o":"m 806 176 q 684 28 761 69 q 446 -13 606 -13 q 191 60 292 -13 q 91 277 91 133 l 91 479 q 186 694 91 617 q 443 770 280 770 q 699 694 606 770 q 793 475 793 617 l 793 336 l 306 336 l 306 264 q 340 165 306 199 q 451 130 374 130 q 556 150 515 130 q 625 225 597 169 l 806 176 m 306 496 l 306 453 l 578 453 l 578 485 q 548 598 578 564 q 442 633 518 633 q 336 600 366 633 q 306 496 306 568 m 367 889 l 136 1086 l 205 1183 l 448 1047 l 688 1184 l 758 1086 l 529 889 l 367 889 z "},"f":{"ha":884,"x_min":83,"x_max":808,"o":"m 289 0 l 289 600 l 83 600 l 83 758 l 289 758 l 289 801 q 376 982 289 917 q 605 1048 462 1048 q 710 1040 659 1048 q 808 1018 761 1033 l 783 875 q 705 893 744 888 q 628 899 667 899 q 536 871 568 899 q 504 785 504 842 l 504 758 l 793 758 l 793 600 l 504 600 l 504 0 l 289 0 z "},"g":{"ha":884,"x_min":45,"x_max":838,"o":"m 838 -42 q 761 -205 838 -144 q 556 -265 683 -265 l 332 -265 q 119 -215 193 -265 q 45 -86 45 -165 q 84 15 45 -23 q 181 59 122 53 l 181 85 q 104 126 135 97 q 72 216 72 155 q 117 325 72 282 q 239 378 163 369 l 239 402 q 143 458 174 419 q 111 547 111 496 l 111 558 q 193 705 111 653 q 400 758 274 758 l 830 758 l 830 626 l 625 652 l 625 626 q 701 578 672 614 q 731 499 731 542 l 731 485 q 650 343 731 394 q 438 292 569 292 l 314 292 q 253 277 275 292 q 231 227 231 263 q 256 178 231 193 q 323 163 280 163 l 564 163 q 763 113 688 163 q 838 -42 838 63 m 422 400 q 508 424 480 400 q 535 490 535 447 l 535 545 q 508 609 535 586 q 422 631 480 631 q 336 609 364 631 q 308 545 308 586 l 308 490 q 335 424 308 447 q 422 400 361 400 m 333 -138 l 559 -138 q 634 -123 605 -138 q 663 -64 663 -109 q 634 -6 663 -20 q 563 9 606 9 l 250 9 l 250 -58 q 271 -117 250 -97 q 333 -138 292 -138 z "},"ĝ":{"ha":884,"x_min":45,"x_max":838,"o":"m 838 -42 q 761 -205 838 -144 q 556 -265 683 -265 l 332 -265 q 119 -215 193 -265 q 45 -86 45 -165 q 84 15 45 -23 q 181 59 122 53 l 181 85 q 104 126 135 97 q 72 216 72 155 q 117 325 72 282 q 239 378 163 369 l 239 402 q 143 458 174 419 q 111 547 111 496 l 111 558 q 193 705 111 653 q 400 758 274 758 l 830 758 l 830 626 l 625 652 l 625 626 q 701 578 672 614 q 731 499 731 542 l 731 485 q 650 343 731 394 q 438 292 569 292 l 314 292 q 253 277 275 292 q 231 227 231 263 q 256 178 231 193 q 323 163 280 163 l 564 163 q 763 113 688 163 q 838 -42 838 63 m 422 400 q 508 424 480 400 q 535 490 535 447 l 535 545 q 508 609 535 586 q 422 631 480 631 q 336 609 364 631 q 308 545 308 586 l 308 490 q 335 424 308 447 q 422 400 361 400 m 333 -138 l 559 -138 q 634 -123 605 -138 q 663 -64 663 -109 q 634 -6 663 -20 q 563 9 606 9 l 250 9 l 250 -58 q 271 -117 250 -97 q 333 -138 292 -138 m 206 871 l 136 970 l 365 1167 l 527 1167 l 758 970 l 689 872 l 446 1009 l 206 871 z "},"ğ":{"ha":884,"x_min":45,"x_max":838,"o":"m 838 -42 q 761 -205 838 -144 q 556 -265 683 -265 l 332 -265 q 119 -215 193 -265 q 45 -86 45 -165 q 84 15 45 -23 q 181 59 122 53 l 181 85 q 104 126 135 97 q 72 216 72 155 q 117 325 72 282 q 239 378 163 369 l 239 402 q 143 458 174 419 q 111 547 111 496 l 111 558 q 193 705 111 653 q 400 758 274 758 l 830 758 l 830 626 l 625 652 l 625 626 q 701 578 672 614 q 731 499 731 542 l 731 485 q 650 343 731 394 q 438 292 569 292 l 314 292 q 253 277 275 292 q 231 227 231 263 q 256 178 231 193 q 323 163 280 163 l 564 163 q 763 113 688 163 q 838 -42 838 63 m 422 400 q 508 424 480 400 q 535 490 535 447 l 535 545 q 508 609 535 586 q 422 631 480 631 q 336 609 364 631 q 308 545 308 586 l 308 490 q 335 424 308 447 q 422 400 361 400 m 333 -138 l 559 -138 q 634 -123 605 -138 q 663 -64 663 -109 q 634 -6 663 -20 q 563 9 606 9 l 250 9 l 250 -58 q 271 -117 250 -97 q 333 -138 292 -138 m 442 875 q 202 945 285 875 q 117 1167 119 1015 l 297 1167 q 332 1045 298 1080 q 442 1010 366 1010 q 552 1045 518 1010 q 587 1167 586 1080 l 766 1167 q 682 945 765 1015 q 442 875 598 875 z "},"ġ":{"ha":884,"x_min":45,"x_max":838,"o":"m 838 -42 q 761 -205 838 -144 q 556 -265 683 -265 l 332 -265 q 119 -215 193 -265 q 45 -86 45 -165 q 84 15 45 -23 q 181 59 122 53 l 181 85 q 104 126 135 97 q 72 216 72 155 q 117 325 72 282 q 239 378 163 369 l 239 402 q 143 458 174 419 q 111 547 111 496 l 111 558 q 193 705 111 653 q 400 758 274 758 l 830 758 l 830 626 l 625 652 l 625 626 q 701 578 672 614 q 731 499 731 542 l 731 485 q 650 343 731 394 q 438 292 569 292 l 314 292 q 253 277 275 292 q 231 227 231 263 q 256 178 231 193 q 323 163 280 163 l 564 163 q 763 113 688 163 q 838 -42 838 63 m 422 400 q 508 424 480 400 q 535 490 535 447 l 535 545 q 508 609 535 586 q 422 631 480 631 q 336 609 364 631 q 308 545 308 586 l 308 490 q 335 424 308 447 q 422 400 361 400 m 333 -138 l 559 -138 q 634 -123 605 -138 q 663 -64 663 -109 q 634 -6 663 -20 q 563 9 606 9 l 250 9 l 250 -58 q 271 -117 250 -97 q 333 -138 292 -138 m 442 879 q 337 898 378 879 q 297 967 297 918 l 297 984 q 337 1055 297 1034 q 442 1076 378 1076 q 547 1055 506 1076 q 587 984 587 1034 l 587 967 q 547 898 587 918 q 442 879 506 879 z "},"ģ":{"ha":884,"x_min":45,"x_max":838,"o":"m 838 -42 q 761 -205 838 -144 q 556 -265 683 -265 l 332 -265 q 119 -215 193 -265 q 45 -86 45 -165 q 84 15 45 -23 q 181 59 122 53 l 181 85 q 104 126 135 97 q 72 216 72 155 q 117 325 72 282 q 239 378 163 369 l 239 402 q 143 458 174 419 q 111 547 111 496 l 111 558 q 193 705 111 653 q 400 758 274 758 l 830 758 l 830 626 l 625 652 l 625 626 q 701 578 672 614 q 731 499 731 542 l 731 485 q 650 343 731 394 q 438 292 569 292 l 314 292 q 253 277 275 292 q 231 227 231 263 q 256 178 231 193 q 323 163 280 163 l 564 163 q 763 113 688 163 q 838 -42 838 63 m 422 400 q 508 424 480 400 q 535 490 535 447 l 535 545 q 508 609 535 586 q 422 631 480 631 q 336 609 364 631 q 308 545 308 586 l 308 490 q 335 424 308 447 q 422 400 361 400 m 333 -138 l 559 -138 q 634 -123 605 -138 q 663 -64 663 -109 q 634 -6 663 -20 q 563 9 606 9 l 250 9 l 250 -58 q 271 -117 250 -97 q 333 -138 292 -138 m 288 884 l 510 1136 l 660 1136 l 566 884 l 288 884 z "},"h":{"ha":884,"x_min":91,"x_max":793,"o":"m 91 0 l 91 1010 l 306 1010 l 306 622 l 343 622 q 434 731 374 692 q 572 770 495 770 q 733 706 673 770 q 793 533 793 641 l 793 0 l 578 0 l 578 476 q 553 570 578 538 q 481 602 528 602 q 393 571 438 602 q 306 486 347 540 l 306 0 l 91 0 z "},"ĥ":{"ha":884,"x_min":-112,"x_max":793,"o":"m 91 0 l 91 1010 l 306 1010 l 306 622 l 343 622 q 434 731 374 692 q 572 770 495 770 q 733 706 673 770 q 793 533 793 641 l 793 0 l 578 0 l 578 476 q 553 570 578 538 q 481 602 528 602 q 393 571 438 602 q 306 486 347 540 l 306 0 l 91 0 m -43 1124 l -112 1222 l 116 1419 l 278 1419 l 509 1222 l 441 1125 l 197 1261 l -43 1124 z "},"i":{"ha":884,"x_min":100,"x_max":784,"o":"m 100 0 l 100 158 l 335 158 l 335 600 l 100 600 l 100 758 l 549 758 l 549 158 l 784 158 l 784 0 l 100 0 m 452 879 q 347 898 388 879 q 307 967 307 918 l 307 984 q 347 1055 307 1034 q 452 1076 388 1076 q 557 1055 516 1076 q 597 984 597 1034 l 597 967 q 557 898 597 918 q 452 879 516 879 z "},"ì":{"ha":884,"x_min":100,"x_max":784,"o":"m 100 0 l 100 158 l 335 158 l 335 600 l 100 600 l 100 758 l 549 758 l 549 158 l 784 158 l 784 0 l 100 0 m 443 884 l 170 1136 l 448 1136 l 593 884 l 443 884 z "},"í":{"ha":884,"x_min":100,"x_max":784,"o":"m 100 0 l 100 158 l 335 158 l 335 600 l 100 600 l 100 758 l 549 758 l 549 158 l 784 158 l 784 0 l 100 0 m 280 884 l 426 1136 l 703 1136 l 431 884 l 280 884 z "},"î":{"ha":884,"x_min":100,"x_max":784,"o":"m 100 0 l 100 158 l 335 158 l 335 600 l 100 600 l 100 758 l 549 758 l 549 158 l 784 158 l 784 0 l 100 0 m 201 871 l 131 970 l 360 1167 l 521 1167 l 753 970 l 684 872 l 441 1009 l 201 871 z "},"ï":{"ha":884,"x_min":100,"x_max":784,"o":"m 100 0 l 100 158 l 335 158 l 335 600 l 100 600 l 100 758 l 549 758 l 549 158 l 784 158 l 784 0 l 100 0 m 283 879 q 203 898 234 879 q 172 967 172 918 l 172 984 q 203 1055 172 1034 q 283 1076 234 1076 q 364 1055 333 1076 q 395 984 395 1034 l 395 967 q 364 898 395 918 q 283 879 332 879 m 601 879 q 520 898 551 879 q 489 967 489 918 l 489 984 q 520 1055 489 1034 q 601 1076 551 1076 q 682 1055 652 1076 q 712 984 712 1034 l 712 967 q 681 898 712 918 q 601 879 649 879 z "},"ĩ":{"ha":884,"x_min":100,"x_max":784,"o":"m 100 0 l 100 158 l 335 158 l 335 600 l 100 600 l 100 758 l 549 758 l 549 158 l 784 158 l 784 0 l 100 0 m 557 896 q 469 917 501 896 q 415 960 437 937 q 377 1003 395 984 q 335 1023 359 1023 q 297 1003 313 1023 q 282 922 280 984 l 282 909 l 140 909 l 140 928 q 190 1098 140 1030 q 328 1167 240 1167 q 419 1147 386 1167 q 472 1104 451 1128 q 511 1059 494 1080 q 551 1039 529 1039 q 588 1059 572 1039 q 604 1141 605 1078 l 604 1153 l 745 1153 l 745 1134 q 695 965 745 1033 q 557 896 645 896 z "},"ī":{"ha":884,"x_min":100,"x_max":784,"o":"m 100 0 l 100 158 l 335 158 l 335 600 l 100 600 l 100 758 l 549 758 l 549 158 l 784 158 l 784 0 l 100 0 m 167 927 l 167 1093 l 717 1093 l 717 927 l 167 927 z "},"ĭ":{"ha":884,"x_min":100,"x_max":784,"o":"m 100 0 l 100 158 l 335 158 l 335 600 l 100 600 l 100 758 l 549 758 l 549 158 l 784 158 l 784 0 l 100 0 m 442 875 q 202 945 285 875 q 117 1167 119 1015 l 297 1167 q 332 1045 298 1080 q 442 1010 366 1010 q 552 1045 518 1010 q 587 1167 586 1080 l 766 1167 q 682 945 765 1015 q 442 875 598 875 z "},"į":{"ha":884,"x_min":100,"x_max":784,"o":"m 452 879 q 347 898 388 879 q 307 967 307 918 l 307 984 q 347 1055 307 1034 q 452 1076 388 1076 q 557 1055 516 1076 q 597 984 597 1034 l 597 967 q 557 898 597 918 q 452 879 516 879 m 100 0 l 100 158 l 335 158 l 335 600 l 100 600 l 100 758 l 549 758 l 549 158 l 784 158 l 784 0 l 100 0 m 537 -279 q 379 -239 438 -279 q 319 -121 319 -199 q 379 11 319 -44 q 509 86 439 66 l 543 29 q 489 -23 500 3 q 477 -73 477 -49 q 500 -122 477 -106 q 571 -139 523 -139 q 625 -136 593 -139 q 688 -126 657 -133 l 688 -264 q 610 -275 649 -271 q 537 -279 571 -279 z "},"j":{"ha":884,"x_min":83,"x_max":694,"o":"m 308 -264 q 196 -258 253 -264 q 83 -236 139 -253 l 109 -88 q 201 -109 158 -104 q 284 -114 245 -114 q 407 -83 362 -114 q 452 16 452 -53 l 452 600 l 126 600 l 126 758 l 667 758 l 667 -4 q 569 -196 667 -129 q 308 -264 472 -264 m 549 879 q 444 898 485 879 q 404 967 404 918 l 404 984 q 444 1055 404 1034 q 549 1076 485 1076 q 654 1055 614 1076 q 694 984 694 1034 l 694 967 q 654 898 694 918 q 549 879 614 879 z "},"ĵ":{"ha":884,"x_min":83,"x_max":826,"o":"m 308 -264 q 196 -258 253 -264 q 83 -236 139 -253 l 109 -88 q 201 -109 158 -104 q 284 -114 245 -114 q 407 -83 362 -114 q 452 16 452 -53 l 452 600 l 126 600 l 126 758 l 667 758 l 667 -4 q 569 -196 667 -129 q 308 -264 472 -264 m 274 871 l 205 970 l 433 1167 l 595 1167 l 826 970 l 758 872 l 514 1009 l 274 871 z "},"k":{"ha":884,"x_min":119,"x_max":821,"o":"m 333 319 l 333 0 l 119 0 l 119 1010 l 333 1010 l 333 467 l 385 467 l 593 758 l 821 758 l 563 414 l 817 0 l 586 0 l 385 319 l 333 319 z "},"ķ":{"ha":884,"x_min":119,"x_max":821,"o":"m 333 319 l 333 0 l 119 0 l 119 1010 l 333 1010 l 333 467 l 385 467 l 593 758 l 821 758 l 563 414 l 817 0 l 586 0 l 385 319 l 333 319 m 264 -379 l 359 -126 l 636 -126 l 414 -379 l 264 -379 z "},"l":{"ha":884,"x_min":109,"x_max":802,"o":"m 109 0 l 109 158 l 352 158 l 352 852 l 109 852 l 109 1010 l 567 1010 l 567 158 l 802 158 l 802 0 l 109 0 z "},"ĺ":{"ha":884,"x_min":109,"x_max":802,"o":"m 109 0 l 109 158 l 352 158 l 352 852 l 109 852 l 109 1010 l 567 1010 l 567 158 l 802 158 l 802 0 l 109 0 m 282 1136 l 427 1389 l 705 1389 l 432 1136 l 282 1136 z "},"ļ":{"ha":884,"x_min":109,"x_max":802,"o":"m 109 0 l 109 158 l 352 158 l 352 852 l 109 852 l 109 1010 l 567 1010 l 567 158 l 802 158 l 802 0 l 109 0 m 223 -379 l 318 -126 l 596 -126 l 374 -379 l 223 -379 z "},"ľ":{"ha":884,"x_min":109,"x_max":1020,"o":"m 109 0 l 109 158 l 352 158 l 352 852 l 109 852 l 109 1010 l 567 1010 l 567 158 l 802 158 l 802 0 l 109 0 m 670 890 l 746 1263 l 1020 1263 l 797 890 l 670 890 z "},"m":{"ha":884,"x_min":56,"x_max":828,"o":"m 234 538 l 234 0 l 56 0 l 56 758 l 232 758 l 232 657 l 266 657 q 324 738 290 710 q 402 766 359 766 q 477 739 444 766 q 523 657 510 711 l 556 657 q 616 738 577 710 q 706 766 655 766 q 795 718 763 766 q 828 588 828 669 l 828 0 l 650 0 l 650 552 q 641 608 650 588 q 614 628 631 628 q 572 604 595 628 q 529 538 549 581 l 529 0 l 355 0 l 355 552 q 345 608 355 588 q 317 628 335 628 q 276 604 298 628 q 234 538 254 581 z "},"n":{"ha":884,"x_min":91,"x_max":793,"o":"m 91 0 l 91 758 l 306 758 l 306 622 l 343 622 q 436 731 372 692 q 581 770 499 770 q 737 707 681 770 q 793 533 793 644 l 793 0 l 578 0 l 578 494 q 553 574 578 547 q 481 602 528 602 q 391 577 438 602 q 306 504 343 552 l 306 0 l 91 0 z "},"ñ":{"ha":884,"x_min":91,"x_max":793,"o":"m 91 0 l 91 758 l 306 758 l 306 622 l 343 622 q 436 731 372 692 q 581 770 499 770 q 737 707 681 770 q 793 533 793 644 l 793 0 l 578 0 l 578 494 q 553 574 578 547 q 481 602 528 602 q 391 577 438 602 q 306 504 343 552 l 306 0 l 91 0 m 582 896 q 494 917 527 896 q 441 960 462 937 q 402 1003 420 984 q 360 1023 384 1023 q 322 1003 338 1023 q 307 922 306 984 l 307 909 l 165 909 l 165 928 q 215 1098 165 1030 q 354 1167 265 1167 q 444 1147 412 1167 q 497 1104 476 1128 q 537 1059 519 1080 q 576 1039 554 1039 q 614 1059 597 1039 q 629 1141 630 1078 l 629 1153 l 770 1153 l 770 1134 q 720 965 770 1033 q 582 896 670 896 z "},"ń":{"ha":884,"x_min":91,"x_max":793,"o":"m 91 0 l 91 758 l 306 758 l 306 622 l 343 622 q 436 731 372 692 q 581 770 499 770 q 737 707 681 770 q 793 533 793 644 l 793 0 l 578 0 l 578 494 q 553 574 578 547 q 481 602 528 602 q 391 577 438 602 q 306 504 343 552 l 306 0 l 91 0 m 306 884 l 451 1136 l 729 1136 l 456 884 l 306 884 z "},"ņ":{"ha":884,"x_min":91,"x_max":793,"o":"m 246 -379 l 341 -126 l 619 -126 l 396 -379 l 246 -379 m 91 0 l 91 758 l 306 758 l 306 622 l 343 622 q 436 731 372 692 q 581 770 499 770 q 737 707 681 770 q 793 533 793 644 l 793 0 l 578 0 l 578 494 q 553 574 578 547 q 481 602 528 602 q 391 577 438 602 q 306 504 343 552 l 306 0 l 91 0 z "},"ň":{"ha":884,"x_min":91,"x_max":793,"o":"m 91 0 l 91 758 l 306 758 l 306 622 l 343 622 q 436 731 372 692 q 581 770 499 770 q 737 707 681 770 q 793 533 793 644 l 793 0 l 578 0 l 578 494 q 553 574 578 547 q 481 602 528 602 q 391 577 438 602 q 306 504 343 552 l 306 0 l 91 0 m 388 889 l 157 1086 l 225 1183 l 468 1047 l 708 1184 l 778 1086 l 549 889 l 388 889 z "},"o":{"ha":884,"x_min":91,"x_max":793,"o":"m 442 -13 q 184 63 277 -13 q 91 274 91 139 l 91 479 q 184 693 91 616 q 443 770 277 770 q 701 692 609 770 q 793 475 793 614 l 793 270 q 700 62 793 136 q 442 -13 607 -13 m 442 145 q 545 178 513 145 q 578 283 578 211 l 578 471 q 545 578 578 544 q 442 612 513 612 q 338 578 371 612 q 306 472 306 544 l 306 288 q 338 179 306 213 q 442 145 371 145 z "},"ò":{"ha":884,"x_min":91,"x_max":793,"o":"m 442 -13 q 184 63 277 -13 q 91 274 91 139 l 91 479 q 184 693 91 616 q 443 770 277 770 q 701 692 609 770 q 793 475 793 614 l 793 270 q 700 62 793 136 q 442 -13 607 -13 m 442 145 q 545 178 513 145 q 578 283 578 211 l 578 471 q 545 578 578 544 q 442 612 513 612 q 338 578 371 612 q 306 472 306 544 l 306 288 q 338 179 306 213 q 442 145 371 145 m 426 884 l 153 1136 l 431 1136 l 576 884 l 426 884 z "},"ó":{"ha":884,"x_min":91,"x_max":793,"o":"m 442 -13 q 184 63 277 -13 q 91 274 91 139 l 91 479 q 184 693 91 616 q 443 770 277 770 q 701 692 609 770 q 793 475 793 614 l 793 270 q 700 62 793 136 q 442 -13 607 -13 m 442 145 q 545 178 513 145 q 578 283 578 211 l 578 471 q 545 578 578 544 q 442 612 513 612 q 338 578 371 612 q 306 472 306 544 l 306 288 q 338 179 306 213 q 442 145 371 145 m 280 884 l 426 1136 l 703 1136 l 431 884 l 280 884 z "},"ô":{"ha":884,"x_min":91,"x_max":793,"o":"m 442 -13 q 184 63 277 -13 q 91 274 91 139 l 91 479 q 184 693 91 616 q 443 770 277 770 q 701 692 609 770 q 793 475 793 614 l 793 270 q 700 62 793 136 q 442 -13 607 -13 m 442 145 q 545 178 513 145 q 578 283 578 211 l 578 471 q 545 578 578 544 q 442 612 513 612 q 338 578 371 612 q 306 472 306 544 l 306 288 q 338 179 306 213 q 442 145 371 145 m 201 871 l 131 970 l 360 1167 l 521 1167 l 753 970 l 684 872 l 441 1009 l 201 871 z "},"õ":{"ha":884,"x_min":91,"x_max":793,"o":"m 442 -13 q 184 63 277 -13 q 91 274 91 139 l 91 479 q 184 693 91 616 q 443 770 277 770 q 701 692 609 770 q 793 475 793 614 l 793 270 q 700 62 793 136 q 442 -13 607 -13 m 442 145 q 545 178 513 145 q 578 283 578 211 l 578 471 q 545 578 578 544 q 442 612 513 612 q 338 578 371 612 q 306 472 306 544 l 306 288 q 338 179 306 213 q 442 145 371 145 m 557 896 q 469 917 501 896 q 415 960 437 937 q 377 1003 395 984 q 335 1023 359 1023 q 297 1003 313 1023 q 282 922 280 984 l 282 909 l 140 909 l 140 928 q 190 1098 140 1030 q 328 1167 240 1167 q 419 1147 386 1167 q 472 1104 451 1128 q 511 1059 494 1080 q 551 1039 529 1039 q 588 1059 572 1039 q 604 1141 605 1078 l 604 1153 l 745 1153 l 745 1134 q 695 965 745 1033 q 557 896 645 896 z "},"ö":{"ha":884,"x_min":91,"x_max":793,"o":"m 442 -13 q 184 63 277 -13 q 91 274 91 139 l 91 479 q 184 693 91 616 q 443 770 277 770 q 701 692 609 770 q 793 475 793 614 l 793 270 q 700 62 793 136 q 442 -13 607 -13 m 442 145 q 545 178 513 145 q 578 283 578 211 l 578 471 q 545 578 578 544 q 442 612 513 612 q 338 578 371 612 q 306 472 306 544 l 306 288 q 338 179 306 213 q 442 145 371 145 m 283 879 q 203 898 234 879 q 172 967 172 918 l 172 984 q 203 1055 172 1034 q 283 1076 234 1076 q 364 1055 333 1076 q 395 984 395 1034 l 395 967 q 364 898 395 918 q 283 879 332 879 m 601 879 q 520 898 551 879 q 489 967 489 918 l 489 984 q 520 1055 489 1034 q 601 1076 551 1076 q 682 1055 652 1076 q 712 984 712 1034 l 712 967 q 681 898 712 918 q 601 879 649 879 z "},"ō":{"ha":884,"x_min":91,"x_max":793,"o":"m 442 -13 q 184 63 277 -13 q 91 274 91 139 l 91 479 q 184 693 91 616 q 443 770 277 770 q 701 692 609 770 q 793 475 793 614 l 793 270 q 700 62 793 136 q 442 -13 607 -13 m 442 145 q 545 178 513 145 q 578 283 578 211 l 578 471 q 545 578 578 544 q 442 612 513 612 q 338 578 371 612 q 306 472 306 544 l 306 288 q 338 179 306 213 q 442 145 371 145 m 167 927 l 167 1093 l 717 1093 l 717 927 l 167 927 z "},"ŏ":{"ha":884,"x_min":91,"x_max":793,"o":"m 442 -13 q 184 63 277 -13 q 91 274 91 139 l 91 479 q 184 693 91 616 q 443 770 277 770 q 701 692 609 770 q 793 475 793 614 l 793 270 q 700 62 793 136 q 442 -13 607 -13 m 442 145 q 545 178 513 145 q 578 283 578 211 l 578 471 q 545 578 578 544 q 442 612 513 612 q 338 578 371 612 q 306 472 306 544 l 306 288 q 338 179 306 213 q 442 145 371 145 m 451 875 q 211 945 294 875 q 126 1167 128 1015 l 306 1167 q 341 1045 307 1080 q 451 1010 375 1010 q 561 1045 527 1010 q 596 1167 595 1080 l 775 1167 q 691 945 774 1015 q 451 875 607 875 z "},"ő":{"ha":884,"x_min":91,"x_max":793,"o":"m 442 -13 q 184 63 277 -13 q 91 274 91 139 l 91 479 q 184 693 91 616 q 443 770 277 770 q 701 692 609 770 q 793 475 793 614 l 793 270 q 700 62 793 136 q 442 -13 607 -13 m 442 145 q 545 178 513 145 q 578 283 578 211 l 578 471 q 545 578 578 544 q 442 612 513 612 q 338 578 371 612 q 306 472 306 544 l 306 288 q 338 179 306 213 q 442 145 371 145 m 504 884 l 566 1136 l 787 1136 l 620 884 l 504 884 m 213 884 l 275 1136 l 496 1136 l 330 884 l 213 884 z "},"p":{"ha":884,"x_min":91,"x_max":793,"o":"m 442 148 q 544 178 510 148 q 578 278 578 208 l 578 473 q 551 571 578 539 q 471 602 523 602 q 388 581 427 602 q 306 518 348 561 l 306 184 q 369 157 338 165 q 442 148 400 148 m 476 -9 q 388 -1 433 -9 q 306 21 343 6 l 306 -253 l 91 -253 l 91 758 l 306 758 l 306 622 l 343 622 q 433 730 372 691 q 569 770 494 770 q 732 699 672 770 q 793 508 793 629 l 793 277 q 708 68 793 145 q 476 -9 622 -9 z "},"q":{"ha":884,"x_min":91,"x_max":793,"o":"m 578 -253 l 578 135 l 540 135 q 458 30 514 73 q 314 -13 402 -13 q 148 62 205 -13 q 91 250 91 136 l 91 481 q 187 693 91 619 q 451 766 283 766 q 634 747 537 766 q 793 693 732 729 l 793 -253 l 578 -253 m 413 157 q 496 177 456 157 q 578 240 535 197 l 578 574 q 518 601 551 591 q 442 611 485 611 q 343 580 380 611 q 306 480 306 549 l 306 289 q 334 189 306 221 q 413 157 362 157 z "},"r":{"ha":884,"x_min":128,"x_max":804,"o":"m 128 0 l 128 758 l 342 758 l 342 622 l 380 622 q 467 735 408 701 q 606 770 525 770 q 753 714 701 770 q 804 556 804 658 l 804 423 l 609 423 l 609 491 q 585 573 609 544 q 506 602 562 602 q 416 580 458 602 q 342 504 374 557 l 342 0 l 128 0 z "},"ŕ":{"ha":884,"x_min":128,"x_max":804,"o":"m 128 0 l 128 758 l 342 758 l 342 622 l 380 622 q 467 735 408 701 q 606 770 525 770 q 753 714 701 770 q 804 556 804 658 l 804 423 l 609 423 l 609 491 q 585 573 609 544 q 506 602 562 602 q 416 580 458 602 q 342 504 374 557 l 342 0 l 128 0 m 318 884 l 463 1136 l 741 1136 l 468 884 l 318 884 z "},"ŗ":{"ha":884,"x_min":40,"x_max":804,"o":"m 128 0 l 128 758 l 342 758 l 342 622 l 380 622 q 467 735 408 701 q 606 770 525 770 q 753 714 701 770 q 804 556 804 658 l 804 423 l 609 423 l 609 491 q 585 573 609 544 q 506 602 562 602 q 416 580 458 602 q 342 504 374 557 l 342 0 l 128 0 m 40 -379 l 135 -126 l 413 -126 l 191 -379 l 40 -379 z "},"ř":{"ha":884,"x_min":128,"x_max":804,"o":"m 128 0 l 128 758 l 342 758 l 342 622 l 380 622 q 467 735 408 701 q 606 770 525 770 q 753 714 701 770 q 804 556 804 658 l 804 423 l 609 423 l 609 491 q 585 573 609 544 q 506 602 562 602 q 416 580 458 602 q 342 504 374 557 l 342 0 l 128 0 m 400 889 l 169 1086 l 237 1183 l 481 1047 l 721 1184 l 790 1086 l 562 889 l 400 889 z "},"s":{"ha":884,"x_min":83,"x_max":790,"o":"m 446 -9 q 251 18 347 -9 q 83 93 155 44 l 140 229 q 295 157 212 182 q 451 133 379 133 q 543 151 509 133 q 577 212 577 169 q 544 276 577 256 q 427 304 510 295 q 191 368 273 321 q 109 525 109 415 q 197 705 109 640 q 427 770 285 770 q 593 746 508 770 q 747 677 678 721 l 699 548 q 564 608 631 587 q 434 629 496 629 q 352 610 383 629 q 322 551 322 591 q 363 489 322 506 q 500 460 404 472 q 719 389 648 442 q 790 235 790 336 q 697 55 790 119 q 446 -9 604 -9 z "},"":{"ha":884,"x_min":83,"x_max":790,"o":"m 446 -9 q 251 18 347 -9 q 83 93 155 44 l 140 229 q 295 157 212 182 q 451 133 379 133 q 543 151 509 133 q 577 212 577 169 q 544 276 577 256 q 427 304 510 295 q 191 368 273 321 q 109 525 109 415 q 197 705 109 640 q 427 770 285 770 q 593 746 508 770 q 747 677 678 721 l 699 548 q 564 608 631 587 q 434 629 496 629 q 352 610 383 629 q 322 551 322 591 q 363 489 322 506 q 500 460 404 472 q 719 389 648 442 q 790 235 790 336 q 697 55 790 119 q 446 -9 604 -9 z "},"ś":{"ha":884,"x_min":83,"x_max":790,"o":"m 446 -9 q 251 18 347 -9 q 83 93 155 44 l 140 229 q 295 157 212 182 q 451 133 379 133 q 543 151 509 133 q 577 212 577 169 q 544 276 577 256 q 427 304 510 295 q 191 368 273 321 q 109 525 109 415 q 197 705 109 640 q 427 770 285 770 q 593 746 508 770 q 747 677 678 721 l 699 548 q 564 608 631 587 q 434 629 496 629 q 352 610 383 629 q 322 551 322 591 q 363 489 322 506 q 500 460 404 472 q 719 389 648 442 q 790 235 790 336 q 697 55 790 119 q 446 -9 604 -9 m 287 884 l 432 1136 l 710 1136 l 437 884 l 287 884 z "},"ŝ":{"ha":884,"x_min":83,"x_max":790,"o":"m 446 -9 q 251 18 347 -9 q 83 93 155 44 l 140 229 q 295 157 212 182 q 451 133 379 133 q 543 151 509 133 q 577 212 577 169 q 544 276 577 256 q 427 304 510 295 q 191 368 273 321 q 109 525 109 415 q 197 705 109 640 q 427 770 285 770 q 593 746 508 770 q 747 677 678 721 l 699 548 q 564 608 631 587 q 434 629 496 629 q 352 610 383 629 q 322 551 322 591 q 363 489 322 506 q 500 460 404 472 q 719 389 648 442 q 790 235 790 336 q 697 55 790 119 q 446 -9 604 -9 m 198 871 l 129 970 l 357 1167 l 519 1167 l 750 970 l 682 872 l 438 1009 l 198 871 z "},"ş":{"ha":884,"x_min":83,"x_max":790,"o":"m 446 -9 q 251 18 347 -9 q 83 93 155 44 l 140 229 q 295 157 212 182 q 451 133 379 133 q 543 151 509 133 q 577 212 577 169 q 544 276 577 256 q 427 304 510 295 q 191 368 273 321 q 109 525 109 415 q 197 705 109 640 q 427 770 285 770 q 593 746 508 770 q 747 677 678 721 l 699 548 q 564 608 631 587 q 434 629 496 629 q 352 610 383 629 q 322 551 322 591 q 363 489 322 506 q 500 460 404 472 q 719 389 648 442 q 790 235 790 336 q 697 55 790 119 q 446 -9 604 -9 m 393 0 l 418 53 q 573 8 510 43 q 636 -112 636 -28 q 561 -242 636 -203 q 390 -282 485 -282 q 211 -245 280 -282 q 135 -121 141 -208 l 317 -109 q 334 -142 319 -133 q 381 -152 348 -152 q 434 -138 417 -152 q 452 -81 452 -124 q 439 -27 452 -45 q 393 0 427 -9 z "},"š":{"ha":884,"x_min":83,"x_max":790,"o":"m 446 -9 q 251 18 347 -9 q 83 93 155 44 l 140 229 q 295 157 212 182 q 451 133 379 133 q 543 151 509 133 q 577 212 577 169 q 544 276 577 256 q 427 304 510 295 q 191 368 273 321 q 109 525 109 415 q 197 705 109 640 q 427 770 285 770 q 593 746 508 770 q 747 677 678 721 l 699 548 q 564 608 631 587 q 434 629 496 629 q 352 610 383 629 q 322 551 322 591 q 363 489 322 506 q 500 460 404 472 q 719 389 648 442 q 790 235 790 336 q 697 55 790 119 q 446 -9 604 -9 m 360 889 l 129 1086 l 197 1183 l 441 1047 l 681 1184 l 750 1086 l 521 889 l 360 889 z "},"ș":{"ha":884,"x_min":83,"x_max":790,"o":"m 446 -9 q 251 18 347 -9 q 83 93 155 44 l 140 229 q 295 157 212 182 q 451 133 379 133 q 543 151 509 133 q 577 212 577 169 q 544 276 577 256 q 427 304 510 295 q 191 368 273 321 q 109 525 109 415 q 197 705 109 640 q 427 770 285 770 q 593 746 508 770 q 747 677 678 721 l 699 548 q 564 608 631 587 q 434 629 496 629 q 352 610 383 629 q 322 551 322 591 q 363 489 322 506 q 500 460 404 472 q 719 389 648 442 q 790 235 790 336 q 697 55 790 119 q 446 -9 604 -9 m 230 -379 l 324 -126 l 602 -126 l 380 -379 l 230 -379 z "},"t":{"ha":884,"x_min":80,"x_max":787,"o":"m 577 -13 q 348 56 429 -13 q 268 256 268 125 l 268 600 l 80 600 l 80 758 l 268 758 l 268 1010 l 482 1010 l 482 758 l 775 758 l 775 600 l 482 600 l 482 284 q 515 180 482 212 q 606 148 548 148 q 681 153 641 148 q 761 173 721 158 l 787 18 q 701 -4 756 5 q 577 -13 645 -13 z "},"ţ":{"ha":884,"x_min":80,"x_max":787,"o":"m 577 -13 q 348 56 429 -13 q 268 256 268 125 l 268 600 l 80 600 l 80 758 l 268 758 l 268 1010 l 482 1010 l 482 758 l 775 758 l 775 600 l 482 600 l 482 284 q 515 180 482 212 q 606 148 548 148 q 681 153 641 148 q 761 173 721 158 l 787 18 q 701 -4 756 5 q 577 -13 645 -13 m 467 0 l 492 53 q 648 8 585 43 q 711 -112 711 -28 q 635 -242 711 -203 q 465 -282 559 -282 q 285 -245 355 -282 q 210 -121 216 -208 l 391 -109 q 408 -142 394 -133 q 456 -152 423 -152 q 509 -138 491 -152 q 527 -81 527 -124 q 514 -27 527 -45 q 467 0 501 -9 z "},"ť":{"ha":884,"x_min":80,"x_max":953,"o":"m 577 -13 q 348 56 429 -13 q 268 256 268 125 l 268 600 l 80 600 l 80 758 l 268 758 l 268 1010 l 482 1010 l 482 758 l 775 758 l 775 600 l 482 600 l 482 284 q 515 180 482 212 q 606 148 548 148 q 681 153 641 148 q 761 173 721 158 l 787 18 q 701 -4 756 5 q 577 -13 645 -13 m 604 890 l 679 1263 l 953 1263 l 730 890 l 604 890 z "},"ț":{"ha":884,"x_min":80,"x_max":787,"o":"m 577 -13 q 348 56 429 -13 q 268 256 268 125 l 268 600 l 80 600 l 80 758 l 268 758 l 268 1010 l 482 1010 l 482 758 l 775 758 l 775 600 l 482 600 l 482 284 q 515 180 482 212 q 606 148 548 148 q 681 153 641 148 q 761 173 721 158 l 787 18 q 701 -4 756 5 q 577 -13 645 -13 m 273 -379 l 367 -126 l 645 -126 l 423 -379 l 273 -379 z "},"u":{"ha":884,"x_min":91,"x_max":793,"o":"m 312 -13 q 155 49 218 -13 q 91 225 91 111 l 91 758 l 306 758 l 306 282 q 331 188 306 220 q 403 157 356 157 q 492 187 447 157 q 578 271 537 217 l 578 758 l 793 758 l 793 0 l 578 0 l 578 135 l 540 135 q 443 23 509 59 q 312 -13 376 -13 z "},"ù":{"ha":884,"x_min":91,"x_max":793,"o":"m 312 -13 q 155 49 218 -13 q 91 225 91 111 l 91 758 l 306 758 l 306 282 q 331 188 306 220 q 403 157 356 157 q 492 187 447 157 q 578 271 537 217 l 578 758 l 793 758 l 793 0 l 578 0 l 578 135 l 540 135 q 443 23 509 59 q 312 -13 376 -13 m 423 884 l 150 1136 l 428 1136 l 573 884 l 423 884 z "},"ú":{"ha":884,"x_min":91,"x_max":793,"o":"m 312 -13 q 155 49 218 -13 q 91 225 91 111 l 91 758 l 306 758 l 306 282 q 331 188 306 220 q 403 157 356 157 q 492 187 447 157 q 578 271 537 217 l 578 758 l 793 758 l 793 0 l 578 0 l 578 135 l 540 135 q 443 23 509 59 q 312 -13 376 -13 m 340 884 l 485 1136 l 763 1136 l 490 884 l 340 884 z "},"û":{"ha":884,"x_min":91,"x_max":793,"o":"m 312 -13 q 155 49 218 -13 q 91 225 91 111 l 91 758 l 306 758 l 306 282 q 331 188 306 220 q 403 157 356 157 q 492 187 447 157 q 578 271 537 217 l 578 758 l 793 758 l 793 0 l 578 0 l 578 135 l 540 135 q 443 23 509 59 q 312 -13 376 -13 m 210 871 l 140 970 l 369 1167 l 530 1167 l 761 970 l 693 872 l 449 1009 l 210 871 z "},"ü":{"ha":884,"x_min":91,"x_max":793,"o":"m 312 -13 q 155 49 218 -13 q 91 225 91 111 l 91 758 l 306 758 l 306 282 q 331 188 306 220 q 403 157 356 157 q 492 187 447 157 q 578 271 537 217 l 578 758 l 793 758 l 793 0 l 578 0 l 578 135 l 540 135 q 443 23 509 59 q 312 -13 376 -13 m 292 879 q 211 898 242 879 q 181 967 181 918 l 181 984 q 211 1055 181 1034 q 292 1076 242 1076 q 373 1055 342 1076 q 404 984 404 1034 l 404 967 q 372 898 404 918 q 292 879 341 879 m 610 879 q 528 898 559 879 q 497 967 497 918 l 497 984 q 528 1055 497 1034 q 610 1076 559 1076 q 691 1055 660 1076 q 721 984 721 1034 l 721 967 q 689 898 721 918 q 610 879 658 879 z "},"ũ":{"ha":884,"x_min":91,"x_max":793,"o":"m 312 -13 q 155 49 218 -13 q 91 225 91 111 l 91 758 l 306 758 l 306 282 q 331 188 306 220 q 403 157 356 157 q 492 187 447 157 q 578 271 537 217 l 578 758 l 793 758 l 793 0 l 578 0 l 578 135 l 540 135 q 443 23 509 59 q 312 -13 376 -13 m 557 896 q 469 917 501 896 q 415 960 437 937 q 377 1003 395 984 q 335 1023 359 1023 q 297 1003 313 1023 q 282 922 280 984 l 282 909 l 140 909 l 140 928 q 190 1098 140 1030 q 328 1167 240 1167 q 419 1147 386 1167 q 472 1104 451 1128 q 511 1059 494 1080 q 551 1039 529 1039 q 588 1059 572 1039 q 604 1141 605 1078 l 604 1153 l 745 1153 l 745 1134 q 695 965 745 1033 q 557 896 645 896 z "},"ū":{"ha":884,"x_min":91,"x_max":793,"o":"m 312 -13 q 155 49 218 -13 q 91 225 91 111 l 91 758 l 306 758 l 306 282 q 331 188 306 220 q 403 157 356 157 q 492 187 447 157 q 578 271 537 217 l 578 758 l 793 758 l 793 0 l 578 0 l 578 135 l 540 135 q 443 23 509 59 q 312 -13 376 -13 m 167 927 l 167 1093 l 717 1093 l 717 927 l 167 927 z "},"ŭ":{"ha":884,"x_min":91,"x_max":793,"o":"m 312 -13 q 155 49 218 -13 q 91 225 91 111 l 91 758 l 306 758 l 306 282 q 331 188 306 220 q 403 157 356 157 q 492 187 447 157 q 578 271 537 217 l 578 758 l 793 758 l 793 0 l 578 0 l 578 135 l 540 135 q 443 23 509 59 q 312 -13 376 -13 m 451 875 q 211 945 294 875 q 126 1167 128 1015 l 306 1167 q 341 1045 307 1080 q 451 1010 375 1010 q 561 1045 527 1010 q 596 1167 595 1080 l 775 1167 q 691 945 774 1015 q 451 875 607 875 z "},"ů":{"ha":884,"x_min":91,"x_max":793,"o":"m 312 -13 q 155 49 218 -13 q 91 225 91 111 l 91 758 l 306 758 l 306 282 q 331 188 306 220 q 403 157 356 157 q 492 187 447 157 q 578 271 537 217 l 578 758 l 793 758 l 793 0 l 578 0 l 578 135 l 540 135 q 443 23 509 59 q 312 -13 376 -13 m 451 856 q 273 903 341 856 q 205 1048 205 949 l 205 1088 q 273 1235 205 1187 q 451 1284 341 1284 q 629 1235 562 1284 q 697 1088 697 1187 l 697 1048 q 629 903 697 949 q 451 856 561 856 m 451 963 q 521 982 497 963 q 545 1048 545 1001 l 545 1088 q 521 1155 545 1134 q 451 1177 497 1177 q 380 1155 404 1177 q 356 1088 356 1134 l 356 1048 q 380 982 356 1001 q 451 963 404 963 z "},"ű":{"ha":884,"x_min":91,"x_max":794,"o":"m 312 -13 q 155 49 218 -13 q 91 225 91 111 l 91 758 l 306 758 l 306 282 q 331 188 306 220 q 403 157 356 157 q 492 187 447 157 q 578 271 537 217 l 578 758 l 793 758 l 793 0 l 578 0 l 578 135 l 540 135 q 443 23 509 59 q 312 -13 376 -13 m 511 884 l 573 1136 l 794 1136 l 628 884 l 511 884 m 221 884 l 283 1136 l 504 1136 l 337 884 l 221 884 z "},"ų":{"ha":884,"x_min":91,"x_max":874,"o":"m 722 -279 q 564 -239 624 -279 q 505 -121 505 -199 q 565 11 505 -44 q 694 86 625 66 l 729 29 q 674 -23 686 3 q 663 -73 663 -49 q 686 -122 663 -106 q 756 -139 708 -139 q 811 -136 779 -139 q 874 -126 842 -133 l 874 -264 q 795 -275 835 -271 q 722 -279 756 -279 m 312 -13 q 155 49 218 -13 q 91 225 91 111 l 91 758 l 306 758 l 306 282 q 331 188 306 220 q 403 157 356 157 q 492 187 447 157 q 578 271 537 217 l 578 758 l 793 758 l 793 0 l 578 0 l 578 135 l 540 135 q 443 23 509 59 q 312 -13 376 -13 z "},"v":{"ha":884,"x_min":67,"x_max":816,"o":"m 582 0 l 301 0 l 67 758 l 274 758 l 446 167 l 616 758 l 816 758 l 582 0 z "},"w":{"ha":884,"x_min":23,"x_max":861,"o":"m 544 0 l 442 400 l 345 0 l 148 0 l 23 758 l 208 758 l 279 215 l 366 622 l 513 622 l 609 227 l 676 758 l 861 758 l 736 0 l 544 0 z "},"":{"ha":884,"x_min":23,"x_max":861,"o":"m 544 0 l 442 400 l 345 0 l 148 0 l 23 758 l 208 758 l 279 215 l 366 622 l 513 622 l 609 227 l 676 758 l 861 758 l 736 0 l 544 0 z "},"ŵ":{"ha":884,"x_min":23,"x_max":861,"o":"m 544 0 l 442 400 l 345 0 l 148 0 l 23 758 l 208 758 l 279 215 l 366 622 l 513 622 l 609 227 l 676 758 l 861 758 l 736 0 l 544 0 m 210 871 l 140 970 l 369 1167 l 530 1167 l 761 970 l 693 872 l 449 1009 l 210 871 z "},"ẁ":{"ha":884,"x_min":23,"x_max":861,"o":"m 544 0 l 442 400 l 345 0 l 148 0 l 23 758 l 208 758 l 279 215 l 366 622 l 513 622 l 609 227 l 676 758 l 861 758 l 736 0 l 544 0 m 426 884 l 153 1136 l 431 1136 l 576 884 l 426 884 z "},"ẃ":{"ha":884,"x_min":23,"x_max":861,"o":"m 544 0 l 442 400 l 345 0 l 148 0 l 23 758 l 208 758 l 279 215 l 366 622 l 513 622 l 609 227 l 676 758 l 861 758 l 736 0 l 544 0 m 324 884 l 470 1136 l 747 1136 l 475 884 l 324 884 z "},"ẅ":{"ha":884,"x_min":23,"x_max":861,"o":"m 544 0 l 442 400 l 345 0 l 148 0 l 23 758 l 208 758 l 279 215 l 366 622 l 513 622 l 609 227 l 676 758 l 861 758 l 736 0 l 544 0 m 292 879 q 211 898 242 879 q 181 967 181 918 l 181 984 q 211 1055 181 1034 q 292 1076 242 1076 q 373 1055 342 1076 q 404 984 404 1034 l 404 967 q 372 898 404 918 q 292 879 341 879 m 610 879 q 528 898 559 879 q 497 967 497 918 l 497 984 q 528 1055 497 1034 q 610 1076 559 1076 q 691 1055 660 1076 q 721 984 721 1034 l 721 967 q 689 898 721 918 q 610 879 658 879 z "},"x":{"ha":884,"x_min":64,"x_max":817,"o":"m 596 0 l 432 244 l 280 0 l 64 0 l 336 385 l 82 758 l 301 758 l 449 538 l 586 758 l 802 758 l 549 393 l 817 0 l 596 0 z "},"y":{"ha":884,"x_min":49,"x_max":833,"o":"m 237 -265 q 155 -261 198 -265 q 62 -251 112 -258 l 77 -93 q 164 -107 126 -102 q 231 -112 202 -112 q 336 -83 299 -112 q 398 27 374 -53 l 400 35 l 274 35 l 49 758 l 270 758 l 441 169 l 621 758 l 833 758 l 587 6 q 458 -205 538 -144 q 237 -265 379 -265 z "},"":{"ha":884,"x_min":49,"x_max":833,"o":"m 237 -265 q 155 -261 198 -265 q 62 -251 112 -258 l 77 -93 q 164 -107 126 -102 q 231 -112 202 -112 q 336 -83 299 -112 q 398 27 374 -53 l 400 35 l 274 35 l 49 758 l 270 758 l 441 169 l 621 758 l 833 758 l 587 6 q 458 -205 538 -144 q 237 -265 379 -265 z "},"ý":{"ha":884,"x_min":49,"x_max":833,"o":"m 237 -265 q 155 -261 198 -265 q 62 -251 112 -258 l 77 -93 q 164 -107 126 -102 q 231 -112 202 -112 q 336 -83 299 -112 q 398 27 374 -53 l 400 35 l 274 35 l 49 758 l 270 758 l 441 169 l 621 758 l 833 758 l 587 6 q 458 -205 538 -144 q 237 -265 379 -265 m 280 884 l 426 1136 l 703 1136 l 431 884 l 280 884 z "},"ÿ":{"ha":884,"x_min":49,"x_max":833,"o":"m 237 -265 q 155 -261 198 -265 q 62 -251 112 -258 l 77 -93 q 164 -107 126 -102 q 231 -112 202 -112 q 336 -83 299 -112 q 398 27 374 -53 l 400 35 l 274 35 l 49 758 l 270 758 l 441 169 l 621 758 l 833 758 l 587 6 q 458 -205 538 -144 q 237 -265 379 -265 m 283 879 q 203 898 234 879 q 172 967 172 918 l 172 984 q 203 1055 172 1034 q 283 1076 234 1076 q 364 1055 333 1076 q 395 984 395 1034 l 395 967 q 364 898 395 918 q 283 879 332 879 m 601 879 q 520 898 551 879 q 489 967 489 918 l 489 984 q 520 1055 489 1034 q 601 1076 551 1076 q 682 1055 652 1076 q 712 984 712 1034 l 712 967 q 681 898 712 918 q 601 879 649 879 z "},"ŷ":{"ha":884,"x_min":49,"x_max":833,"o":"m 237 -265 q 155 -261 198 -265 q 62 -251 112 -258 l 77 -93 q 164 -107 126 -102 q 231 -112 202 -112 q 336 -83 299 -112 q 398 27 374 -53 l 400 35 l 274 35 l 49 758 l 270 758 l 441 169 l 621 758 l 833 758 l 587 6 q 458 -205 538 -144 q 237 -265 379 -265 m 201 871 l 131 970 l 360 1167 l 521 1167 l 753 970 l 684 872 l 441 1009 l 201 871 z "},"ỳ":{"ha":884,"x_min":49,"x_max":833,"o":"m 237 -265 q 155 -261 198 -265 q 62 -251 112 -258 l 77 -93 q 164 -107 126 -102 q 231 -112 202 -112 q 336 -83 299 -112 q 398 27 374 -53 l 400 35 l 274 35 l 49 758 l 270 758 l 441 169 l 621 758 l 833 758 l 587 6 q 458 -205 538 -144 q 237 -265 379 -265 m 426 884 l 153 1136 l 431 1136 l 576 884 l 426 884 z "},"z":{"ha":884,"x_min":107,"x_max":777,"o":"m 777 0 l 107 0 l 107 158 l 547 600 l 107 600 l 107 758 l 777 758 l 777 600 l 338 158 l 777 158 l 777 0 z "},"ź":{"ha":884,"x_min":107,"x_max":777,"o":"m 777 0 l 107 0 l 107 158 l 547 600 l 107 600 l 107 758 l 777 758 l 777 600 l 338 158 l 777 158 l 777 0 m 324 884 l 470 1136 l 747 1136 l 475 884 l 324 884 z "},"ż":{"ha":884,"x_min":107,"x_max":777,"o":"m 777 0 l 107 0 l 107 158 l 547 600 l 107 600 l 107 758 l 777 758 l 777 600 l 338 158 l 777 158 l 777 0 m 433 879 q 328 898 369 879 q 288 967 288 918 l 288 984 q 328 1055 288 1034 q 433 1076 369 1076 q 538 1055 497 1076 q 578 984 578 1034 l 578 967 q 538 898 578 918 q 433 879 497 879 z "},"ž":{"ha":884,"x_min":107,"x_max":777,"o":"m 777 0 l 107 0 l 107 158 l 547 600 l 107 600 l 107 758 l 777 758 l 777 600 l 338 158 l 777 158 l 777 0 m 362 889 l 131 1086 l 199 1183 l 443 1047 l 683 1184 l 753 1086 l 524 889 l 362 889 z "},"ª":{"ha":884,"x_min":98,"x_max":824,"o":"m 365 490 q 446 502 407 490 q 516 539 485 514 l 516 633 l 359 633 q 296 617 318 633 q 274 558 274 602 q 295 508 274 525 q 365 490 316 490 m 324 371 q 171 414 244 371 q 98 547 98 456 q 164 686 98 639 q 338 734 230 734 l 516 734 l 516 790 q 488 870 516 846 q 405 894 460 894 q 324 876 354 894 q 279 801 295 857 l 115 828 q 205 977 135 932 q 409 1023 274 1023 q 621 971 544 1023 q 698 795 698 919 l 698 592 q 730 521 698 534 q 824 516 761 509 l 824 385 q 680 384 741 369 q 593 476 619 400 l 564 476 q 468 402 533 432 q 324 371 403 371 z "},"º":{"ha":884,"x_min":135,"x_max":749,"o":"m 442 371 q 223 431 311 371 q 135 612 135 490 l 135 778 q 223 962 135 902 q 443 1023 312 1023 q 662 962 574 1023 q 749 778 749 902 l 749 612 q 661 431 749 490 q 442 371 573 371 m 442 506 q 537 534 509 506 q 566 624 566 562 l 566 774 q 537 859 566 831 q 442 888 509 888 q 347 859 375 888 q 318 773 318 830 l 318 624 q 347 534 318 562 q 442 506 375 506 z "},"ß":{"ha":884,"x_min":54,"x_max":850,"o":"m 578 -8 q 443 15 514 -8 q 326 80 372 38 l 384 207 q 473 148 427 169 q 567 128 519 128 q 635 145 607 128 q 663 201 663 163 q 635 255 663 237 q 515 302 607 273 q 381 378 424 328 q 337 501 337 428 q 394 652 337 593 q 548 722 451 710 q 501 832 543 801 q 403 864 460 864 q 304 826 348 864 q 260 702 260 789 l 260 0 l 54 0 l 54 720 q 149 943 54 866 q 404 1020 244 1020 q 652 931 558 1020 q 746 703 746 842 l 746 619 q 574 599 625 620 q 524 535 524 578 q 559 477 524 496 q 682 428 595 458 q 809 350 769 400 q 850 222 850 301 q 771 53 850 114 q 578 -8 693 -8 z "},"æ":{"ha":884,"x_min":29,"x_max":855,"o":"m 855 189 q 774 39 832 90 q 620 -13 716 -13 q 508 16 556 -13 q 434 101 461 44 l 400 101 q 335 18 380 49 q 226 -13 290 -13 q 85 42 140 -13 q 29 199 29 96 q 91 367 29 311 q 253 423 153 423 l 374 423 l 374 506 q 354 595 374 568 q 294 621 335 621 q 239 599 256 621 q 202 513 222 577 l 47 544 q 129 715 72 659 q 284 770 186 770 q 383 748 341 770 q 449 676 426 726 q 527 746 480 722 q 631 770 574 770 q 792 701 730 770 q 855 487 855 631 l 855 336 l 537 336 l 537 251 q 554 158 537 191 q 612 126 572 126 q 669 147 649 126 q 699 215 689 168 l 855 189 m 537 510 l 537 449 l 697 449 l 697 504 q 678 605 697 574 q 619 636 659 636 q 558 607 580 636 q 537 510 537 577 m 374 176 l 374 309 l 294 309 q 228 288 251 309 q 205 212 205 266 q 221 146 205 169 q 273 122 237 122 q 324 137 301 122 q 374 176 348 152 z "},"ǽ":{"ha":884,"x_min":29,"x_max":855,"o":"m 855 189 q 774 39 832 90 q 620 -13 716 -13 q 508 16 556 -13 q 434 101 461 44 l 400 101 q 335 18 380 49 q 226 -13 290 -13 q 85 42 140 -13 q 29 199 29 96 q 91 367 29 311 q 253 423 153 423 l 374 423 l 374 506 q 354 595 374 568 q 294 621 335 621 q 239 599 256 621 q 202 513 222 577 l 47 544 q 129 715 72 659 q 284 770 186 770 q 383 748 341 770 q 449 676 426 726 q 527 746 480 722 q 631 770 574 770 q 792 701 730 770 q 855 487 855 631 l 855 336 l 537 336 l 537 251 q 554 158 537 191 q 612 126 572 126 q 669 147 649 126 q 699 215 689 168 l 855 189 m 537 510 l 537 449 l 697 449 l 697 504 q 678 605 697 574 q 619 636 659 636 q 558 607 580 636 q 537 510 537 577 m 374 176 l 374 309 l 294 309 q 228 288 251 309 q 205 212 205 266 q 221 146 205 169 q 273 122 237 122 q 324 137 301 122 q 374 176 348 152 m 379 884 l 524 1136 l 802 1136 l 529 884 l 379 884 z "},"ð":{"ha":884,"x_min":82,"x_max":802,"o":"m 442 -13 q 181 61 280 -13 q 82 287 82 135 l 82 360 q 162 558 82 485 q 370 631 242 631 q 500 604 449 631 q 571 538 551 576 l 597 538 q 564 674 591 617 q 487 770 537 730 l 271 673 l 271 792 l 369 835 q 285 867 331 852 q 184 896 239 883 l 306 1037 q 455 988 388 1015 q 573 928 521 961 l 777 1019 l 777 900 l 669 852 q 770 688 737 783 q 802 467 802 592 l 802 294 q 703 61 802 134 q 442 -13 604 -13 m 443 145 q 554 177 521 145 q 587 275 587 210 l 587 355 q 554 443 587 414 q 443 472 521 472 q 331 443 364 472 q 299 355 299 414 l 299 275 q 331 177 299 210 q 443 145 364 145 z "},"ø":{"ha":884,"x_min":82,"x_max":802,"o":"m 279 288 q 284 234 279 258 q 299 193 289 211 l 509 614 q 478 619 495 617 q 442 621 461 621 q 316 583 354 621 q 279 472 279 545 l 279 288 m 442 136 q 568 172 530 136 q 605 288 605 208 l 605 475 q 600 525 605 503 q 585 563 595 547 l 374 143 q 406 138 389 140 q 442 136 423 136 m 442 -13 q 382 -9 413 -13 q 324 -1 351 -6 l 261 -126 l 117 -126 l 203 45 q 114 141 146 81 q 82 274 82 201 l 82 479 q 179 694 82 617 q 443 770 277 770 q 502 767 471 770 q 559 759 533 764 l 622 884 l 766 884 l 681 712 q 770 616 737 677 q 802 479 802 554 l 802 274 q 705 62 802 136 q 442 -13 607 -13 z "},"ǿ":{"ha":884,"x_min":82,"x_max":802,"o":"m 279 288 q 284 234 279 258 q 299 193 289 211 l 509 614 q 478 619 495 617 q 442 621 461 621 q 316 583 354 621 q 279 472 279 545 l 279 288 m 442 136 q 568 172 530 136 q 605 288 605 208 l 605 475 q 600 525 605 503 q 585 563 595 547 l 374 143 q 406 138 389 140 q 442 136 423 136 m 442 -13 q 382 -9 413 -13 q 324 -1 351 -6 l 261 -126 l 117 -126 l 203 45 q 114 141 146 81 q 82 274 82 201 l 82 479 q 179 694 82 617 q 443 770 277 770 q 502 767 471 770 q 559 759 533 764 l 622 884 l 766 884 l 681 712 q 770 616 737 677 q 802 479 802 554 l 802 274 q 705 62 802 136 q 442 -13 607 -13 m 324 884 l 470 1136 l 747 1136 l 475 884 l 324 884 z "},"þ":{"ha":884,"x_min":91,"x_max":793,"o":"m 442 148 q 544 179 510 148 q 578 278 578 210 l 578 473 q 550 571 578 539 q 471 602 521 602 q 388 581 428 602 q 306 518 348 561 l 306 184 q 371 157 340 165 q 442 148 402 148 m 476 -9 q 386 -1 431 -9 q 306 21 342 8 l 306 -253 l 91 -253 l 91 1010 l 306 1010 l 306 622 l 343 622 q 432 731 372 692 q 569 770 492 770 q 732 699 672 770 q 793 508 793 628 l 793 277 q 708 68 793 145 q 476 -9 622 -9 z "},"đ":{"ha":884,"x_min":91,"x_max":919,"o":"m 413 157 q 496 177 456 157 q 578 240 535 198 l 578 491 q 508 521 543 511 q 433 530 473 530 q 339 499 371 530 q 307 399 307 468 l 307 289 q 335 189 307 221 q 413 157 362 157 m 540 135 q 458 31 514 74 q 314 -13 402 -13 q 149 64 207 -13 q 91 250 91 140 l 91 400 q 176 609 91 532 q 408 686 261 686 q 497 677 453 686 q 578 654 540 669 l 578 769 l 361 769 l 361 888 l 578 888 l 578 1010 l 793 1010 l 793 888 l 919 888 l 919 769 l 793 769 l 793 0 l 578 0 l 578 135 l 540 135 z "},"ħ":{"ha":884,"x_min":-35,"x_max":793,"o":"m 306 405 l 306 0 l 91 0 l 91 769 l -35 769 l -35 888 l 91 888 l 91 1010 l 306 1010 l 306 888 l 523 888 l 523 769 l 306 769 l 306 542 l 343 542 q 435 650 372 610 q 574 689 497 689 q 732 626 672 689 q 793 461 793 563 l 793 0 l 578 0 l 578 403 q 553 491 578 461 q 481 521 528 521 q 392 491 437 521 q 306 405 347 460 z "},"ı":{"ha":884,"x_min":100,"x_max":784,"o":"m 100 0 l 100 158 l 335 158 l 335 600 l 100 600 l 100 758 l 549 758 l 549 158 l 784 158 l 784 0 l 100 0 z "},"ĳ":{"ha":884,"x_min":53,"x_max":821,"o":"m 189 879 q 90 898 128 879 q 53 967 53 918 l 53 984 q 90 1055 53 1034 q 189 1076 128 1076 q 289 1055 251 1076 q 326 984 326 1034 l 326 967 q 287 898 326 918 q 189 879 249 879 m 683 879 q 585 898 622 879 q 547 967 547 918 l 547 984 q 585 1055 547 1034 q 683 1076 622 1076 q 783 1055 745 1076 q 821 984 821 1034 l 821 967 q 782 898 821 918 q 683 879 744 879 m 295 0 l 98 0 l 98 758 l 295 758 l 295 0 m 485 -264 q 390 -258 438 -264 q 294 -236 342 -251 l 319 -88 q 395 -107 360 -101 q 461 -114 429 -114 q 559 -83 523 -114 q 595 16 595 -53 l 595 600 l 432 600 l 432 758 l 792 758 l 792 -4 q 708 -196 792 -129 q 485 -264 624 -264 z "},"ĸ":{"ha":884,"x_min":119,"x_max":821,"o":"m 333 319 l 333 0 l 119 0 l 119 758 l 333 758 l 333 467 l 385 467 l 593 758 l 821 758 l 563 414 l 817 0 l 586 0 l 385 319 l 333 319 z "},"ŀ":{"ha":884,"x_min":109,"x_max":1023,"o":"m 109 0 l 109 158 l 352 158 l 352 852 l 109 852 l 109 1010 l 567 1010 l 567 158 l 802 158 l 802 0 l 109 0 m 878 409 q 773 429 813 409 q 732 497 732 448 l 732 514 q 773 585 732 564 q 878 606 813 606 q 982 585 942 606 q 1023 514 1023 564 l 1023 497 q 982 429 1023 448 q 878 409 942 409 z "},"ł":{"ha":884,"x_min":109,"x_max":802,"o":"m 109 0 l 109 158 l 352 158 l 352 418 l 154 365 l 154 501 l 352 554 l 352 852 l 109 852 l 109 1010 l 567 1010 l 567 612 l 703 649 l 703 513 l 567 476 l 567 158 l 802 158 l 802 0 l 109 0 z "},"ŉ":{"ha":884,"x_min":-35,"x_max":793,"o":"m 91 0 l 91 758 l 306 758 l 306 622 l 343 622 q 436 731 372 692 q 581 770 499 770 q 737 707 681 770 q 793 533 793 644 l 793 0 l 578 0 l 578 494 q 553 574 578 547 q 481 602 528 602 q 391 577 438 602 q 306 504 343 552 l 306 0 l 91 0 m -35 884 l 110 1136 l 388 1136 l 115 884 l -35 884 z "},"ŋ":{"ha":884,"x_min":91,"x_max":793,"o":"m 503 -264 q 418 -256 461 -264 q 333 -236 375 -249 l 359 -88 q 422 -107 393 -100 q 479 -114 452 -114 q 552 -83 525 -114 q 578 16 578 -53 l 578 501 q 553 577 578 552 q 481 602 528 602 q 391 578 437 602 q 306 504 345 553 l 306 0 l 91 0 l 91 758 l 306 758 l 306 622 l 343 622 q 443 734 376 698 q 582 770 510 770 q 736 711 679 770 q 793 542 793 652 l 793 -4 q 706 -202 793 -140 q 503 -264 619 -264 z "},"œ":{"ha":884,"x_min":44,"x_max":848,"o":"m 848 186 q 773 31 830 74 q 619 -13 717 -13 q 511 10 559 -13 q 434 77 462 33 q 364 9 407 32 q 268 -13 321 -13 q 107 49 170 -13 q 44 239 44 111 l 44 514 q 108 707 44 644 q 269 770 172 770 q 364 748 321 770 q 433 681 407 726 q 509 748 462 726 q 612 770 556 770 q 775 710 711 770 q 840 523 840 649 l 840 336 l 527 336 l 527 216 q 545 149 527 172 q 602 126 563 126 q 669 141 643 126 q 699 211 694 157 l 848 186 m 527 545 l 527 449 l 662 449 l 662 534 q 646 612 662 588 q 593 636 631 636 q 542 615 558 636 q 527 545 527 593 m 289 141 q 340 167 324 141 q 356 253 356 193 l 356 510 q 340 590 356 563 q 289 616 324 616 q 238 589 254 616 q 222 508 222 562 l 222 253 q 238 167 222 193 q 289 141 254 141 z "},"ŧ":{"ha":884,"x_min":80,"x_max":787,"o":"m 577 -13 q 348 56 429 -13 q 268 256 268 125 l 268 327 l 112 327 l 112 467 l 268 467 l 268 600 l 80 600 l 80 758 l 268 758 l 268 1010 l 482 1010 l 482 758 l 775 758 l 775 600 l 482 600 l 482 467 l 746 467 l 746 327 l 482 327 l 482 284 q 515 180 482 212 q 606 148 548 148 q 681 153 641 148 q 761 173 721 158 l 787 18 q 701 -4 756 5 q 577 -13 645 -13 z "},"ſ":{"ha":884,"x_min":183,"x_max":813,"o":"m 335 0 l 335 600 l 183 600 l 183 758 l 335 758 l 335 801 q 416 983 335 918 q 635 1048 497 1048 q 725 1040 678 1048 q 813 1018 773 1032 l 788 875 q 722 893 754 886 q 662 899 691 899 q 580 873 610 899 q 549 785 549 847 l 549 0 l 335 0 z "},"ȷ":{"ha":884,"x_min":83,"x_max":667,"o":"m 308 -264 q 196 -258 253 -264 q 83 -236 139 -253 l 109 -88 q 201 -109 158 -104 q 284 -114 245 -114 q 407 -83 362 -114 q 452 16 452 -53 l 452 600 l 126 600 l 126 758 l 667 758 l 667 -4 q 569 -196 667 -129 q 308 -264 472 -264 z "},"":{"ha":884,"x_min":83,"x_max":667,"o":"m 308 -264 q 196 -258 253 -264 q 83 -236 139 -253 l 109 -88 q 201 -109 158 -104 q 284 -114 245 -114 q 407 -83 362 -114 q 452 16 452 -53 l 452 600 l 126 600 l 126 758 l 667 758 l 667 -4 q 569 -196 667 -129 q 308 -264 472 -264 z "},"α":{"ha":884,"x_min":87,"x_max":846,"o":"m 396 157 q 467 179 433 157 q 532 241 500 201 l 532 519 q 465 581 497 558 q 393 604 432 604 q 327 571 351 604 q 303 471 303 538 l 303 283 q 328 186 303 216 q 396 157 352 157 m 601 158 l 563 158 q 464 32 528 76 q 316 -11 400 -11 q 149 59 211 -11 q 87 251 87 129 l 87 490 q 146 693 87 615 q 298 771 206 771 q 414 735 366 771 q 494 624 462 698 l 532 624 l 532 758 l 746 758 l 746 246 q 769 167 746 184 q 846 157 792 149 l 846 4 q 681 17 740 -19 q 601 158 621 53 z "},"ά":{"ha":884,"x_min":87,"x_max":846,"o":"m 396 157 q 467 179 433 157 q 532 241 500 201 l 532 519 q 465 581 497 558 q 393 604 432 604 q 327 571 351 604 q 303 471 303 538 l 303 283 q 328 186 303 216 q 396 157 352 157 m 601 158 l 563 158 q 464 32 528 76 q 316 -11 400 -11 q 149 59 211 -11 q 87 251 87 129 l 87 490 q 146 693 87 615 q 298 771 206 771 q 414 735 366 771 q 494 624 462 698 l 532 624 l 532 758 l 746 758 l 746 246 q 769 167 746 184 q 846 157 792 149 l 846 4 q 681 17 740 -19 q 601 158 621 53 m 412 884 l 481 1136 l 746 1136 l 549 884 l 412 884 z "},"β":{"ha":884,"x_min":91,"x_max":793,"o":"m 438 152 q 536 184 496 152 q 576 297 576 217 l 576 332 q 539 443 576 412 q 433 473 503 473 l 388 473 l 388 602 l 426 602 q 512 628 484 602 q 540 711 540 653 l 540 734 q 511 828 540 799 q 422 856 482 856 q 333 821 360 856 q 306 710 306 785 l 306 191 q 367 162 335 172 q 438 152 399 152 m 476 -13 q 386 -5 429 -13 q 306 15 342 3 l 306 -253 l 91 -253 l 91 723 q 180 946 91 870 q 422 1023 269 1023 q 662 956 572 1023 q 753 774 753 890 l 753 750 q 707 629 753 677 q 571 566 662 582 l 571 529 q 733 462 674 519 q 793 314 792 405 l 793 268 q 703 59 793 131 q 476 -13 614 -13 z "},"γ":{"ha":884,"x_min":49,"x_max":833,"o":"m 571 -253 l 313 -253 l 335 25 l 49 758 l 268 758 l 443 201 l 617 758 l 833 758 l 549 25 l 571 -253 z "},"δ":{"ha":884,"x_min":91,"x_max":793,"o":"m 442 -13 q 184 61 277 -13 q 91 274 91 134 l 91 390 q 132 516 91 462 q 260 606 173 569 q 158 681 188 640 q 129 784 129 721 q 207 956 129 902 q 438 1010 285 1010 l 689 1010 l 689 852 l 438 852 q 360 839 386 852 q 335 784 335 826 q 368 734 335 754 q 525 672 402 713 q 732 561 672 622 q 793 385 793 500 l 793 274 q 700 61 793 134 q 442 -13 607 -13 m 442 145 q 544 176 510 145 q 578 274 578 206 l 578 385 q 543 483 578 449 q 398 553 508 516 q 330 490 355 529 q 306 390 306 451 l 306 274 q 340 176 306 206 q 442 145 375 145 z "},"ε":{"ha":884,"x_min":83,"x_max":816,"o":"m 455 -13 q 174 39 265 -13 q 83 201 83 91 l 83 222 q 133 327 83 283 q 280 378 182 371 l 280 405 q 153 446 199 410 q 106 543 106 481 l 106 569 q 198 723 106 676 q 455 770 289 770 q 701 711 619 770 q 793 525 784 653 l 597 515 q 560 606 591 578 q 455 634 529 634 q 351 615 381 634 q 321 553 321 596 l 321 535 q 351 472 321 489 q 453 456 381 456 l 524 456 l 524 337 l 453 337 q 328 314 359 337 q 298 244 298 290 l 298 231 q 330 158 298 183 q 455 133 362 133 q 583 164 554 133 q 620 256 612 194 l 816 247 q 730 52 807 117 q 455 -13 653 -13 z "},"έ":{"ha":884,"x_min":83,"x_max":816,"o":"m 455 -13 q 174 39 265 -13 q 83 201 83 91 l 83 222 q 133 327 83 283 q 280 378 182 371 l 280 405 q 153 446 199 410 q 106 543 106 481 l 106 569 q 198 723 106 676 q 455 770 289 770 q 701 711 619 770 q 793 525 784 653 l 597 515 q 560 606 591 578 q 455 634 529 634 q 351 615 381 634 q 321 553 321 596 l 321 535 q 351 472 321 489 q 453 456 381 456 l 524 456 l 524 337 l 453 337 q 328 314 359 337 q 298 244 298 290 l 298 231 q 330 158 298 183 q 455 133 362 133 q 583 164 554 133 q 620 256 612 194 l 816 247 q 730 52 807 117 q 455 -13 653 -13 m 348 884 l 418 1136 l 683 1136 l 486 884 l 348 884 z "},"ζ":{"ha":884,"x_min":24,"x_max":793,"o":"m 509 -253 l 343 -253 l 343 -104 l 510 -104 q 578 -89 553 -104 q 602 -30 602 -74 q 578 32 602 16 q 510 48 553 48 l 420 48 q 171 121 253 48 q 90 323 90 194 q 131 492 90 424 q 255 649 172 561 l 379 784 l 372 803 q 164 829 251 775 q 24 1003 77 883 l 145 1071 q 280 946 197 976 q 499 947 364 915 l 753 1047 l 789 848 l 568 809 l 409 600 q 331 475 359 530 q 304 342 304 420 q 333 234 304 271 q 420 197 361 197 l 535 197 q 725 143 657 197 q 793 -23 793 88 q 717 -195 793 -138 q 509 -253 640 -253 z "},"η":{"ha":884,"x_min":91,"x_max":793,"o":"m 578 -253 l 578 501 q 553 577 578 552 q 481 602 528 602 q 391 578 437 602 q 306 504 345 553 l 306 0 l 91 0 l 91 758 l 306 758 l 306 622 l 343 622 q 436 730 372 691 q 583 770 500 770 q 737 710 682 770 q 793 542 793 649 l 793 -253 l 578 -253 z "},"ή":{"ha":884,"x_min":91,"x_max":793,"o":"m 578 -253 l 578 501 q 553 577 578 552 q 481 602 528 602 q 391 578 437 602 q 306 504 345 553 l 306 0 l 91 0 l 91 758 l 306 758 l 306 622 l 343 622 q 436 730 372 691 q 583 770 500 770 q 737 710 682 770 q 793 542 793 649 l 793 -253 l 578 -253 m 402 884 l 471 1136 l 736 1136 l 539 884 l 402 884 z "},"θ":{"ha":884,"x_min":91,"x_max":793,"o":"m 442 -13 q 186 63 282 -13 q 91 274 91 139 l 91 731 q 186 946 91 870 q 443 1023 282 1023 q 698 946 604 1023 q 793 731 793 870 l 793 274 q 698 63 793 139 q 442 -13 602 -13 m 297 725 l 297 582 l 587 582 l 587 727 q 554 830 587 795 q 442 865 520 865 q 330 829 364 865 q 297 725 297 793 m 442 145 q 554 179 520 145 q 587 288 587 213 l 587 442 l 297 442 l 297 288 q 330 179 297 213 q 442 145 364 145 z "},"ι":{"ha":884,"x_min":92,"x_max":808,"o":"m 616 -9 q 398 62 479 -9 q 317 250 317 134 l 317 600 l 92 600 l 92 758 l 532 758 l 532 284 q 563 188 532 220 q 649 157 593 157 q 717 164 684 157 q 774 182 749 172 l 808 28 q 711 1 759 10 q 616 -9 663 -9 z "},"ΐ":{"ha":884,"x_min":66,"x_max":808,"o":"m 616 -9 q 398 62 479 -9 q 317 250 317 134 l 317 600 l 92 600 l 92 758 l 532 758 l 532 284 q 563 188 532 220 q 649 157 593 157 q 717 164 684 157 q 774 182 749 172 l 808 28 q 711 1 759 10 q 616 -9 663 -9 m 326 884 l 384 1136 l 581 1136 l 448 884 l 326 884 m 164 875 q 93 895 121 875 q 66 963 66 914 l 66 980 q 93 1051 66 1030 q 164 1072 121 1072 q 235 1051 208 1072 q 263 980 263 1030 l 263 963 q 235 895 263 914 q 164 875 207 875 m 694 875 q 624 895 652 875 q 596 963 596 914 l 596 980 q 624 1051 596 1030 q 694 1072 652 1072 q 766 1051 739 1072 q 793 980 793 1030 l 793 963 q 765 895 793 914 q 694 875 737 875 z "},"ί":{"ha":884,"x_min":92,"x_max":808,"o":"m 616 -9 q 398 62 479 -9 q 317 250 317 134 l 317 600 l 92 600 l 92 758 l 532 758 l 532 284 q 563 188 532 220 q 649 157 593 157 q 717 164 684 157 q 774 182 749 172 l 808 28 q 711 1 759 10 q 616 -9 663 -9 m 333 884 l 403 1136 l 668 1136 l 471 884 l 333 884 z "},"ϊ":{"ha":884,"x_min":92,"x_max":808,"o":"m 616 -9 q 398 62 479 -9 q 317 250 317 134 l 317 600 l 92 600 l 92 758 l 532 758 l 532 284 q 563 188 532 220 q 649 157 593 157 q 717 164 684 157 q 774 182 749 172 l 808 28 q 711 1 759 10 q 616 -9 663 -9 m 277 879 q 196 898 227 879 q 165 967 165 918 l 165 984 q 196 1055 165 1034 q 277 1076 227 1076 q 358 1055 327 1076 q 389 984 389 1034 l 389 967 q 357 898 389 918 q 277 879 326 879 m 595 879 q 513 898 544 879 q 482 967 482 918 l 482 984 q 513 1055 482 1034 q 595 1076 544 1076 q 676 1055 645 1076 q 706 984 706 1034 l 706 967 q 674 898 706 918 q 595 879 643 879 z "},"κ":{"ha":884,"x_min":119,"x_max":821,"o":"m 333 319 l 333 0 l 119 0 l 119 758 l 333 758 l 333 467 l 385 467 l 593 758 l 821 758 l 563 414 l 817 0 l 586 0 l 385 319 l 333 319 z "},"λ":{"ha":884,"x_min":49,"x_max":833,"o":"m 615 0 l 436 587 l 264 0 l 49 0 l 258 678 l 408 678 l 398 710 q 331 826 372 792 q 210 860 290 860 q 162 858 188 860 q 104 851 135 856 l 80 1009 q 153 1015 117 1013 q 222 1018 189 1018 q 451 964 369 1018 q 577 779 534 910 l 833 0 l 615 0 z "},"μ":{"ha":884,"x_min":87,"x_max":842,"o":"m 314 25 l 327 -253 l 87 -253 l 100 25 l 100 758 l 314 758 l 314 274 q 343 186 314 212 q 410 160 371 160 q 480 178 451 160 q 537 229 509 196 l 537 758 l 751 758 l 751 246 q 771 167 751 184 q 842 157 792 150 l 842 4 q 704 9 754 -15 q 628 109 654 34 l 593 109 q 533 24 573 61 q 429 -13 494 -13 q 362 1 390 -13 q 314 42 335 14 l 314 25 z "},"ν":{"ha":884,"x_min":49,"x_max":833,"o":"m 552 0 l 331 0 l 49 758 l 266 758 l 465 184 q 572 477 533 323 q 621 758 611 630 l 833 758 q 732 354 809 544 q 552 0 655 163 z "},"ξ":{"ha":884,"x_min":14,"x_max":801,"o":"m 801 -23 q 726 -194 801 -136 q 508 -253 652 -253 l 360 -253 l 360 -104 l 509 -104 q 583 -89 556 -104 q 610 -30 610 -74 q 583 32 610 16 q 509 48 556 48 l 403 48 q 181 109 261 48 q 100 279 100 170 l 100 304 q 155 434 100 379 q 323 499 211 490 l 323 528 q 213 564 251 528 q 176 652 176 601 q 211 737 176 702 q 314 785 246 773 l 314 814 q 123 862 197 813 q 14 1003 49 912 l 135 1071 q 268 955 186 984 q 479 951 351 926 l 741 1047 l 778 848 l 503 804 l 456 778 q 406 730 422 759 q 390 664 390 702 q 411 604 390 621 q 463 586 432 586 l 687 586 l 687 437 l 457 437 q 348 404 381 437 q 314 323 314 371 l 314 298 q 348 225 314 253 q 456 197 383 197 l 534 197 q 733 143 665 197 q 801 -23 801 88 z "},"ο":{"ha":884,"x_min":91,"x_max":793,"o":"m 442 -13 q 184 63 277 -13 q 91 274 91 139 l 91 479 q 184 693 91 616 q 443 770 277 770 q 701 692 609 770 q 793 475 793 614 l 793 270 q 700 62 793 136 q 442 -13 607 -13 m 442 145 q 545 178 513 145 q 578 283 578 211 l 578 471 q 545 578 578 544 q 442 612 513 612 q 338 578 371 612 q 306 472 306 544 l 306 288 q 338 179 306 213 q 442 145 371 145 z "},"ό":{"ha":884,"x_min":91,"x_max":793,"o":"m 442 -13 q 184 63 277 -13 q 91 274 91 139 l 91 479 q 184 693 91 616 q 443 770 277 770 q 701 692 609 770 q 793 475 793 614 l 793 270 q 700 62 793 136 q 442 -13 607 -13 m 442 145 q 545 178 513 145 q 578 283 578 211 l 578 471 q 545 578 578 544 q 442 612 513 612 q 338 578 371 612 q 306 472 306 544 l 306 288 q 338 179 306 213 q 442 145 371 145 m 331 884 l 400 1136 l 665 1136 l 468 884 l 331 884 z "},"π":{"ha":884,"x_min":24,"x_max":831,"o":"m 813 758 l 813 600 l 697 600 l 697 246 q 726 167 697 186 q 831 157 755 148 l 831 4 q 585 27 669 -24 q 500 203 500 77 l 500 600 l 321 600 l 321 0 l 124 0 l 124 600 l 24 600 l 24 758 l 813 758 z "},"ρ":{"ha":884,"x_min":91,"x_max":793,"o":"m 471 157 q 551 190 524 157 q 578 289 578 223 l 578 480 q 544 579 578 548 q 446 610 510 610 q 342 579 378 610 q 306 480 306 548 l 306 240 q 390 177 348 198 q 471 157 432 157 m 91 -253 l 91 480 q 181 694 91 622 q 436 766 270 766 q 701 694 609 766 q 793 480 793 622 l 793 259 q 725 61 793 134 q 543 -13 657 -13 q 415 26 467 -13 q 343 135 364 64 l 306 135 l 306 -253 l 91 -253 z "},"ς":{"ha":884,"x_min":91,"x_max":794,"o":"m 336 -253 l 336 -95 l 503 -95 q 570 -81 545 -95 q 595 -27 595 -68 q 570 33 595 18 q 503 48 545 48 l 393 48 q 168 126 245 48 q 91 347 91 205 l 91 476 q 182 693 91 616 q 446 770 273 770 q 688 698 610 770 q 782 489 765 625 l 576 472 q 540 581 571 551 q 441 611 509 611 q 336 578 366 611 q 306 466 306 544 l 306 352 q 335 239 306 273 q 439 206 365 206 l 556 206 q 731 148 668 206 q 794 -18 794 91 q 710 -191 794 -129 q 475 -253 625 -253 l 336 -253 z "},"σ":{"ha":884,"x_min":91,"x_max":884,"o":"m 417 145 q 502 176 476 145 q 528 279 528 207 l 528 472 q 502 574 528 540 q 417 609 476 609 q 332 575 359 609 q 306 477 306 542 l 306 279 q 332 176 306 207 q 417 145 359 145 m 417 -13 q 179 62 266 -13 q 91 274 91 136 l 91 475 q 179 683 91 609 q 418 758 268 758 l 884 758 l 884 587 l 682 601 q 727 523 712 568 q 742 423 742 477 l 742 274 q 655 62 742 136 q 417 -13 567 -13 z "},"τ":{"ha":884,"x_min":82,"x_max":814,"o":"m 701 4 q 428 23 521 -28 q 335 203 335 74 l 335 591 l 82 591 l 82 758 l 814 758 l 814 591 l 549 591 l 549 246 q 582 165 549 184 q 701 157 615 146 l 701 4 z "},"υ":{"ha":884,"x_min":91,"x_max":793,"o":"m 443 -13 q 183 71 275 -13 q 91 304 91 154 l 91 758 l 306 758 l 306 311 q 338 191 306 227 q 442 154 370 154 q 546 191 514 154 q 578 308 578 227 l 578 758 l 793 758 l 793 304 q 701 71 793 154 q 443 -13 610 -13 z "},"ΰ":{"ha":884,"x_min":78,"x_max":806,"o":"m 443 -13 q 183 71 275 -13 q 91 304 91 154 l 91 758 l 306 758 l 306 311 q 338 191 306 227 q 442 154 370 154 q 546 191 514 154 q 578 308 578 227 l 578 758 l 793 758 l 793 304 q 701 71 793 154 q 443 -13 610 -13 m 338 884 l 396 1136 l 593 1136 l 461 884 l 338 884 m 177 875 q 106 895 134 875 q 78 963 78 914 l 78 980 q 106 1051 78 1030 q 177 1072 134 1072 q 248 1051 221 1072 q 275 980 275 1030 l 275 963 q 247 895 275 914 q 177 875 220 875 m 707 875 q 636 895 664 875 q 609 963 609 914 l 609 980 q 636 1051 609 1030 q 707 1072 664 1072 q 778 1051 751 1072 q 806 980 806 1030 l 806 963 q 778 895 806 914 q 707 875 750 875 z "},"ϋ":{"ha":884,"x_min":91,"x_max":793,"o":"m 443 -13 q 183 71 275 -13 q 91 304 91 154 l 91 758 l 306 758 l 306 311 q 338 191 306 227 q 442 154 370 154 q 546 191 514 154 q 578 308 578 227 l 578 758 l 793 758 l 793 304 q 701 71 793 154 q 443 -13 610 -13 m 283 879 q 203 898 234 879 q 172 967 172 918 l 172 984 q 203 1055 172 1034 q 283 1076 234 1076 q 364 1055 333 1076 q 395 984 395 1034 l 395 967 q 364 898 395 918 q 283 879 332 879 m 601 879 q 520 898 551 879 q 489 967 489 918 l 489 984 q 520 1055 489 1034 q 601 1076 551 1076 q 682 1055 652 1076 q 712 984 712 1034 l 712 967 q 681 898 712 918 q 601 879 649 879 z "},"ύ":{"ha":884,"x_min":91,"x_max":793,"o":"m 443 -13 q 183 71 275 -13 q 91 304 91 154 l 91 758 l 306 758 l 306 311 q 338 191 306 227 q 442 154 370 154 q 546 191 514 154 q 578 308 578 227 l 578 758 l 793 758 l 793 304 q 701 71 793 154 q 443 -13 610 -13 m 322 884 l 391 1136 l 657 1136 l 460 884 l 322 884 z "},"φ":{"ha":884,"x_min":56,"x_max":828,"o":"m 530 -253 l 354 -253 l 354 -5 q 135 121 215 19 q 56 386 56 222 l 56 458 q 71 635 56 554 q 120 770 86 716 l 292 730 q 249 612 265 682 q 234 458 234 542 l 234 386 q 266 220 234 277 q 371 148 299 164 l 371 758 l 491 758 q 737 663 646 758 q 828 394 828 568 l 828 342 q 749 105 828 196 q 530 -6 669 15 l 530 -253 m 513 604 l 513 146 q 632 205 596 158 q 668 342 668 251 l 668 394 q 628 554 668 504 q 513 604 588 604 z "},"χ":{"ha":884,"x_min":64,"x_max":819,"o":"m 576 -253 l 428 52 l 275 -253 l 64 -253 l 333 247 l 86 758 l 299 758 l 451 447 l 609 758 l 819 758 l 545 253 l 792 -253 l 576 -253 z "},"ψ":{"ha":884,"x_min":56,"x_max":828,"o":"m 530 -253 l 354 -253 l 354 -16 q 129 88 203 3 q 56 317 56 174 l 56 758 l 235 758 l 235 343 q 265 208 235 256 q 362 145 294 160 l 362 758 l 521 758 l 521 145 q 619 208 590 160 q 649 343 649 256 l 649 758 l 828 758 l 828 317 q 754 88 828 174 q 530 -16 681 3 l 530 -253 z "},"ω":{"ha":884,"x_min":56,"x_max":828,"o":"m 244 -13 q 107 71 159 -13 q 56 313 56 154 l 56 468 q 71 639 56 563 q 116 779 86 715 l 289 739 q 250 597 265 663 q 235 468 235 530 l 235 313 q 250 194 235 234 q 295 154 265 154 q 346 180 330 154 q 362 266 362 206 l 362 563 l 521 563 l 521 266 q 539 180 521 206 q 590 154 556 154 q 634 194 620 154 q 649 313 649 234 l 649 468 q 634 597 649 530 q 595 739 619 663 l 768 779 q 813 639 798 715 q 828 468 828 563 l 828 313 q 776 71 828 154 q 635 -13 723 -13 q 527 24 576 -13 q 456 155 479 61 l 424 155 q 357 24 409 61 q 244 -13 306 -13 z "},"ώ":{"ha":884,"x_min":56,"x_max":828,"o":"m 244 -13 q 107 71 159 -13 q 56 313 56 154 l 56 468 q 71 639 56 563 q 116 779 86 715 l 289 739 q 250 597 265 663 q 235 468 235 530 l 235 313 q 250 194 235 234 q 295 154 265 154 q 346 180 330 154 q 362 266 362 206 l 362 563 l 521 563 l 521 266 q 539 180 521 206 q 590 154 556 154 q 634 194 620 154 q 649 313 649 234 l 649 468 q 634 597 649 530 q 595 739 619 663 l 768 779 q 813 639 798 715 q 828 468 828 563 l 828 313 q 776 71 828 154 q 635 -13 723 -13 q 527 24 576 -13 q 456 155 479 61 l 424 155 q 357 24 409 61 q 244 -13 306 -13 m 340 884 l 409 1136 l 674 1136 l 477 884 l 340 884 z "},"а":{"ha":884,"x_min":62,"x_max":855,"o":"m 356 126 q 445 141 403 126 q 524 183 487 155 l 524 306 l 350 306 q 283 287 307 306 q 259 212 259 268 q 282 148 259 170 q 356 126 304 126 m 304 -13 q 130 44 198 -13 q 62 207 62 101 q 134 367 62 312 q 326 423 207 423 l 524 423 l 524 515 q 492 594 524 571 q 398 617 460 617 q 302 595 333 617 q 256 505 271 572 l 80 537 q 180 717 106 664 q 404 770 254 770 q 646 709 562 770 q 730 521 730 648 l 730 229 q 761 161 730 174 q 855 157 793 148 l 855 4 q 691 8 756 -18 q 606 117 626 33 l 572 117 q 462 26 533 64 q 304 -13 391 -13 z "},"б":{"ha":884,"x_min":91,"x_max":793,"o":"m 442 -13 q 182 69 273 -13 q 91 312 91 150 l 91 577 q 179 879 91 779 q 438 997 268 979 l 730 1029 l 749 860 l 471 827 q 340 771 383 816 q 294 631 297 726 l 293 562 l 322 562 q 403 650 351 619 q 540 682 456 682 q 723 613 654 682 q 793 428 793 544 l 793 287 q 702 63 793 139 q 442 -13 611 -13 m 441 145 q 545 178 514 145 q 576 275 576 211 l 576 405 q 545 494 576 465 q 441 523 514 523 q 336 494 366 523 q 306 405 306 465 l 306 275 q 336 178 306 211 q 441 145 366 145 z "},"в":{"ha":884,"x_min":91,"x_max":816,"o":"m 91 0 l 91 758 l 444 758 q 701 714 610 758 q 793 572 793 670 l 793 545 q 746 444 793 481 q 619 403 699 408 l 619 375 q 766 324 717 369 q 816 217 816 279 l 816 196 q 730 50 816 100 q 444 0 645 0 l 91 0 m 297 452 l 455 452 q 557 467 528 452 q 587 527 587 482 l 587 544 q 558 604 587 587 q 453 621 529 621 l 297 621 l 297 452 m 297 145 l 453 145 q 576 167 543 145 q 610 235 610 189 l 610 247 q 578 313 610 293 q 455 333 547 333 l 297 333 l 297 145 z "},"г":{"ha":884,"x_min":145,"x_max":779,"o":"m 145 0 l 145 758 l 779 758 l 779 591 l 360 591 l 360 0 l 145 0 z "},"ѓ":{"ha":884,"x_min":145,"x_max":779,"o":"m 145 0 l 145 758 l 779 758 l 779 591 l 360 591 l 360 0 l 145 0 m 313 884 l 458 1136 l 736 1136 l 463 884 l 313 884 z "},"д":{"ha":884,"x_min":33,"x_max":851,"o":"m 314 196 l 314 167 l 545 167 l 545 591 l 370 591 l 366 365 q 352 270 365 309 q 314 196 338 230 m 230 0 l 230 -189 l 33 -189 l 33 167 l 117 167 q 158 233 144 187 q 173 370 172 279 l 179 758 l 742 758 l 742 167 l 851 167 l 851 -189 l 654 -189 l 654 0 l 230 0 z "},"е":{"ha":884,"x_min":91,"x_max":806,"o":"m 806 176 q 684 28 761 69 q 446 -13 606 -13 q 191 60 292 -13 q 91 277 91 133 l 91 479 q 186 694 91 617 q 443 770 280 770 q 699 694 606 770 q 793 475 793 617 l 793 336 l 306 336 l 306 264 q 340 165 306 199 q 451 130 374 130 q 556 150 515 130 q 625 225 597 169 l 806 176 m 306 496 l 306 453 l 578 453 l 578 485 q 548 598 578 564 q 442 633 518 633 q 336 600 366 633 q 306 496 306 568 z "},"ѐ":{"ha":884,"x_min":91,"x_max":806,"o":"m 806 176 q 684 28 761 69 q 446 -13 606 -13 q 191 60 292 -13 q 91 277 91 133 l 91 479 q 186 694 91 617 q 443 770 280 770 q 699 694 606 770 q 793 475 793 617 l 793 336 l 306 336 l 306 264 q 340 165 306 199 q 451 130 374 130 q 556 150 515 130 q 625 225 597 169 l 806 176 m 306 496 l 306 453 l 578 453 l 578 485 q 548 598 578 564 q 442 633 518 633 q 336 600 366 633 q 306 496 306 568 m 431 884 l 158 1136 l 436 1136 l 581 884 l 431 884 z "},"ё":{"ha":884,"x_min":91,"x_max":806,"o":"m 806 176 q 684 28 761 69 q 446 -13 606 -13 q 191 60 292 -13 q 91 277 91 133 l 91 479 q 186 694 91 617 q 443 770 280 770 q 699 694 606 770 q 793 475 793 617 l 793 336 l 306 336 l 306 264 q 340 165 306 199 q 451 130 374 130 q 556 150 515 130 q 625 225 597 169 l 806 176 m 306 496 l 306 453 l 578 453 l 578 485 q 548 598 578 564 q 442 633 518 633 q 336 600 366 633 q 306 496 306 568 m 283 879 q 203 898 234 879 q 172 967 172 918 l 172 984 q 203 1055 172 1034 q 283 1076 234 1076 q 364 1055 333 1076 q 395 984 395 1034 l 395 967 q 364 898 395 918 q 283 879 332 879 m 601 879 q 520 898 551 879 q 489 967 489 918 l 489 984 q 520 1055 489 1034 q 601 1076 551 1076 q 682 1055 652 1076 q 712 984 712 1034 l 712 967 q 681 898 712 918 q 601 879 649 879 z "},"ж":{"ha":884,"x_min":6,"x_max":875,"o":"m 312 330 l 188 0 l 10 0 l 189 420 l 6 758 l 187 758 l 326 466 l 364 466 l 364 758 l 521 758 l 521 466 l 554 466 l 689 758 l 875 758 l 694 422 l 874 0 l 692 0 l 568 330 l 521 330 l 521 0 l 364 0 l 364 330 l 312 330 z "},"з":{"ha":884,"x_min":83,"x_max":816,"o":"m 444 -13 q 180 50 266 -13 q 83 247 93 112 l 279 256 q 325 151 289 178 q 444 124 361 124 q 570 150 539 124 q 601 231 601 177 l 601 244 q 572 315 601 293 q 446 337 543 337 l 384 337 l 384 456 l 446 456 q 548 472 518 456 q 578 535 578 487 l 578 553 q 549 616 578 598 q 444 634 519 634 q 342 609 372 634 q 302 515 311 585 l 106 525 q 197 711 116 653 q 444 770 278 770 q 706 723 620 770 q 793 569 793 676 l 793 543 q 746 446 793 481 q 619 405 699 410 l 619 378 q 766 327 717 371 q 816 222 816 283 l 816 201 q 728 40 816 93 q 444 -13 640 -13 z "},"и":{"ha":884,"x_min":91,"x_max":793,"o":"m 607 0 l 607 513 l 321 0 l 91 0 l 91 758 l 278 758 l 278 218 l 580 758 l 793 758 l 793 0 l 607 0 z "},"й":{"ha":884,"x_min":91,"x_max":793,"o":"m 607 0 l 607 513 l 321 0 l 91 0 l 91 758 l 278 758 l 278 218 l 580 758 l 793 758 l 793 0 l 607 0 m 442 875 q 222 937 316 875 q 130 1154 129 1000 l 318 1167 q 343 1047 317 1083 q 442 1010 370 1010 q 540 1047 514 1010 q 566 1167 567 1083 l 754 1154 q 662 937 755 1000 q 442 875 568 875 z "},"ѝ":{"ha":884,"x_min":91,"x_max":793,"o":"m 607 0 l 607 513 l 321 0 l 91 0 l 91 758 l 278 758 l 278 218 l 580 758 l 793 758 l 793 0 l 607 0 m 443 884 l 170 1136 l 448 1136 l 593 884 l 443 884 z "},"к":{"ha":884,"x_min":119,"x_max":821,"o":"m 333 319 l 333 0 l 119 0 l 119 758 l 333 758 l 333 467 l 385 467 l 593 758 l 821 758 l 563 414 l 817 0 l 586 0 l 385 319 l 333 319 z "},"ќ":{"ha":884,"x_min":119,"x_max":821,"o":"m 333 319 l 333 0 l 119 0 l 119 758 l 333 758 l 333 467 l 385 467 l 593 758 l 821 758 l 563 414 l 817 0 l 586 0 l 385 319 l 333 319 m 360 884 l 505 1136 l 783 1136 l 510 884 l 360 884 z "},"л":{"ha":884,"x_min":11,"x_max":802,"o":"m 587 0 l 587 600 l 384 600 l 381 289 q 318 58 380 133 q 133 -16 255 -16 q 73 -10 104 -16 q 11 4 42 -4 l 35 163 q 68 154 53 158 q 96 150 83 150 q 157 182 136 150 q 179 306 178 215 l 183 758 l 802 758 l 802 0 l 587 0 z "},"м":{"ha":884,"x_min":78,"x_max":806,"o":"m 367 189 l 244 485 l 263 0 l 78 0 l 78 758 l 301 758 l 446 374 l 590 758 l 806 758 l 806 0 l 621 0 l 639 485 l 519 189 l 367 189 z "},"н":{"ha":884,"x_min":91,"x_max":793,"o":"m 91 0 l 91 758 l 306 758 l 306 501 l 578 501 l 578 758 l 793 758 l 793 0 l 578 0 l 578 335 l 306 335 l 306 0 l 91 0 z "},"о":{"ha":884,"x_min":91,"x_max":793,"o":"m 442 -13 q 184 63 277 -13 q 91 274 91 139 l 91 479 q 184 693 91 616 q 443 770 277 770 q 701 692 609 770 q 793 475 793 614 l 793 270 q 700 62 793 136 q 442 -13 607 -13 m 442 145 q 545 178 513 145 q 578 283 578 211 l 578 471 q 545 578 578 544 q 442 612 513 612 q 338 578 371 612 q 306 472 306 544 l 306 288 q 338 179 306 213 q 442 145 371 145 z "},"п":{"ha":884,"x_min":91,"x_max":793,"o":"m 91 0 l 91 758 l 793 758 l 793 0 l 578 0 l 578 591 l 306 591 l 306 0 l 91 0 z "},"р":{"ha":884,"x_min":91,"x_max":793,"o":"m 442 148 q 544 178 510 148 q 578 278 578 208 l 578 473 q 551 571 578 539 q 471 602 523 602 q 388 581 427 602 q 306 518 348 561 l 306 184 q 369 157 338 165 q 442 148 400 148 m 476 -9 q 388 -1 433 -9 q 306 21 343 6 l 306 -253 l 91 -253 l 91 758 l 306 758 l 306 622 l 343 622 q 433 730 372 691 q 569 770 494 770 q 732 699 672 770 q 793 508 793 629 l 793 277 q 708 68 793 145 q 476 -9 622 -9 z "},"с":{"ha":884,"x_min":91,"x_max":798,"o":"m 456 -13 q 184 63 278 -13 q 91 283 91 139 l 91 477 q 185 694 91 619 q 455 770 279 770 q 701 698 620 770 q 798 492 782 625 l 591 476 q 552 580 585 549 q 448 611 519 611 q 339 578 372 611 q 306 465 306 544 l 306 292 q 340 179 306 212 q 451 145 374 145 q 554 171 521 145 q 591 256 586 197 l 798 240 q 713 53 789 119 q 456 -13 638 -13 z "},"т":{"ha":884,"x_min":71,"x_max":813,"o":"m 335 0 l 335 591 l 71 591 l 71 758 l 813 758 l 813 591 l 549 591 l 549 0 l 335 0 z "},"у":{"ha":884,"x_min":49,"x_max":833,"o":"m 237 -265 q 155 -261 198 -265 q 62 -251 112 -258 l 77 -93 q 164 -107 126 -102 q 231 -112 202 -112 q 336 -83 299 -112 q 398 27 374 -53 l 400 35 l 274 35 l 49 758 l 270 758 l 441 169 l 621 758 l 833 758 l 587 6 q 458 -205 538 -144 q 237 -265 379 -265 z "},"ў":{"ha":884,"x_min":49,"x_max":833,"o":"m 237 -265 q 155 -261 198 -265 q 62 -251 112 -258 l 77 -93 q 164 -107 126 -102 q 231 -112 202 -112 q 336 -83 299 -112 q 398 27 374 -53 l 400 35 l 274 35 l 49 758 l 270 758 l 441 169 l 621 758 l 833 758 l 587 6 q 458 -205 538 -144 q 237 -265 379 -265 m 442 875 q 222 937 316 875 q 130 1154 129 1000 l 318 1167 q 343 1047 317 1083 q 442 1010 370 1010 q 540 1047 514 1010 q 566 1167 567 1083 l 754 1154 q 662 937 755 1000 q 442 875 568 875 z "},"ф":{"ha":884,"x_min":56,"x_max":828,"o":"m 557 0 l 530 0 l 530 -253 l 354 -253 l 354 0 l 327 0 q 128 71 199 0 q 56 268 56 143 l 56 492 q 128 688 56 617 q 327 758 199 758 l 354 758 l 354 1010 l 530 1010 l 530 758 l 557 758 q 756 688 684 758 q 828 492 828 617 l 828 266 q 756 71 828 141 q 557 0 684 0 m 341 136 l 369 136 l 369 620 l 341 620 q 262 590 294 620 q 230 487 230 559 l 230 269 q 262 167 230 197 q 341 136 294 136 m 543 620 l 515 620 l 515 136 l 543 136 q 622 167 591 136 q 654 269 654 197 l 654 487 q 622 590 654 559 q 543 620 591 620 z "},"х":{"ha":884,"x_min":64,"x_max":817,"o":"m 596 0 l 432 244 l 280 0 l 64 0 l 336 385 l 82 758 l 301 758 l 449 538 l 586 758 l 802 758 l 549 393 l 817 0 l 596 0 z "},"ц":{"ha":884,"x_min":91,"x_max":861,"o":"m 657 -189 l 657 0 l 91 0 l 91 758 l 306 758 l 306 167 l 547 167 l 547 758 l 761 758 l 761 167 l 861 167 l 861 -189 l 657 -189 z "},"ч":{"ha":884,"x_min":74,"x_max":765,"o":"m 765 758 l 765 0 l 551 0 l 551 236 q 487 220 523 226 q 399 213 451 213 q 156 291 237 213 q 74 519 74 369 l 74 758 l 289 758 l 289 521 q 325 410 289 441 q 422 378 361 379 q 494 384 461 378 q 551 403 527 391 l 551 758 l 765 758 z "},"ш":{"ha":884,"x_min":56,"x_max":828,"o":"m 56 0 l 56 758 l 230 758 l 230 155 l 356 155 l 356 758 l 528 758 l 528 155 l 654 155 l 654 758 l 828 758 l 828 0 l 56 0 z "},"щ":{"ha":884,"x_min":56,"x_max":883,"o":"m 883 -189 l 707 -189 l 707 0 l 56 0 l 56 758 l 230 758 l 230 155 l 356 155 l 356 758 l 528 758 l 528 155 l 654 155 l 654 758 l 828 758 l 828 158 l 883 158 l 883 -189 z "},"ъ":{"ha":884,"x_min":0,"x_max":840,"o":"m 542 0 l 189 0 l 189 591 l 0 591 l 0 758 l 404 758 l 404 539 l 542 539 q 760 475 681 539 q 840 298 840 412 l 840 237 q 760 63 840 126 q 542 0 681 0 m 404 158 l 505 158 q 596 179 567 158 q 625 251 625 201 l 625 295 q 596 364 625 345 q 505 384 567 384 l 404 384 l 404 158 z "},"ы":{"ha":884,"x_min":63,"x_max":821,"o":"m 63 0 l 63 758 l 242 758 l 242 557 l 295 557 q 486 500 418 557 q 554 342 554 443 l 554 229 q 486 60 554 120 q 295 0 418 0 l 63 0 m 641 0 l 641 758 l 821 758 l 821 0 l 641 0 m 242 148 l 285 148 q 364 169 338 148 q 390 246 390 191 l 390 318 q 364 391 390 371 q 285 412 338 412 l 242 412 l 242 148 z "},"ь":{"ha":884,"x_min":82,"x_max":813,"o":"m 82 0 l 82 758 l 297 758 l 297 539 l 497 539 q 730 475 648 539 q 813 298 813 412 l 813 237 q 730 62 813 124 q 497 0 648 0 l 82 0 m 297 158 l 461 158 q 564 177 530 158 q 598 246 598 197 l 598 292 q 564 362 598 341 q 461 384 530 384 l 297 384 l 297 158 z "},"э":{"ha":884,"x_min":77,"x_max":793,"o":"m 424 -13 q 170 48 255 -13 q 77 236 86 109 l 285 253 q 320 160 290 187 q 429 133 350 133 q 545 167 511 133 q 578 279 578 201 l 578 328 l 354 328 l 354 456 l 578 456 l 578 482 q 545 592 578 558 q 432 625 511 625 q 323 599 356 625 q 285 511 290 573 l 77 528 q 176 711 92 653 q 426 770 260 770 q 695 697 597 770 q 793 477 793 624 l 793 283 q 698 63 793 139 q 424 -13 604 -13 z "},"ю":{"ha":884,"x_min":56,"x_max":828,"o":"m 580 -13 q 395 55 457 -13 q 333 240 333 122 l 333 340 l 236 340 l 236 0 l 56 0 l 56 758 l 236 758 l 236 489 l 333 489 l 333 513 q 396 701 333 633 q 581 770 458 770 q 767 701 706 770 q 828 513 828 633 l 828 240 q 766 55 828 122 q 580 -13 705 -13 m 580 136 q 636 163 621 136 q 650 240 650 189 l 650 513 q 636 593 650 566 q 580 621 621 621 q 524 593 539 621 q 509 513 509 566 l 509 240 q 524 163 509 189 q 580 136 539 136 z "},"я":{"ha":884,"x_min":80,"x_max":793,"o":"m 414 386 l 578 386 l 578 609 l 414 609 q 346 590 369 609 q 323 513 323 571 l 323 485 q 346 406 323 426 q 414 386 369 386 m 578 239 l 489 239 l 313 0 l 80 0 l 268 256 q 150 335 191 277 q 109 482 109 393 l 109 519 q 177 695 109 633 q 369 758 245 758 l 793 758 l 793 0 l 578 0 l 578 239 z "},"ђ":{"ha":884,"x_min":-35,"x_max":793,"o":"m 494 -264 q 409 -256 452 -264 q 324 -236 366 -249 l 350 -88 q 414 -107 384 -100 q 470 -114 443 -114 q 549 -83 520 -114 q 578 16 578 -53 l 578 403 q 553 491 578 461 q 481 521 528 521 q 392 491 438 521 q 306 405 346 460 l 306 0 l 91 0 l 91 769 l -35 769 l -35 888 l 91 888 l 91 1010 l 306 1010 l 306 888 l 523 888 l 523 769 l 306 769 l 306 542 l 343 542 q 434 650 374 611 q 574 689 495 689 q 732 629 670 689 q 793 461 793 568 l 793 -4 q 703 -202 793 -140 q 494 -264 614 -264 z "},"є":{"ha":884,"x_min":91,"x_max":807,"o":"m 807 236 q 713 48 797 109 q 460 -13 629 -13 q 186 63 280 -13 q 91 283 91 139 l 91 477 q 189 697 91 624 q 458 770 287 770 q 708 711 624 770 q 807 528 792 653 l 600 511 q 561 599 595 573 q 453 625 528 625 q 339 592 372 625 q 306 482 306 558 l 306 451 l 551 451 l 551 332 l 306 332 l 306 279 q 339 167 306 201 q 456 133 372 133 q 565 160 535 133 q 600 253 595 187 l 807 236 z "},"ѕ":{"ha":884,"x_min":83,"x_max":790,"o":"m 446 -9 q 251 18 347 -9 q 83 93 155 44 l 140 229 q 295 157 212 182 q 451 133 379 133 q 543 151 509 133 q 577 212 577 169 q 544 276 577 256 q 427 304 510 295 q 191 368 273 321 q 109 525 109 415 q 197 705 109 640 q 427 770 285 770 q 593 746 508 770 q 747 677 678 721 l 699 548 q 564 608 631 587 q 434 629 496 629 q 352 610 383 629 q 322 551 322 591 q 363 489 322 506 q 500 460 404 472 q 719 389 648 442 q 790 235 790 336 q 697 55 790 119 q 446 -9 604 -9 z "},"і":{"ha":884,"x_min":100,"x_max":784,"o":"m 100 0 l 100 158 l 335 158 l 335 600 l 100 600 l 100 758 l 549 758 l 549 158 l 784 158 l 784 0 l 100 0 m 452 879 q 347 898 388 879 q 307 967 307 918 l 307 984 q 347 1055 307 1034 q 452 1076 388 1076 q 557 1055 516 1076 q 597 984 597 1034 l 597 967 q 557 898 597 918 q 452 879 516 879 z "},"ї":{"ha":884,"x_min":100,"x_max":784,"o":"m 100 0 l 100 158 l 335 158 l 335 600 l 100 600 l 100 758 l 549 758 l 549 158 l 784 158 l 784 0 l 100 0 m 283 879 q 203 898 234 879 q 172 967 172 918 l 172 984 q 203 1055 172 1034 q 283 1076 234 1076 q 364 1055 333 1076 q 395 984 395 1034 l 395 967 q 364 898 395 918 q 283 879 332 879 m 601 879 q 520 898 551 879 q 489 967 489 918 l 489 984 q 520 1055 489 1034 q 601 1076 551 1076 q 682 1055 652 1076 q 712 984 712 1034 l 712 967 q 681 898 712 918 q 601 879 649 879 z "},"ј":{"ha":884,"x_min":83,"x_max":694,"o":"m 308 -264 q 196 -258 253 -264 q 83 -236 139 -253 l 109 -88 q 201 -109 158 -104 q 284 -114 245 -114 q 407 -83 362 -114 q 452 16 452 -53 l 452 600 l 126 600 l 126 758 l 667 758 l 667 -4 q 569 -196 667 -129 q 308 -264 472 -264 m 549 879 q 444 898 485 879 q 404 967 404 918 l 404 984 q 444 1055 404 1034 q 549 1076 485 1076 q 654 1055 614 1076 q 694 984 694 1034 l 694 967 q 654 898 694 918 q 549 879 614 879 z "},"љ":{"ha":884,"x_min":-18,"x_max":832,"o":"m 269 617 l 263 173 q 211 39 261 85 q 74 -8 162 -8 q 30 -4 53 -8 q -18 5 6 -1 l 8 158 q 28 152 18 154 q 47 150 38 150 q 81 164 67 150 q 97 221 96 178 l 106 758 l 540 758 l 540 539 l 624 539 q 777 483 722 539 q 832 326 832 427 l 832 232 q 777 61 832 122 q 624 0 722 0 l 374 0 l 374 617 l 269 617 m 540 139 l 587 139 q 646 164 628 139 q 665 245 665 188 l 665 311 q 646 381 665 360 q 587 403 628 403 l 540 403 l 540 139 z "},"њ":{"ha":884,"x_min":57,"x_max":828,"o":"m 537 139 l 583 139 q 643 160 625 139 q 662 232 662 182 l 662 328 q 643 399 662 378 q 583 420 625 420 l 537 420 l 537 139 m 223 362 l 223 0 l 57 0 l 57 758 l 223 758 l 223 510 l 370 510 l 370 758 l 537 758 l 537 557 l 620 557 q 773 503 718 557 q 828 352 828 448 l 828 215 q 773 56 828 112 q 620 0 718 0 l 370 0 l 370 362 l 223 362 z "},"ћ":{"ha":884,"x_min":-35,"x_max":793,"o":"m 306 405 l 306 0 l 91 0 l 91 769 l -35 769 l -35 888 l 91 888 l 91 1010 l 306 1010 l 306 888 l 523 888 l 523 769 l 306 769 l 306 542 l 343 542 q 435 650 372 610 q 574 689 497 689 q 732 626 672 689 q 793 461 793 563 l 793 0 l 578 0 l 578 403 q 553 491 578 461 q 481 521 528 521 q 392 491 437 521 q 306 405 347 460 z "},"џ":{"ha":884,"x_min":91,"x_max":793,"o":"m 340 -189 l 340 0 l 91 0 l 91 758 l 306 758 l 306 167 l 578 167 l 578 758 l 793 758 l 793 0 l 544 0 l 544 -189 l 340 -189 z "},"ґ":{"ha":884,"x_min":145,"x_max":779,"o":"m 145 0 l 145 758 l 576 758 l 576 947 l 779 947 l 779 591 l 360 591 l 360 0 l 145 0 z "},"ⁿ":{"ha":884,"x_min":145,"x_max":739,"o":"m 145 380 l 145 1011 l 327 1011 l 327 900 l 362 900 q 396 954 376 931 q 441 992 415 977 q 493 1015 465 1008 q 552 1023 521 1023 q 629 1006 595 1023 q 688 957 664 989 q 726 878 713 924 q 739 771 739 831 l 739 380 l 557 380 l 557 761 q 551 812 557 790 q 535 848 545 833 q 511 870 525 862 q 479 878 496 878 q 439 870 458 878 q 400 847 419 862 q 364 814 383 833 q 327 769 346 794 l 327 380 l 145 380 z "},"̀":{"ha":0,"x_min":-289,"x_max":134,"o":"m -16 884 l -289 1136 l -11 1136 l 134 884 l -16 884 z "},"́":{"ha":0,"x_min":-162,"x_max":261,"o":"m -162 884 l -16 1136 l 261 1136 l -11 884 l -162 884 z "},"̂":{"ha":0,"x_min":-311,"x_max":311,"o":"m -241 871 l -311 970 l -82 1167 l 80 1167 l 311 970 l 242 872 l -1 1009 l -241 871 z "},"̃":{"ha":0,"x_min":-302,"x_max":303,"o":"m 115 896 q 27 917 59 896 q -27 960 -5 937 q -65 1003 -47 984 q -107 1023 -83 1023 q -145 1003 -129 1023 q -160 922 -162 984 l -160 909 l -302 909 l -302 928 q -252 1098 -302 1030 q -114 1167 -202 1167 q -23 1147 -56 1167 q 30 1104 9 1128 q 69 1059 52 1080 q 109 1039 87 1039 q 146 1059 130 1039 q 162 1141 163 1078 l 162 1153 l 303 1153 l 303 1134 q 253 965 303 1033 q 115 896 203 896 z "},"̄":{"ha":0,"x_min":-275,"x_max":275,"o":"m -275 927 l -275 1093 l 275 1093 l 275 927 l -275 927 z "},"̆":{"ha":0,"x_min":-324,"x_max":324,"o":"m 0 875 q -240 945 -157 875 q -324 1167 -323 1015 l -145 1167 q -110 1045 -144 1080 q 0 1010 -76 1010 q 110 1045 76 1010 q 145 1167 144 1080 l 324 1167 q 240 945 323 1015 q 0 875 157 875 z "},"̇":{"ha":0,"x_min":-145,"x_max":145,"o":"m 0 879 q -105 898 -64 879 q -145 967 -145 918 l -145 984 q -105 1055 -145 1034 q 0 1076 -64 1076 q 105 1055 64 1076 q 145 984 145 1034 l 145 967 q 105 898 145 918 q 0 879 64 879 z "},"̈":{"ha":0,"x_min":-270,"x_max":270,"o":"m -159 879 q -239 898 -208 879 q -270 967 -270 918 l -270 984 q -239 1055 -270 1034 q -159 1076 -208 1076 q -78 1055 -109 1076 q -47 984 -47 1034 l -47 967 q -78 898 -47 918 q -159 879 -110 879 m 159 879 q 78 898 109 879 q 47 967 47 918 l 47 984 q 78 1055 47 1034 q 159 1076 109 1076 q 240 1055 210 1076 q 270 984 270 1034 l 270 967 q 239 898 270 918 q 159 879 207 879 z "},"̊":{"ha":0,"x_min":-246,"x_max":246,"o":"m 0 856 q -178 903 -110 856 q -246 1048 -246 949 l -246 1088 q -178 1235 -246 1187 q 0 1284 -110 1284 q 179 1235 111 1284 q 246 1088 246 1187 l 246 1048 q 178 903 246 949 q 0 856 110 856 m 0 963 q 71 982 47 963 q 95 1048 95 1001 l 95 1088 q 71 1155 95 1134 q 0 1177 47 1177 q -71 1155 -47 1177 q -95 1088 -95 1134 l -95 1048 q -71 982 -95 1001 q 0 963 -47 963 z "},"̋":{"ha":0,"x_min":-230,"x_max":343,"o":"m 61 884 l 122 1136 l 343 1136 l 177 884 l 61 884 m -230 884 l -168 1136 l 53 1136 l -114 884 l -230 884 z "},"̌":{"ha":0,"x_min":-311,"x_max":311,"o":"m -80 889 l -311 1086 l -242 1183 l 1 1047 l 241 1184 l 311 1086 l 82 889 l -80 889 z "},"̒":{"ha":0,"x_min":-187,"x_max":186,"o":"m -187 884 l 35 1136 l 186 1136 l 91 884 l -187 884 z "},"̦":{"ha":0,"x_min":-196,"x_max":177,"o":"m -196 -379 l -101 -126 l 177 -126 l -45 -379 l -196 -379 z "},"̧":{"ha":0,"x_min":-295,"x_max":206,"o":"m -38 0 l -13 53 q 143 8 80 43 q 206 -112 206 -28 q 130 -242 206 -203 q -40 -282 54 -282 q -220 -245 -150 -282 q -295 -121 -289 -208 l -114 -109 q -97 -142 -111 -133 q -49 -152 -82 -152 q 4 -138 -14 -152 q 21 -81 21 -124 q 9 -27 21 -45 q -38 0 -4 -9 z "},"̨":{"ha":0,"x_min":-182,"x_max":187,"o":"m 35 -279 q -122 -239 -63 -279 q -182 -121 -182 -199 q -122 11 -182 -44 q 8 86 -62 66 l 42 29 q -13 -23 -1 3 q -24 -73 -24 -49 q -1 -122 -24 -106 q 69 -139 21 -139 q 124 -136 92 -139 q 187 -126 155 -133 l 187 -264 q 109 -275 148 -271 q 35 -279 69 -279 z "},"¼":{"ha":884,"x_min":0,"x_max":884,"o":"m 217 519 l 217 626 l 389 626 l 389 876 l 365 876 q 345 830 360 851 q 309 793 330 808 q 262 769 288 778 q 208 758 236 760 l 201 879 q 259 893 230 883 q 314 920 288 903 q 360 963 340 938 q 391 1019 381 987 l 557 1019 l 557 626 l 713 626 l 713 519 l 217 519 m 0 311 l 0 463 l 402 438 l 402 336 l 0 311 m 500 336 l 500 438 l 884 463 l 884 311 l 500 336 m 760 -143 l 643 -143 l 643 -265 l 475 -265 l 475 -143 l 154 -143 l 154 -28 l 439 273 l 643 273 l 643 -28 l 760 -28 l 760 -143 m 287 -28 l 475 -28 l 475 169 l 287 -28 z "},"½":{"ha":884,"x_min":0,"x_max":884,"o":"m 217 519 l 217 626 l 389 626 l 389 876 l 365 876 q 345 830 360 851 q 309 793 330 808 q 262 769 288 778 q 208 758 236 760 l 201 879 q 259 893 230 883 q 314 920 288 903 q 360 963 340 938 q 391 1019 381 987 l 557 1019 l 557 626 l 713 626 l 713 519 l 217 519 m 0 311 l 0 463 l 402 438 l 402 336 l 0 311 m 500 336 l 500 438 l 884 463 l 884 311 l 500 336 m 162 -265 l 162 -146 q 170 -89 162 -115 q 196 -42 178 -63 q 242 -6 213 -21 q 309 16 270 9 l 463 48 q 503 57 487 53 q 527 68 518 62 q 541 83 537 74 q 545 105 545 92 l 545 116 q 539 139 545 130 q 518 153 532 148 q 485 160 504 158 q 441 162 466 162 q 398 159 415 162 q 366 149 380 157 q 346 130 354 143 q 337 97 338 117 l 169 106 q 188 177 172 146 q 236 227 205 207 q 319 258 269 247 q 441 268 370 268 q 563 258 511 268 q 648 229 615 247 q 698 180 682 208 q 713 114 713 152 l 713 85 q 703 34 713 57 q 673 -5 693 11 q 628 -34 654 -23 q 568 -52 601 -45 l 414 -83 q 377 -93 391 -88 q 352 -104 362 -97 q 337 -119 342 -110 q 331 -141 332 -128 l 721 -141 l 721 -265 l 162 -265 z "},"¾":{"ha":884,"x_min":0,"x_max":884,"o":"m 446 510 q 319 520 372 510 q 229 551 265 530 q 175 603 193 572 q 154 676 157 634 l 322 683 q 331 650 324 663 q 352 629 338 636 q 388 618 366 621 q 444 615 410 615 q 496 617 476 615 q 529 625 516 620 q 547 638 542 630 q 553 658 553 645 l 553 678 q 547 701 553 692 q 528 715 540 710 q 493 722 514 720 q 441 725 472 725 l 322 725 l 322 828 l 441 828 q 485 830 467 828 q 515 837 504 832 q 532 850 527 842 q 538 871 538 859 l 538 884 q 532 902 538 895 q 513 913 525 909 q 481 919 500 918 q 433 920 462 920 q 388 919 405 920 q 360 912 370 917 q 345 898 350 907 q 337 878 340 890 l 169 885 q 189 948 172 922 q 239 991 207 973 q 319 1017 271 1009 q 433 1025 367 1025 q 551 1018 500 1025 q 635 997 601 1011 q 687 960 669 982 q 705 907 705 938 l 705 893 q 696 854 705 871 q 672 823 687 836 q 636 803 657 811 q 592 792 616 795 l 592 769 q 639 759 616 766 q 681 739 662 751 q 710 706 699 725 q 721 664 721 687 l 721 652 q 704 588 721 615 q 654 544 687 562 q 568 518 620 527 q 446 510 516 510 m 0 311 l 0 463 l 402 438 l 402 336 l 0 311 m 500 336 l 500 438 l 884 463 l 884 311 l 500 336 m 760 -143 l 643 -143 l 643 -265 l 475 -265 l 475 -143 l 154 -143 l 154 -28 l 439 273 l 643 273 l 643 -28 l 760 -28 l 760 -143 m 287 -28 l 475 -28 l 475 169 l 287 -28 z "},"⅛":{"ha":884,"x_min":0,"x_max":884,"o":"m 217 519 l 217 626 l 389 626 l 389 876 l 365 876 q 345 830 360 851 q 309 793 330 808 q 262 769 288 778 q 208 758 236 760 l 201 879 q 259 893 230 883 q 314 920 288 903 q 360 963 340 938 q 391 1019 381 987 l 557 1019 l 557 626 l 713 626 l 713 519 l 217 519 m 0 311 l 0 463 l 402 438 l 402 336 l 0 311 m 500 336 l 500 438 l 884 463 l 884 311 l 500 336 m 451 -270 q 318 -260 372 -270 q 232 -231 264 -250 q 186 -185 199 -212 q 172 -122 172 -158 l 172 -105 q 181 -62 172 -81 q 207 -29 189 -43 q 248 -6 223 -15 q 303 5 273 3 l 303 28 q 257 37 278 30 q 220 56 236 44 q 196 81 205 66 q 187 115 187 96 l 187 140 q 204 199 187 174 q 255 239 221 223 q 338 263 289 255 q 451 270 386 270 q 565 263 516 270 q 646 240 614 255 q 698 199 681 225 q 715 140 715 174 l 715 115 q 706 81 715 96 q 682 56 698 66 q 646 37 667 44 q 600 28 625 30 l 600 5 q 655 -6 630 3 q 696 -30 679 -15 q 722 -63 713 -44 q 731 -105 731 -82 l 731 -122 q 717 -186 731 -159 q 670 -232 703 -213 q 585 -261 639 -251 q 451 -270 530 -270 m 451 56 q 492 57 475 56 q 523 64 510 59 q 542 78 535 69 q 548 98 548 86 l 548 122 q 542 143 548 135 q 523 157 535 152 q 492 164 510 162 q 451 165 475 165 q 410 164 428 165 q 380 157 393 162 q 361 143 367 152 q 355 122 355 135 l 355 98 q 361 78 355 86 q 380 64 367 69 q 410 57 393 59 q 451 56 428 56 m 451 -165 q 507 -162 485 -165 q 542 -152 529 -159 q 558 -136 553 -145 q 563 -114 563 -126 l 563 -97 q 558 -74 563 -83 q 542 -57 553 -64 q 507 -47 529 -51 q 451 -43 485 -43 q 396 -47 418 -43 q 361 -57 374 -51 q 345 -74 350 -64 q 340 -97 340 -83 l 340 -114 q 345 -136 340 -126 q 361 -152 350 -145 q 396 -162 374 -159 q 451 -165 418 -165 z "},"⅜":{"ha":884,"x_min":0,"x_max":884,"o":"m 446 510 q 320 520 374 510 q 230 551 266 530 q 176 603 194 572 q 154 676 157 634 l 322 683 q 331 650 324 663 q 352 629 338 636 q 388 618 366 621 q 444 615 410 615 q 496 617 476 615 q 529 625 516 620 q 547 638 542 630 q 553 658 553 645 l 553 678 q 547 701 553 692 q 528 715 540 710 q 493 722 514 720 q 441 725 472 725 l 322 725 l 322 828 l 441 828 q 485 830 467 828 q 515 837 504 832 q 532 850 527 842 q 538 871 538 859 l 538 884 q 532 902 538 895 q 513 913 525 909 q 481 919 500 918 q 433 920 462 920 q 388 919 405 920 q 360 912 370 917 q 345 898 350 907 q 337 878 340 890 l 169 885 q 191 951 172 924 q 242 995 210 979 q 324 1018 277 1011 q 433 1025 371 1025 q 545 1020 496 1025 q 630 1000 593 1014 q 685 964 665 987 q 705 907 705 941 l 705 893 q 696 854 705 871 q 672 823 687 836 q 636 803 657 811 q 592 792 616 795 l 592 769 q 639 759 616 766 q 681 739 662 751 q 710 706 699 725 q 721 664 721 687 l 721 652 q 702 584 721 611 q 648 540 683 557 q 562 517 612 524 q 446 510 511 510 m 0 311 l 0 463 l 402 438 l 402 336 l 0 311 m 500 336 l 500 438 l 884 463 l 884 311 l 500 336 m 451 -270 q 318 -260 372 -270 q 232 -231 264 -250 q 186 -185 199 -212 q 172 -122 172 -158 l 172 -105 q 181 -62 172 -81 q 207 -29 189 -43 q 248 -6 223 -15 q 303 5 273 3 l 303 28 q 257 37 278 30 q 220 56 236 44 q 196 81 205 66 q 187 115 187 96 l 187 140 q 204 199 187 174 q 255 239 221 223 q 338 263 289 255 q 451 270 386 270 q 565 263 516 270 q 646 240 614 255 q 698 199 681 225 q 715 140 715 174 l 715 115 q 706 81 715 96 q 682 56 698 66 q 646 37 667 44 q 600 28 625 30 l 600 5 q 655 -6 630 3 q 696 -30 679 -15 q 722 -63 713 -44 q 731 -105 731 -82 l 731 -122 q 717 -186 731 -159 q 670 -232 703 -213 q 585 -261 639 -251 q 451 -270 530 -270 m 451 56 q 492 57 475 56 q 523 64 510 59 q 542 78 535 69 q 548 98 548 86 l 548 122 q 542 143 548 135 q 523 157 535 152 q 492 164 510 162 q 451 165 475 165 q 410 164 428 165 q 380 157 393 162 q 361 143 367 152 q 355 122 355 135 l 355 98 q 361 78 355 86 q 380 64 367 69 q 410 57 393 59 q 451 56 428 56 m 451 -165 q 507 -162 485 -165 q 542 -152 529 -159 q 558 -136 553 -145 q 563 -114 563 -126 l 563 -97 q 558 -74 563 -83 q 542 -57 553 -64 q 507 -47 529 -51 q 451 -43 485 -43 q 396 -47 418 -43 q 361 -57 374 -51 q 345 -74 350 -64 q 340 -97 340 -83 l 340 -114 q 345 -136 340 -126 q 361 -152 350 -145 q 396 -162 374 -159 q 451 -165 418 -165 z "},"⅝":{"ha":884,"x_min":0,"x_max":884,"o":"m 447 503 q 315 511 369 503 q 226 540 261 520 q 174 593 192 561 q 154 673 157 625 l 322 681 q 331 646 324 659 q 354 624 338 633 q 391 612 367 616 q 449 609 414 609 q 503 612 482 609 q 534 622 523 615 q 549 640 545 629 q 553 669 553 652 l 553 689 q 548 713 553 703 q 528 727 543 722 q 486 736 514 734 q 413 739 458 739 l 177 739 l 177 1019 l 699 1019 l 699 913 l 345 913 l 345 843 l 479 843 q 585 835 539 843 q 660 808 630 826 q 706 763 691 790 q 721 699 721 736 l 721 657 q 705 596 721 624 q 657 547 689 568 q 571 514 624 525 q 447 503 518 503 m 0 311 l 0 463 l 402 438 l 402 336 l 0 311 m 500 336 l 500 438 l 884 463 l 884 311 l 500 336 m 451 -270 q 318 -260 372 -270 q 232 -231 264 -250 q 186 -185 199 -212 q 172 -122 172 -158 l 172 -105 q 181 -62 172 -81 q 207 -29 189 -43 q 248 -6 223 -15 q 303 5 273 3 l 303 28 q 257 37 278 30 q 220 56 236 44 q 196 82 205 67 q 187 116 187 97 l 187 141 q 204 199 187 176 q 255 240 221 223 q 338 263 289 255 q 451 270 386 270 q 565 263 516 270 q 648 241 614 256 q 698 200 681 225 q 715 141 715 176 l 715 116 q 706 82 715 97 q 682 56 697 67 q 646 37 667 44 q 600 28 625 30 l 600 5 q 655 -6 630 3 q 696 -30 679 -15 q 722 -63 713 -44 q 731 -105 731 -82 l 731 -122 q 717 -186 731 -159 q 670 -232 703 -213 q 585 -261 639 -251 q 451 -270 530 -270 m 451 56 q 492 57 475 56 q 523 64 510 59 q 542 78 535 69 q 548 98 548 86 l 548 122 q 542 143 548 135 q 523 157 535 152 q 492 164 510 162 q 451 165 475 165 q 410 164 428 165 q 380 157 393 162 q 361 143 367 152 q 355 122 355 135 l 355 98 q 361 78 355 86 q 380 64 367 69 q 410 57 393 59 q 451 56 428 56 m 451 -165 q 507 -162 485 -165 q 542 -152 529 -159 q 558 -136 553 -145 q 563 -114 563 -126 l 563 -97 q 558 -74 563 -83 q 542 -57 553 -64 q 507 -47 529 -51 q 451 -43 485 -43 q 396 -47 418 -43 q 361 -57 374 -51 q 345 -74 350 -64 q 340 -97 340 -83 l 340 -114 q 345 -136 340 -126 q 361 -152 350 -145 q 396 -162 374 -159 q 451 -165 418 -165 z "},"⅞":{"ha":884,"x_min":0,"x_max":884,"o":"m 345 519 q 383 627 361 577 q 433 722 405 677 q 498 810 462 768 q 580 896 534 852 l 188 896 l 188 1019 l 747 1019 l 747 896 q 666 806 702 851 q 602 713 630 760 q 554 619 574 667 q 520 519 533 571 l 345 519 m 0 311 l 0 463 l 402 438 l 402 336 l 0 311 m 500 336 l 500 438 l 884 463 l 884 311 l 500 336 m 451 -270 q 318 -260 372 -270 q 232 -231 264 -250 q 186 -185 199 -212 q 172 -122 172 -158 l 172 -105 q 181 -62 172 -81 q 207 -29 189 -43 q 248 -6 223 -15 q 303 5 273 3 l 303 28 q 257 37 278 30 q 220 56 236 44 q 196 81 205 66 q 187 115 187 96 l 187 140 q 204 199 187 174 q 255 239 221 223 q 338 263 289 255 q 451 270 386 270 q 565 263 516 270 q 646 240 614 255 q 698 199 681 225 q 715 140 715 174 l 715 115 q 706 81 715 96 q 682 56 698 66 q 646 37 667 44 q 600 28 625 30 l 600 5 q 655 -6 630 3 q 696 -30 679 -15 q 722 -63 713 -44 q 731 -105 731 -82 l 731 -122 q 717 -186 731 -159 q 670 -232 703 -213 q 585 -261 639 -251 q 451 -270 530 -270 m 451 56 q 492 57 475 56 q 523 64 510 59 q 542 78 535 69 q 548 98 548 86 l 548 122 q 542 143 548 135 q 523 157 535 152 q 492 164 510 162 q 451 165 475 165 q 410 164 428 165 q 380 157 393 162 q 361 143 367 152 q 355 122 355 135 l 355 98 q 361 78 355 86 q 380 64 367 69 q 410 57 393 59 q 451 56 428 56 m 451 -165 q 507 -162 485 -165 q 542 -152 529 -159 q 558 -136 553 -145 q 563 -114 563 -126 l 563 -97 q 558 -74 563 -83 q 542 -57 553 -64 q 507 -47 529 -51 q 451 -43 485 -43 q 396 -47 418 -43 q 361 -57 374 -51 q 345 -74 350 -64 q 340 -97 340 -83 l 340 -114 q 345 -136 340 -126 q 361 -152 350 -145 q 396 -162 374 -159 q 451 -165 418 -165 z "},"_":{"ha":884,"x_min":80,"x_max":804,"o":"m 80 -253 l 80 -64 l 804 -64 l 804 -253 l 80 -253 z "},"-":{"ha":884,"x_min":80,"x_max":804,"o":"m 80 352 l 80 540 l 804 540 l 804 352 l 80 352 z "},"­":{"ha":884,"x_min":80,"x_max":804,"o":"m 80 352 l 80 540 l 804 540 l 804 352 l 80 352 z "},"‐":{"ha":884,"x_min":80,"x_max":804,"o":"m 80 352 l 80 540 l 804 540 l 804 352 l 80 352 z "},"‑":{"ha":884,"x_min":80,"x_max":804,"o":"m 80 352 l 80 540 l 804 540 l 804 352 l 80 352 z "},"–":{"ha":884,"x_min":73,"x_max":811,"o":"m 73 352 l 73 540 l 811 540 l 811 352 l 73 352 z "},"—":{"ha":884,"x_min":0,"x_max":884,"o":"m 0 352 l 0 540 l 884 540 l 884 352 l 0 352 z "},"―":{"ha":884,"x_min":0,"x_max":884,"o":"m 0 352 l 0 540 l 884 540 l 884 352 l 0 352 z "},"(":{"ha":884,"x_min":208,"x_max":742,"o":"m 721 -265 q 326 -39 444 -218 q 208 379 208 141 q 326 793 208 610 q 721 1023 444 976 l 742 879 q 491 703 559 832 q 423 379 423 573 q 491 59 423 184 q 742 -114 559 -67 l 721 -265 z "},")":{"ha":884,"x_min":141,"x_max":676,"o":"m 163 -265 l 141 -114 q 393 62 324 -67 q 461 379 461 191 q 393 696 461 559 q 141 879 324 832 l 163 1023 q 557 793 439 976 q 676 379 676 610 q 557 -39 676 141 q 163 -265 439 -218 z "},"[":{"ha":884,"x_min":208,"x_max":739,"o":"m 208 -253 l 208 1010 l 739 1010 l 739 852 l 423 852 l 423 -100 l 739 -100 l 739 -253 l 208 -253 z "},"]":{"ha":884,"x_min":145,"x_max":676,"o":"m 145 -253 l 145 -100 l 461 -100 l 461 852 l 145 852 l 145 1010 l 676 1010 l 676 -253 l 145 -253 z "},"{":{"ha":884,"x_min":19,"x_max":739,"o":"m 739 -265 q 283 -222 422 -269 q 145 -56 145 -174 q 165 39 145 1 q 226 115 184 77 q 289 179 269 154 q 309 226 309 203 q 247 310 309 285 q 19 338 184 335 l 19 449 q 247 477 184 453 q 309 559 309 501 q 290 602 309 582 q 229 653 270 622 q 165 718 186 684 q 145 807 145 753 q 283 977 145 928 q 739 1023 422 1027 l 739 865 q 442 848 524 869 q 360 774 360 828 q 378 725 360 747 q 442 668 395 702 q 506 609 489 635 q 524 543 524 582 q 449 434 524 468 q 193 395 375 400 l 193 389 q 449 340 375 376 q 524 234 524 304 q 506 167 524 193 q 442 105 489 140 q 378 47 395 73 q 360 -13 360 21 q 442 -92 360 -71 q 739 -110 524 -114 l 739 -265 z "},"}":{"ha":884,"x_min":145,"x_max":865,"o":"m 739 -56 q 600 -222 739 -174 q 145 -265 462 -269 l 145 -110 q 442 -92 360 -114 q 524 -13 524 -71 q 506 47 524 21 q 442 105 489 73 q 378 167 395 140 q 360 234 360 193 q 434 340 360 304 q 691 389 509 376 l 691 395 q 434 434 509 400 q 360 543 360 468 q 378 609 360 582 q 442 668 395 635 q 506 725 489 702 q 524 774 524 747 q 442 848 524 828 q 145 865 360 869 l 145 1023 q 600 977 462 1027 q 739 807 739 928 q 718 718 739 753 q 655 653 698 684 q 594 602 614 622 q 574 559 574 582 q 637 477 574 501 q 865 449 699 453 l 865 338 q 637 310 699 335 q 574 226 574 285 q 595 179 574 203 q 658 115 615 154 q 719 39 699 77 q 739 -56 739 1 z "},"#":{"ha":884,"x_min":19,"x_max":865,"o":"m 515 375 l 528 635 l 369 635 l 356 375 l 515 375 m 496 0 l 508 226 l 348 226 l 337 0 l 170 0 l 182 226 l 19 226 l 19 375 l 189 375 l 202 635 l 19 635 l 19 784 l 210 784 l 221 1010 l 388 1010 l 376 784 l 535 784 l 547 1010 l 713 1010 l 702 784 l 865 784 l 865 635 l 694 635 l 682 375 l 865 375 l 865 226 l 674 226 l 663 0 l 496 0 z "},"%":{"ha":884,"x_min":33,"x_max":851,"o":"m 242 583 q 90 631 148 583 q 33 779 33 679 l 33 837 q 91 987 33 938 q 242 1035 149 1035 q 393 987 336 1035 q 449 837 449 938 l 449 779 q 392 631 449 679 q 242 583 335 583 m 242 699 q 286 717 270 699 q 302 773 302 734 l 302 845 q 286 902 302 884 q 242 920 270 920 q 198 902 215 920 q 181 845 181 884 l 181 773 q 198 717 181 734 q 242 699 215 699 m 44 235 l 759 879 l 848 778 l 126 131 l 44 235 m 644 -28 q 492 20 549 -28 q 434 168 434 68 l 434 226 q 492 376 434 327 q 644 424 551 424 q 794 376 737 424 q 851 226 851 327 l 851 168 q 794 20 851 68 q 644 -28 736 -28 m 644 83 q 688 100 672 83 q 703 157 703 117 l 703 229 q 688 286 703 268 q 644 304 672 304 q 599 286 616 304 q 582 229 582 268 l 582 157 q 599 100 582 117 q 644 83 616 83 z "},"‰":{"ha":884,"x_min":24,"x_max":859,"o":"m 226 583 q 86 630 139 583 q 33 775 33 677 l 33 841 q 86 987 33 939 q 226 1035 140 1035 q 364 987 312 1035 q 417 841 417 939 l 417 775 q 364 630 417 677 q 226 583 311 583 m 172 769 q 187 715 172 731 q 226 699 202 699 q 264 715 250 699 q 278 769 278 731 l 278 848 q 264 903 278 885 q 226 920 250 920 q 187 903 202 920 q 172 848 172 885 l 172 769 m 846 765 l 87 218 l 24 311 l 778 855 l 846 765 m 706 -28 q 639 -11 668 -28 q 593 40 610 5 q 543 -11 573 5 q 473 -28 513 -28 q 369 19 409 -28 q 328 164 328 66 l 328 221 q 371 367 328 319 q 482 415 414 415 q 548 399 519 415 q 593 347 577 383 q 640 399 611 383 q 706 415 669 415 q 816 367 774 415 q 859 221 859 319 l 859 164 q 816 19 859 66 q 706 -28 774 -28 m 449 154 q 461 100 449 116 q 491 85 472 85 q 520 100 510 85 q 530 154 530 116 l 530 232 q 520 287 530 269 q 491 304 510 304 q 461 287 472 304 q 449 232 449 269 l 449 154 m 657 154 q 667 100 657 116 q 697 85 678 85 q 726 100 716 85 q 736 154 736 116 l 736 232 q 726 287 736 269 q 697 304 716 304 q 667 287 678 304 q 657 232 657 269 l 657 154 z "},"'":{"ha":884,"x_min":306,"x_max":578,"o":"m 348 461 l 306 1010 l 578 1010 l 535 461 l 348 461 z "},"\"":{"ha":884,"x_min":125,"x_max":759,"o":"m 547 461 l 504 1010 l 759 1010 l 716 461 l 547 461 m 168 461 l 125 1010 l 380 1010 l 337 461 l 168 461 z "},"ʻ":{"ha":884,"x_min":217,"x_max":668,"o":"m 217 461 l 524 1010 l 668 1010 l 542 461 l 217 461 z "},"‘":{"ha":884,"x_min":217,"x_max":668,"o":"m 217 461 l 524 1010 l 668 1010 l 542 461 l 217 461 z "},"’":{"ha":884,"x_min":216,"x_max":667,"o":"m 216 461 l 342 1010 l 667 1010 l 360 461 l 216 461 z "},"“":{"ha":884,"x_min":54,"x_max":836,"o":"m 433 461 l 713 1010 l 836 1010 l 727 461 l 433 461 m 54 461 l 343 1010 l 466 1010 l 348 461 l 54 461 z "},"”":{"ha":884,"x_min":48,"x_max":830,"o":"m 418 461 l 535 1010 l 830 1010 l 540 461 l 418 461 m 48 461 l 157 1010 l 451 1010 l 170 461 l 48 461 z "},"‛":{"ha":884,"x_min":191,"x_max":641,"o":"m 497 461 l 191 1010 l 516 1010 l 641 461 l 497 461 z "},"‚":{"ha":884,"x_min":229,"x_max":654,"o":"m 229 -208 l 330 341 l 654 341 l 372 -208 l 229 -208 z "},"„":{"ha":884,"x_min":10,"x_max":792,"o":"m 380 -208 l 497 341 l 792 341 l 503 -208 l 380 -208 m 10 -208 l 119 341 l 413 341 l 133 -208 l 10 -208 z "},"‹":{"ha":884,"x_min":208,"x_max":676,"o":"m 676 56 l 208 335 l 208 549 l 676 828 l 676 638 l 348 442 l 676 246 l 676 56 z "},"›":{"ha":884,"x_min":208,"x_max":676,"o":"m 208 56 l 208 246 l 535 442 l 208 638 l 208 828 l 676 549 l 676 335 l 208 56 z "},"«":{"ha":884,"x_min":49,"x_max":836,"o":"m 836 56 l 472 335 l 472 549 l 836 828 l 836 638 l 581 442 l 836 246 l 836 56 m 413 56 l 49 335 l 49 549 l 413 828 l 413 638 l 158 442 l 413 246 l 413 56 z "},"»":{"ha":884,"x_min":49,"x_max":836,"o":"m 49 56 l 49 246 l 304 442 l 49 638 l 49 828 l 413 549 l 413 335 l 49 56 m 472 56 l 472 246 l 727 442 l 472 638 l 472 828 l 836 549 l 836 335 l 472 56 z "},"*":{"ha":884,"x_min":67,"x_max":817,"o":"m 722 336 l 482 558 l 535 253 l 346 253 l 400 557 l 162 336 l 67 500 l 372 633 l 67 765 l 162 929 l 400 707 l 346 1010 l 535 1010 l 482 706 l 722 929 l 817 765 l 510 633 l 817 500 l 722 336 z "},"†":{"ha":884,"x_min":57,"x_max":827,"o":"m 348 -253 l 348 600 l 253 600 l 211 326 l 57 326 l 95 758 l 347 758 l 336 1010 l 549 1010 l 537 758 l 789 758 l 827 326 l 673 326 l 631 600 l 537 600 l 537 -253 l 348 -253 z "},"‡":{"ha":884,"x_min":53,"x_max":832,"o":"m 336 -253 l 345 -27 l 91 -27 l 53 290 l 198 290 l 249 131 l 348 131 l 348 626 l 249 626 l 198 467 l 53 467 l 91 784 l 345 784 l 336 1010 l 549 1010 l 540 784 l 794 784 l 832 467 l 687 467 l 636 626 l 537 626 l 537 131 l 636 131 l 687 290 l 832 290 l 794 -27 l 540 -27 l 549 -253 l 336 -253 z "},".":{"ha":884,"x_min":268,"x_max":617,"o":"m 443 -13 q 316 22 364 -13 q 268 121 268 57 l 268 208 q 316 309 268 274 q 443 345 364 345 q 569 309 521 345 q 617 208 617 274 l 617 121 q 568 22 617 57 q 443 -13 519 -13 z "},",":{"ha":884,"x_min":229,"x_max":654,"o":"m 229 -208 l 330 341 l 654 341 l 372 -208 l 229 -208 z "},":":{"ha":884,"x_min":280,"x_max":604,"o":"m 443 489 q 326 520 371 489 q 280 609 280 551 l 280 678 q 326 769 280 737 q 443 801 371 801 q 559 769 515 801 q 604 678 604 737 l 604 609 q 558 520 604 551 q 443 489 513 489 m 443 -8 q 326 23 371 -8 q 280 112 280 54 l 280 182 q 326 273 280 241 q 443 304 371 304 q 559 273 515 304 q 604 182 604 241 l 604 112 q 558 23 604 54 q 443 -8 513 -8 z "},";":{"ha":884,"x_min":245,"x_max":639,"o":"m 443 489 q 326 520 371 489 q 280 609 280 551 l 280 678 q 326 769 280 737 q 443 801 371 801 q 559 769 515 801 q 604 678 604 737 l 604 609 q 558 520 604 551 q 443 489 513 489 m 245 -189 l 338 322 l 639 322 l 378 -189 l 245 -189 z "},"…":{"ha":884,"x_min":42,"x_max":842,"o":"m 744 -11 q 673 15 701 -11 q 645 95 645 40 l 645 236 q 673 318 645 292 q 744 345 701 345 q 815 318 788 345 q 842 236 842 292 l 842 95 q 814 15 842 40 q 744 -11 787 -11 m 442 -11 q 371 15 399 -11 q 343 95 343 40 l 343 236 q 371 318 343 292 q 442 345 399 345 q 513 318 486 345 q 540 236 540 292 l 540 95 q 513 15 540 40 q 442 -11 485 -11 m 141 -11 q 69 15 97 -11 q 42 95 42 40 l 42 236 q 69 318 42 292 q 141 345 97 345 q 211 318 184 345 q 239 236 239 292 l 239 95 q 211 15 239 40 q 141 -11 184 -11 z "},"!":{"ha":884,"x_min":277,"x_max":609,"o":"m 343 379 l 306 1010 l 571 1010 l 533 379 l 343 379 m 443 -13 q 318 13 360 -13 q 277 93 277 39 l 277 129 q 318 211 277 184 q 443 237 360 237 q 568 211 527 237 q 609 129 609 184 l 609 93 q 566 13 609 39 q 443 -13 524 -13 z "},"¡":{"ha":884,"x_min":277,"x_max":609,"o":"m 442 1023 q 567 997 525 1023 q 609 917 609 971 l 609 881 q 567 799 609 826 q 442 773 525 773 q 318 799 359 773 q 277 881 277 826 l 277 917 q 319 997 277 971 q 442 1023 361 1023 m 543 631 l 581 0 l 316 0 l 354 631 l 543 631 z "},"‼":{"ha":884,"x_min":91,"x_max":812,"o":"m 582 379 l 544 1010 l 774 1010 l 736 379 l 582 379 m 158 379 l 120 1010 l 350 1010 l 312 379 l 158 379 m 664 -13 q 598 -6 626 -13 q 552 13 571 0 q 525 46 534 27 q 515 93 515 66 l 515 129 q 525 177 515 157 q 552 211 534 198 q 598 231 571 225 q 664 237 626 237 q 730 231 702 237 q 775 211 758 225 q 803 177 794 198 q 812 129 812 157 l 812 93 q 802 46 812 66 q 774 13 793 27 q 729 -6 756 0 q 664 -13 701 -13 m 240 -13 q 174 -6 202 -13 q 128 13 146 0 q 100 46 110 27 q 91 93 91 66 l 91 129 q 100 177 91 157 q 128 211 110 198 q 174 231 146 225 q 240 237 202 237 q 306 231 278 237 q 351 211 333 225 q 379 177 370 198 q 388 129 388 157 l 388 93 q 378 46 388 66 q 350 13 369 27 q 304 -6 332 0 q 240 -13 277 -13 z "},"?":{"ha":884,"x_min":63,"x_max":808,"o":"m 297 351 l 271 497 q 530 575 466 529 q 593 697 593 621 l 593 726 q 563 828 593 792 q 442 865 533 865 q 316 827 345 865 q 278 693 287 789 l 63 706 q 161 948 72 872 q 441 1023 250 1023 q 718 940 628 1023 q 808 737 808 857 l 808 692 q 686 466 808 542 q 297 351 564 390 m 381 -13 q 257 13 298 -13 q 216 93 216 39 l 216 129 q 257 211 216 184 q 381 237 298 237 q 506 211 465 237 q 548 129 548 184 l 548 93 q 505 13 548 39 q 381 -13 462 -13 z "},"¿":{"ha":884,"x_min":76,"x_max":821,"o":"m 503 1023 q 628 997 586 1023 q 669 917 669 971 l 669 881 q 628 799 669 826 q 503 773 586 773 q 378 799 419 773 q 337 881 337 826 l 337 917 q 379 997 337 971 q 503 1023 422 1023 m 587 659 l 612 513 q 354 435 418 481 q 290 313 290 389 l 290 284 q 321 182 290 218 q 442 145 351 145 q 568 183 539 145 q 606 317 597 221 l 821 304 q 723 63 812 139 q 443 -13 634 -13 q 166 70 256 -13 q 76 274 76 153 l 76 318 q 198 544 76 468 q 587 659 319 620 z "}}}
